<?xml version="1.0" standalone="no"?>
<!DOCTYPE svg PUBLIC "-//W3C//DTD SVG 1.1//EN" "http://www.w3.org/Graphics/SVG/1.1/DTD/svg11.dtd" >
<svg>
<metadata>
Created by FontForge 20090914 at Thu Mar  6 01:23:12 2014
 By www-data
Created by MyScriptFont.com
</metadata>
<defs>
<font id="thomasreggi3" horiz-adv-x="10" >
  <font-face 
    font-family="thomasreggi3"
    font-weight="500"
    font-stretch="normal"
    units-per-em="1000"
    panose-1="2 0 6 3 0 0 0 0 0 0"
    ascent="800"
    descent="-200"
    x-height="497.503"
    cap-height="567.997"
    bbox="8.95571 -199.399 708.132 799.997"
    underline-thickness="50"
    underline-position="-100"
    unicode-range="U+0020-U+20AC"
  />
<missing-glyph horiz-adv-x="364" 
d="M33 0v666h265v-666h-265zM66 33h199v600h-199v-600z" />
    <glyph glyph-name=".notdef" horiz-adv-x="364" 
d="M33 0v666h265v-666h-265zM66 33h199v600h-199v-600z" />
    <glyph glyph-name="space" unicode=" " horiz-adv-x="420" 
 />
    <glyph glyph-name="exclam" unicode="!" horiz-adv-x="153" 
d="M33 102c10.667 11.333 20.1689 16.1689 28.502 14.502s19.166 -10.167 32.499 -25.5c13.333 -16 22.333 -31.833 27 -47.5s3.33398 -26.834 -3.99902 -33.501c-6.66699 -6.66699 -10 -16.334 -10 -29.001c0 -20 -8.83301 -32.667 -26.5 -38s-33.834 0 -48.501 16
c-10.667 12 -15.834 35.833 -15.501 71.5s5.83301 59.5 16.5 71.5zM10.002 616.003c0 6.66699 5.83301 19.833 17.5 39.5s19.5 29.5 23.5 29.5c6.66699 0 15.167 -3.83301 25.5 -11.5s17.833 -15.5 22.5 -23.5c4.66699 -9.33301 13 -70.833 25 -184.5
s18.333 -188.167 19 -223.5c0 -23.333 -5.5 -43.833 -16.5 -61.5s-23.5 -26.5 -37.5 -26.5c-8 0 -15.167 5 -21.5 15s-16.833 33 -31.5 69c-3.33301 6.66699 -8.5 63 -15.5 169s-10.5 175.667 -10.5 209z" />
    <glyph glyph-name="numbersign" unicode="#" horiz-adv-x="621" 
d="M561 207c-16 0 -35.3281 -8.83203 -57.9951 -26.499s-42.834 -35.334 -60.501 -53.001s-28.5 -26.5 -32.5 -26.5c-6 0 -18 7.33301 -36 22c-26 22 -47.667 28 -65 18s-28.333 -35 -33 -75c-2.66699 -20.667 -6 -36.667 -10 -48s-10.667 -21.333 -20 -30
c-11.333 -11.333 -19.333 -17.5 -24 -18.5s-13 1.5 -25 7.5c-10 6 -17 13.5 -21 22.5s-8 26.833 -12 53.5l-9 61l-48 -3c-30.667 -1.33301 -51.334 2.83398 -62.001 12.501s-18 31 -22 64s-2.33301 55 5 66s23 14.5 47 10.5c38 -5.33301 72.667 0 104 16
c23.333 12 29.333 23.667 18 35c-6.66699 6.66699 -27.667 5 -63 -5c-36 -10 -61.167 -14.5 -75.5 -13.5s-25.833 8 -34.5 21s-13.334 32.5 -14.001 58.5s3 44 11 54c6 8 26.833 17.167 62.5 27.5s64.5 15.5 86.5 15.5c24.667 0 42.5 6.16699 53.5 18.5
s18.167 34.166 21.5 65.499c4 35.333 9 56.666 15 63.999c5.33301 6.66699 10.166 9.83398 14.499 9.50098s14.833 -5.5 31.5 -15.5c10.667 -6 21 -15.833 31 -29.5s17.833 -25.5 23.5 -35.5s9.5 -15 11.5 -15c3.33301 0 9.33301 15.333 18 46c8.66699 30 19 46.667 31 50
s26.333 -6 43 -28c15.333 -20 23 -34.167 23 -42.5s9.66699 -24.166 29 -47.499c12.667 -16 21.167 -33.5 25.5 -52.5s3.66602 -35 -2.00098 -48s-15.5 -19.5 -29.5 -19.5s-24.5 -4.5 -31.5 -13.5s-9.5 -21.5 -7.5 -37.5c1.33301 -11.333 4.83301 -18.5 10.5 -21.5
s22.167 -5.5 49.5 -7.5c35.333 -3.33301 57.5 -7.33301 66.5 -12s13.5 -14.334 13.5 -29.001c0 -13.333 -5.83301 -27.5 -17.5 -42.5s-22.5 -22.5 -32.5 -22.5zM354.005 332.001c0 10 -2.49902 16.502 -7.49902 19.502s-10.5 1.5 -16.5 -4.5s-9.5 -13.833 -10.5 -23.5
s0.833008 -16.834 5.5 -21.501c3.33301 -2.66699 7.16602 -2.83398 11.499 -0.500977s8.33301 6.5 12 12.5s5.5 12 5.5 18z" />
    <glyph glyph-name="dollar" unicode="$" horiz-adv-x="450" 
d="M243 746c5.33301 8.66699 14.6611 11.3369 27.9941 8.00391s26.333 -11.666 39 -24.999s22 -19.333 28 -18s12.333 11 19 29c6 17.333 18.333 19.333 37 6s32.334 -34 41.001 -62c5.33301 -19.333 6 -54.833 2 -106.5s-11.167 -98.167 -21.5 -139.5
s-15.5 -68.333 -15.5 -81s5.33301 -27.667 16 -45c18.667 -30.667 23.167 -63.5 13.5 -98.5s-32.167 -69.5 -67.5 -103.5c-16 -16 -27.667 -30.5 -35 -43.5s-11.333 -23.833 -12 -32.5s-2.66699 -20.834 -6 -36.501s-9.33301 -32.167 -18 -49.5
c-7.33301 -14.667 -13.666 -23.834 -18.999 -27.501s-14.666 -5.5 -27.999 -5.5c-12.667 0 -21.5 1.5 -26.5 4.5s-9.16699 8.5 -12.5 16.5c-6 15.333 -12.667 24 -20 26s-22.666 -0.333008 -45.999 -7c-60.667 -18.667 -99.334 -10.334 -116.001 24.999
c-9.33301 18 -13.666 33.167 -12.999 45.5s6 23.833 16 34.5c12 12.667 25.667 47 41 103c0.666992 4 2.33398 9.66699 5.00098 17c16.667 61.333 24 97.333 22 108c-2.66699 8 -11 16.333 -25 25c-2 1.33301 -3.66699 2.33301 -5 3c-20 12.667 -33 27.667 -39 45
s-7 41.666 -3 72.999c2.66699 17.333 9 32.333 19 45s35.667 37.667 77 75c42 37.333 68.333 62.666 79 75.999s19.334 32 26.001 56c10 34 16.667 54 20 60zM309.995 472.003c0 17.333 -3.66797 26.332 -11.001 26.999
c-3.33301 0.666992 -6.66602 -1.66602 -9.99902 -6.99902c-4.66699 -8.66699 -8 -23 -10 -43s-0.666992 -31.333 4 -34c4 -2 8.16699 -0.666992 12.5 4s7.83301 12 10.5 22s4 20.333 4 31zM251.994 279.002c-4 5.33301 -9 7.33203 -15 5.99902s-11.5 -5.66602 -16.5 -12.999
s-7.5 -15.666 -7.5 -24.999c0 -12 -5 -31.667 -15 -59c-12 -34.667 -13 -51.334 -3 -50.001c5.33301 0.666992 12.666 6.66699 21.999 18c10.667 12 20.334 33.5 29.001 64.5s10.667 50.5 6 58.5z" />
    <glyph glyph-name="percent" unicode="%" horiz-adv-x="718" 
d="M452 243c18 19.333 32.332 30.335 42.999 33.002s25.667 -1 45 -11c11.333 -5.33301 19 -8.16602 23 -8.49902s8.33301 2.5 13 8.5c7.33301 8.66699 13.666 13 18.999 13c6 0 20.5 -8.16699 43.5 -24.5s34.5 -26.833 34.5 -31.5c0 -4 1.5 -7.83301 4.5 -11.5l9.5 -12
c3.33301 -4.33301 7 -12.833 11 -25.5s6.66699 -29 8 -49c2.66699 -26 2.83398 -44 0.500977 -54s-10.5 -24.667 -24.5 -44c-26.667 -38.667 -63.5 -64.334 -110.5 -77.001s-86.833 -7.66699 -119.5 15c-14 9.33301 -23.667 18.666 -29 27.999s-10.333 25 -15 47
c-8.66699 40 -9.16699 78.167 -1.5 114.5s22.834 66.166 45.501 89.499zM636.999 162.002c0 8.66699 -6.99707 21.333 -20.9971 38s-22.667 25 -26 25c-4.66699 0 -18.5 -19.167 -41.5 -57.5s-34.5 -61.5 -34.5 -69.5c0 -4.66699 0.666992 -8.16699 2 -10.5
s3.66602 -3.33301 6.99902 -3s6.66602 1 9.99902 2s8 2.16699 14 3.5s11.667 2 17 2c8.66699 0 23.167 9.66699 43.5 29s30.166 33 29.499 41zM93.002 593.001c11.333 13.333 22.501 24.665 33.501 33.998s18.167 14 21.5 14c8 0 17.833 -4.66699 29.5 -14
s17.5 -17 17.5 -23s12 -23.333 36 -52c16.667 -20 26.667 -35 30 -45s5 -29 5 -57c0 -29.333 -1.66699 -48.166 -5 -56.499s-14 -20.833 -32 -37.5c-56 -52 -107 -78 -153 -78c-26.667 0 -44.334 7.5 -53.001 22.5s-13 44.833 -13 89.5c0 40.667 6 75.334 18 104.001
s33.667 61.667 65 99zM178.003 481.5c0 5.66699 -1.33301 8.5 -4 8.5c-4 0 -7.33301 -3.33301 -10 -10c-2 -4.66699 -0.666992 -7 4 -7c6.66699 0 10 2.83301 10 8.5zM195.003 250c0 4 5.99902 11.833 17.999 23.5s18 19.167 18 22.5c0 4.66699 17.333 34.334 52 89.001
c34.667 54 71.5 118 110.5 192s58.5 116.667 58.5 128c0 4.66699 2 10.334 6 17.001s10.5 11.5 19.5 14.5s20.5 -3.16699 34.5 -18.5c13.333 -14.667 20.666 -39.334 21.999 -74.001c0.666992 -22 -0.333008 -38.5 -3 -49.5s-9 -24.5 -19 -40.5
c-16.667 -24.667 -25 -40.667 -25 -48c0 -5.33301 -5.83301 -16.5 -17.5 -33.5s-17.5 -28.833 -17.5 -35.5c0 -7.33301 -5.83301 -19.166 -17.5 -35.499s-17.5 -26 -17.5 -29s-5.16699 -12.5 -15.5 -28.5l-35.5 -55c-13.333 -20.667 -22.333 -36.334 -27 -47.001
c-13.333 -26.667 -35.166 -64.667 -65.499 -114s-47.5 -77.666 -51.5 -84.999c-4.66699 -10 -10.167 -17 -16.5 -21s-15.166 -6.66699 -26.499 -8c-22 -2 -36.5 1.83301 -43.5 11.5s-10.5 30.167 -10.5 61.5c0 24 1.83301 41.667 5.5 53s13.5 28.666 29.5 51.999
c23.333 33.333 35 52.666 35 57.999z" />
    <glyph glyph-name="ampersand" unicode="&#x26;" horiz-adv-x="664" 
d="M274 769l19.0029 30.9971h201l22 -38c15.333 -26 23 -56.333 23 -91c0 -56.667 -15.333 -112.667 -46 -168s-64.334 -87.666 -101.001 -96.999c-24 -6 -39.5 -11.833 -46.5 -17.5s-8.83301 -13.834 -5.5 -24.501c4.66699 -14.667 16.5 -31.167 35.5 -49.5
s33.667 -27.5 44 -27.5s26.166 10.833 47.499 32.5s43.666 50.5 66.999 86.5c14 20.667 24.167 33.167 30.5 37.5s17.166 6.16602 32.499 5.49902c20.667 0 35.334 -5.33301 44.001 -16s13 -28 13 -52c0 -18.667 -4 -34.5 -12 -47.5s-20.5 -29 -37.5 -48
s-31.5 -38.5 -43.5 -58.5c-7.33301 -12 -11.166 -21 -11.499 -27s2.16699 -14 7.5 -24c5.33301 -10.667 7.66602 -18 6.99902 -22s-5 -9 -13 -15c-12.667 -9.33301 -26.167 -15.166 -40.5 -17.499s-26.166 -0.833008 -35.499 4.5c-10.667 4.66699 -18.667 6.5 -24 5.5
s-15 -4.16699 -29 -9.5s-27.833 -11.166 -41.5 -17.499s-34 -12.166 -61 -17.499s-56.167 -8.66602 -87.5 -9.99902c-36.667 -1.33301 -61.5 -1.16602 -74.5 0.500977s-27.5 6.83398 -43.5 15.501c-50 28 -82.333 72.667 -97 134c-5.33301 29.333 -7.33301 48.166 -6 56.499
s4.16602 17.166 8.49902 26.499s6.5 19 6.5 29c0 28.667 18.5 59.5 55.5 92.5s71.833 49.5 104.5 49.5c10.667 0 19 6 25 18s9 27.667 9 47c0 26 6.5 65.667 19.5 119s24.5 88 34.5 104zM409.003 696.997c-6.66699 34 -18.667 32.334 -36 -4.99902
c-6 -13.333 -12 -30.333 -18 -51c-13.333 -42.667 -21.333 -72.334 -24 -89.001s-1 -27 5 -31c9.33301 -5.33301 20.5 2.5 33.5 23.5s23.667 47 32 78s10.833 55.833 7.5 74.5zM253.003 333.998c-12.667 25.333 -27.499 35.8311 -44.499 31.498
s-33.833 -23.166 -50.5 -56.499c-10 -20.667 -15.333 -38.667 -16 -54s3.66602 -31.666 12.999 -48.999c6 -12 12.333 -19.167 19 -21.5s22.667 -3.5 48 -3.5c21.333 0 38.333 1.5 51 4.5s26.667 9.16699 42 18.5c10.667 6 19.5 12 26.5 18s10.167 10 9.5 12
c-0.666992 2.66699 -7.5 9 -20.5 19s-27.333 22.5 -43 37.5s-27.167 29.5 -34.5 43.5z" />
    <glyph glyph-name="quotesingle" unicode="'" horiz-adv-x="139" 
d="M46 610c20.667 15.333 38.166 15.833 52.499 1.5s24.166 -41.5 29.499 -81.5c3.33301 -30.667 0.333008 -65 -9 -103s-21.666 -64 -36.999 -78c-14 -13.333 -27.833 -18.833 -41.5 -16.5s-22.667 10.333 -27 24s-3.16602 30.167 3.50098 49.5
c7.33301 18 11.333 54.333 12 109c0 36 1 59.5 3 70.5s6.66699 19.167 14 24.5z" />
    <glyph glyph-name="parenleft" unicode="(" horiz-adv-x="274" 
d="M165 568c14 19.333 27.333 27.999 40 25.999s25.667 -14.333 39 -37c13.333 -24 20.166 -40.167 20.499 -48.5s-14.5 -32.833 -44.5 -73.5c-26 -36 -45.833 -68.333 -59.5 -97s-26.5 -64.667 -38.5 -108c-8.66699 -33.333 -13.5 -60.5 -14.5 -81.5
s1.83301 -37.5 8.5 -49.5s14.167 -22 22.5 -30l32 -31.5c13 -13 23.5 -27.833 31.5 -44.5c8.66699 -15.333 13.667 -27 15 -35s0 -17 -4 -27c-6 -15.333 -15.333 -23.166 -28 -23.499s-31.334 6.5 -56.001 20.5c-18.667 11.333 -37.667 27.166 -57 47.499
s-34.666 41.166 -45.999 62.499c-5.33301 10.667 -10 33 -14 67s-3.66699 74.333 1 121s15 85.334 31 116.001c11.333 22.667 17 39.667 17 51c0 6.66699 1.33301 11.667 4 15l12.5 15c5.66699 6.66699 10.834 15.334 15.501 26.001c18 38 42 77.667 72 119z" />
    <glyph glyph-name="parenright" unicode=")" horiz-adv-x="263" 
d="M22 566c9.33301 11.333 21.9951 15.001 37.9951 11.001s32.333 -15 49 -33c18.667 -18.667 38.167 -42.5 58.5 -71.5s30.5 -46.833 30.5 -53.5c0 -6 6 -21 18 -45c14.667 -28.667 25.334 -68.5 32.001 -119.5s7.33398 -97.5 2.00098 -139.5
c-6.66699 -47.333 -15.5 -94.333 -26.5 -141s-21.167 -79 -30.5 -97c-2 -3.33301 -4.33301 -8 -7 -14c-17.333 -32 -28.666 -50.667 -33.999 -56s-16.666 -7.33301 -33.999 -6c-3.33301 0.666992 -6 1 -8 1c-19.333 1.33301 -30.833 3.33301 -34.5 6
s-5.16699 10.334 -4.5 23.001c0.666992 13.333 9.66699 41 27 83s29 74.667 35 98l20 83c8 32 7 77.167 -3 135.5s-24.333 102.166 -43 131.499c-11.333 17.333 -30.666 38.333 -57.999 63c-19.333 18 -30.833 30.833 -34.5 38.5s-5.16699 22.5 -4.5 44.5
c1.33301 31.333 5.33301 50.666 12 57.999z" />
    <glyph glyph-name="asterisk" unicode="*" horiz-adv-x="448" 
d="M180 660c0 16.667 3.16699 30.8301 9.5 42.4971s12.5 17.5 18.5 17.5s15.667 -7.16699 29 -21.5s24.333 -30.166 33 -47.499c10.667 -18.667 18.834 -28 24.501 -28s16.5 10.333 32.5 31c28 37.333 52.667 40.333 74 9c14.667 -21.333 25 -56 31 -104l6 -51l-45 -21
c-26.667 -12 -48.167 -25.167 -64.5 -39.5s-24.5 -26.833 -24.5 -37.5c0 -8 -4.33301 -21.667 -13 -41s-13 -34.666 -13 -45.999c0 -10 -5.66699 -23 -17 -39s-20.666 -24 -27.999 -24c-3.33301 0 -9 3.5 -17 10.5s-14.833 12.333 -20.5 16s-12.5 3.5 -20.5 -0.5
c-7.33301 -6 -19.333 -8 -36 -6c-10.667 0.666992 -18 3.5 -22 8.5s-7.66699 15.833 -11 32.5s-4.33301 29.667 -3 39s6.33301 22 15 38c23.333 44 15.666 66 -23.001 66c-9.33301 0 -17 3.5 -23 10.5s-12.333 17 -19 30s-12.667 23.167 -18 30.5
c-12 14 -19.667 31.167 -23 51.5s-2 39.833 4 58.5c8.66699 24.667 19.167 37.334 31.5 38.001s31.166 -10.333 56.499 -33c28 -24 44 -36 48 -36c7.33301 0 13.833 4.66699 19.5 14s8.5 20 8.5 32z" />
    <glyph glyph-name="plus" unicode="+" horiz-adv-x="551" 
d="M175 560c19.333 20 40.3359 16.6719 63.0029 -9.99512c23.333 -28 36.666 -66.667 39.999 -116l5 -63l44 -2c29.333 -1.33301 68.333 -5.33301 117 -12c31.333 -4 52.333 -8 63 -12s19 -10.333 25 -19c18 -28 9.33301 -45.667 -26 -53
c-12.667 -2.66699 -22.834 -6.33398 -30.501 -11.001s-17.834 -9 -30.501 -13s-33.334 -7 -62.001 -9c-14 -0.666992 -24.833 -1.33398 -32.5 -2.00098s-15.667 -1.83398 -24 -3.50098s-14.333 -3.16699 -18 -4.5s-7.5 -3.5 -11.5 -6.5s-6.66699 -6 -8 -9
s-2.5 -7.5 -3.5 -13.5s-1.5 -11.667 -1.5 -17s0.333008 -13 1 -23c2 -38 -0.166992 -64.833 -6.5 -80.5s-18.166 -23.5 -35.499 -23.5c-12.667 0 -21.5 2.33301 -26.5 7s-11.5 16.334 -19.5 35.001c-12.667 28 -21 50.667 -25 68c-2.66699 13.333 -7 21.166 -13 23.499
s-24.667 4.16602 -56 5.49902c-28.667 1.33301 -47.334 3.33301 -56.001 6s-16 9 -22 19c-8.66699 13.333 -13.5 33.166 -14.5 59.499s2.5 44.5 10.5 54.5c5.33301 6.66699 15.833 10 31.5 10s31.334 -1 47.001 -3s32.167 0 49.5 6l26 10l-6 96
c-3.33301 64 -1.33301 99.333 6 106z" />
    <glyph glyph-name="comma" unicode="," horiz-adv-x="176" 
d="M62 141c4.66699 9.33301 9.16602 15.168 13.499 17.501s11.166 2.5 20.499 0.5c19.333 -4.66699 35.833 -17 49.5 -37s20.5 -41.333 20.5 -64c0 -24.667 -6.66699 -52.667 -20 -84s-29.666 -57.833 -48.999 -79.5s-36.666 -32.5 -51.999 -32.5
c-22 0 -33.667 13.333 -35 40s7.66699 65 27 115c7.33301 18.667 12 41.167 14 67.5s5.66699 45.166 11 56.499z" />
    <glyph glyph-name="hyphen" unicode="-" horiz-adv-x="442" 
d="M203 348c50 5.33301 90.167 5.00195 120.5 -0.998047s56.5 -18.667 78.5 -38c14.667 -12.667 23.667 -21.834 27 -27.501s3 -11.5 -1 -17.5c-6.66699 -11.333 -31.667 -21.666 -75 -30.999s-91.5 -18.5 -144.5 -27.5s-89 -17.5 -108 -25.5s-33.167 -9.33301 -42.5 -4
s-19.333 19.666 -30 42.999c-12 25.333 -18 42.833 -18 52.5s5.33301 21.167 16 34.5c9.33301 11.333 23.333 19.166 42 23.499s63.667 10.5 135 18.5z" />
    <glyph glyph-name="period" unicode="." horiz-adv-x="136" 
d="M35 114c24 22.667 45.168 28.668 63.501 18.001s27.5 -34 27.5 -70c0 -42.667 -8.66699 -71 -26 -85s-38.333 -9.33301 -63 14c-17.333 17.333 -26.333 38.166 -27 62.499s7.66602 44.5 24.999 60.5z" />
    <glyph glyph-name="slash" unicode="/" horiz-adv-x="357" 
d="M347 560c0 -21.333 -5.83105 -45.834 -17.498 -73.501s-23.5 -52.834 -35.5 -75.501s-18 -38.667 -18 -48c0 -6 -11.167 -34.333 -33.5 -85s-41.5 -90.667 -57.5 -120c-10.667 -20 -19.5 -38.167 -26.5 -54.5s-17.833 -36.5 -32.5 -60.5l-21.5 -38l-14.5 -26.5
c-2.66699 -5 -5.66699 -10 -9 -15s-7.66602 -9.5 -12.999 -13.5c-6.66699 -5.33301 -12 -7.33301 -16 -6s-10.667 7.66602 -20 18.999c-12.667 14 -20 34.333 -22 61s2 49.334 12 68.001l44 84l78 159c8.66699 17.333 14.667 32.333 18 45s9 27.334 17 44.001
c8 17.333 13.5 32.666 16.5 45.999s9.16699 29 18.5 47c12 22.667 18 40.834 18 54.501s5.66699 29.834 17 48.501c11.333 18 22.666 27.333 33.999 28s24.666 -7 39.999 -23c9.33301 -10 15.666 -19.5 18.999 -28.5s5 -21.167 5 -36.5z" />
    <glyph glyph-name="zero" unicode="0" horiz-adv-x="365" 
d="M110 594c6.66699 10.667 13.5 19.668 20.5 27.001s12.167 11 15.5 11c7.33301 0 23 -12.667 47 -38l77 -77c27.333 -26.667 41 -42.667 41 -48s4.66699 -13.333 14 -24c12.667 -13.333 21.667 -38.5 27 -75.5s4.66602 -69.167 -2.00098 -96.5
c-8.66699 -39.333 -22.167 -70.333 -40.5 -93s-50.166 -48.334 -95.499 -77.001c-33.333 -20.667 -65.666 -25 -96.999 -13s-58 38.667 -80 80c-12.667 22.667 -20.334 41 -23.001 55s-4 40.667 -4 80c0 56.667 6 101 18 133c15.333 39.333 26.333 65.5 33 78.5
s23 38.833 49 77.5zM229 448.001c-24.667 23.333 -41.8301 34.167 -51.4971 32.5s-21.834 -17.5 -36.501 -47.5c-8 -16.667 -16 -45.834 -24 -87.501s-10.667 -70.167 -8 -85.5c1.33301 -8.66699 4.16602 -14.667 8.49902 -18s12.833 -5.66602 25.5 -6.99902
c21.333 -1.33301 37.333 4 48 16s20 18 28 18c2.66699 0 7.66699 3.16699 15 9.5s14.5 15.333 21.5 27s12.167 24.5 15.5 38.5s1.66602 30.333 -5.00098 49s-19 37 -37 55z" />
    <glyph glyph-name="one" unicode="1" horiz-adv-x="475" 
d="M142 581c0 6.66699 7.66406 19.8301 22.9971 39.4971s26.333 29.5 33 29.5c9.33301 0 24.5 -9.66699 45.5 -29s31.5 -33 31.5 -41c0 -7.33301 1.83301 -14.166 5.5 -20.499s7.66699 -12 12 -17s8.33301 -13.833 12 -26.5s5.5 -28 5.5 -46c0 -32 2 -75.333 6 -130
c2.66699 -36.667 5.5 -60.167 8.5 -70.5s9.83301 -18.833 20.5 -25.5c14.667 -10 36.667 -16.333 66 -19c20 -2 32.833 -4.66699 38.5 -8s9.83398 -10.666 12.501 -21.999c4.66699 -16.667 3.83398 -28.667 -2.49902 -36s-15.333 -11.5 -27 -12.5s-28.167 -4 -49.5 -9
s-40.333 -12.5 -57 -22.5c-44.667 -26 -75.667 -30.333 -93 -13c-5.33301 4 -19.166 5.33301 -41.499 4s-45.666 -4 -69.999 -8s-46.166 -4 -65.499 0s-29 13.667 -29 29c0 11.333 -3 19 -9 23c-5.33301 3.33301 -8 14 -8 32s2.66699 32 8 42c3.33301 6.66699 10 11 20 13
s29.667 3.33301 59 4c19.333 0 34 0.166992 44 0.5s19.667 1.66602 29 3.99902s15.666 5 18.999 8s6.5 8.16699 9.5 15.5s4.66699 15 5 23s0.5 19.667 0.5 35c0 43.333 -2.66699 66.666 -8 69.999c-4.66699 2.66699 -12.5 -3.66602 -23.5 -18.999s-19.833 -32.333 -26.5 -51
c-6 -16 -15.833 -25.833 -29.5 -29.5s-24.834 0.5 -33.501 12.5c-7.33301 10.667 -11 30.334 -11 59.001c0 24.667 7.16699 60.834 21.5 108.501s26.5 75.5 36.5 83.5c8 7.33301 12 14 12 20z" />
    <glyph glyph-name="two" unicode="2" horiz-adv-x="429" 
d="M98 608c44 3.33301 72.835 4.66504 86.502 3.99805s28.167 -4.33398 43.5 -11.001c18.667 -8 40.334 -25.5 65.001 -52.5s39 -49.167 43 -66.5c3.33301 -14.667 -3.16699 -40.667 -19.5 -78s-36.5 -71.333 -60.5 -102c-20.667 -27.333 -31 -44 -31 -50
c0 -4 5 -6.66699 15 -8s21.5 -1.33301 34.5 0s24 4 33 8s17.667 5.16699 26 3.5s22.166 -7.5 41.499 -17.5c20.667 -11.333 33.334 -19.666 38.001 -24.999s6.33398 -14 5.00098 -26c-1.33301 -16.667 -13 -32 -35 -46s-48 -23 -78 -27
c-34.667 -5.33301 -61.334 -11.5 -80.001 -18.5s-34.834 -12.333 -48.501 -16s-37.167 -5.5 -70.5 -5.5c-40.667 0 -66.834 5.16699 -78.501 15.5s-17.5 33.833 -17.5 70.5c0 19.333 1.16699 33.5 3.5 42.5s6.83301 16.167 13.5 21.5c7.33301 6 26 26.333 56 61
s58.667 71.167 86 109.5s38.666 61.5 33.999 69.5c-4 6 -15 8.5 -33 7.5s-34 -5.16699 -48 -12.5c-18 -9.33301 -31.333 -13.166 -40 -11.499s-20 9.83398 -34 24.501c-30 30 -33 64.667 -9 104c7.33301 12 14.5 20 21.5 24s19.5 6.66699 37.5 8z" />
    <glyph glyph-name="three" unicode="3" horiz-adv-x="400" 
d="M30 602c14.667 13.333 27.8301 21.3281 39.4971 23.9951s41.5 4.33398 89.5 5.00098l82 1l44 -44c20 -20 32.333 -34.5 37 -43.5s7 -22.833 7 -41.5c0 -16 -1.83301 -29.167 -5.5 -39.5s-10.834 -22.166 -21.501 -35.499c-17.333 -22 -26 -35.667 -26 -41
s13.333 -21.333 40 -48c20 -19.333 37.333 -42 52 -68s22 -46.333 22 -61c0 -17.333 -8.16699 -37 -24.5 -59s-34.833 -38 -55.5 -48c-39.333 -19.333 -80.666 -29.666 -123.999 -30.999s-71.666 7 -84.999 25c-7.33301 10.667 -11.166 26.834 -11.499 48.501
s3.16699 35.5 10.5 41.5c8 6 26.667 11.333 56 16c56 8 88 19.667 96 35c4.66699 8.66699 -1.33301 15.334 -18 20.001c-4 1.33301 -8.66699 2.33301 -14 3c-23.333 4 -45 14.167 -65 30.5s-31.667 33.833 -35 52.5c-4 22 -3.5 43.167 1.5 63.5s13.5 36.166 25.5 47.499
c14.667 13.333 20.5 22.5 17.5 27.5s-24.833 5.83301 -65.5 2.5c-28 -3.33301 -45.667 -4.16602 -53 -2.49902s-14.666 7.5 -21.999 17.5c-10 15.333 -14.5 33.5 -13.5 54.5s7.5 36.833 19.5 47.5z" />
    <glyph glyph-name="four" unicode="4" horiz-adv-x="314" 
d="M172 586c18 26 39.001 25.6689 63.001 -0.998047c15.333 -16.667 25.333 -33.667 30 -51c6 -25.333 16 -120.333 30 -285c6 -76.667 9 -124.667 9 -144s-3.33301 -34 -10 -44c-5.33301 -8.66699 -11.333 -14.5 -18 -17.5s-16.667 -4.5 -30 -4.5
c-24.667 0 -40.167 6.33301 -46.5 19s-9.5 43.334 -9.5 92.001c0 48 -2.33301 74.667 -7 80c-5.33301 5.33301 -20 3 -44 -7c-1.33301 -0.666992 -3 -1.66699 -5 -3c-22 -8.66699 -38.167 -12.5 -48.5 -11.5s-21.5 7.5 -33.5 19.5c-9.33301 10 -15 21.167 -17 33.5
s-2.66699 40.5 -2 84.5c0 39.333 -2 71.666 -6 96.999s-7.83301 41.166 -11.5 47.499s-5.5 13.5 -5.5 21.5s3 19.667 9 35c10 22.667 20.167 35 30.5 37s24.166 -5.66699 41.499 -23c16 -16 27.833 -32.667 35.5 -50s11.667 -32.333 12 -45s0 -24.5 -1 -35.5
s-0.666992 -19.333 1 -25s6.5 -8.5 14.5 -8.5c7.33301 0 12.333 2.33301 15 7s4.66699 14 6 28c1.33301 22.667 -1 37.334 -7 44.001c-7.33301 7.33301 -10.333 24.666 -9 51.999s6 46.666 14 57.999z" />
    <glyph glyph-name="five" unicode="5" horiz-adv-x="432" 
d="M128 596c10.667 0 18.666 0.828125 23.999 2.49512s9.16602 3.33398 11.499 5.00098s11.666 3.16699 27.999 4.5s40.166 2 71.499 2c54 -0.666992 91.833 -4.66699 113.5 -12s35.834 -20.666 42.501 -39.999c6 -18 3.66699 -32.333 -7 -43s-28 -16 -52 -16
c-65.333 -0.666992 -113.333 -17 -144 -49c-20 -21.333 -28.833 -35.5 -26.5 -42.5s14.833 -16.833 37.5 -29.5s43.667 -35.667 63 -69s29 -63.333 29 -90c0.666992 -34 -8.5 -65.333 -27.5 -94s-45.167 -50.667 -78.5 -66c-70.667 -33.333 -121.167 -44.833 -151.5 -34.5
s-47.166 44.5 -50.499 102.5c-1.33301 26 -1.33301 43.333 0 52s5 14 11 16c10 4 22.333 -0.666992 37 -14l21 -21l50 17c25.333 8.66699 44.666 19.334 57.999 32.001s18 24.667 14 36c-2 4.66699 -20.167 13.667 -54.5 27s-64.166 22.666 -89.499 27.999
c-6.66699 2 -14 15 -22 39c-5.33301 17.333 -7.66602 30.833 -6.99902 40.5s5.33398 26.834 14.001 51.501c6.66699 20.667 11 37.834 13 51.501s2.33301 22.834 1 27.501s-0.833008 11 1.5 19s7.83301 18.667 16.5 32c10 15.333 18.167 25 24.5 29s15.833 6 28.5 6z" />
    <glyph glyph-name="six" unicode="6" horiz-adv-x="373" 
d="M118 567c16 28.667 38.0029 25.333 66.0029 -10c12 -15.333 19.667 -30.666 23 -45.999s1 -27 -7 -35c-8.66699 -9.33301 -21.334 -30.5 -38.001 -63.5s-25 -53.833 -25 -62.5c0 -11.333 5.5 -17.333 16.5 -18s31.5 3.83301 61.5 13.5s53 12 69 7
s32.667 -20.167 50 -45.5c12 -17.333 19.667 -32 23 -44s5.33301 -29.667 6 -53c0 -21.333 -1.33301 -37.5 -4 -48.5s-7.33398 -21.5 -14.001 -31.5c-14.667 -19.333 -39.834 -37 -75.501 -53s-69.834 -25 -102.501 -27c-25.333 -2 -42.666 -1.83301 -51.999 0.5
s-21 8.5 -35 18.5c-20 15.333 -34.5 32 -43.5 50s-16.5 44.667 -22.5 80c-8 49.333 -4.83301 102.666 9.5 159.999s38.5 114.333 72.5 171zM226.003 216.999c0 4 -3.33301 6.5 -10 7.5s-14.5 0.333008 -23.5 -2s-16.5 -5.83301 -22.5 -10.5c-20 -15.333 -18.667 -23 4 -23
c10.667 0 22 3.16699 34 9.5s18 12.5 18 18.5z" />
    <glyph glyph-name="seven" unicode="7" horiz-adv-x="379" 
d="M164 579c14.667 0.666992 38.835 5.16602 72.502 13.499s51.167 12.5 52.5 12.5c11.333 0.666992 24.166 -7.16602 38.499 -23.499s24.833 -34.5 31.5 -54.5c7.33301 -21.333 10.5 -37 9.5 -47s-7.16699 -32 -18.5 -66c-7.33301 -22.667 -14 -41 -20 -55
s-10.167 -22.5 -12.5 -25.5s-4 -5.83301 -5 -8.5s-1.5 -6.33398 -1.5 -11.001c0 -9.33301 -5.66699 -24.666 -17 -45.999c-10 -18.667 -21.5 -48.5 -34.5 -89.5s-19.5 -67.833 -19.5 -80.5c0 -11.333 -5 -22.5 -15 -33.5s-20 -16.5 -30 -16.5
c-11.333 0 -24.333 9.33301 -39 28s-22 35 -22 49c0 16.667 6.33301 47.334 19 92.001s22.667 71 30 79c8.66699 10 13 18.5 13 25.5s7.33301 24.833 22 53.5c20.667 41.333 27.334 68.333 20.001 81c-2.66699 4.66699 -7 5.66699 -13 3c-6 -2 -27.667 -6.33301 -65 -13
s-60.333 -12 -69 -16c-12 -6.66699 -25.167 -10 -39.5 -10s-24.833 3.33301 -31.5 10c-6.66699 7.33301 -10 24.666 -10 51.999s3.66699 45.333 11 54c5.33301 7.33301 23.666 13.833 54.999 19.5s48.666 10.5 51.999 14.5c6 6 18 9 36 9z" />
    <glyph glyph-name="eight" unicode="8" horiz-adv-x="374" 
d="M59 519c13.333 7.33301 28.666 17.1621 45.999 29.4951s30.666 20.833 39.999 25.5s24.833 9.33398 46.5 14.001s48.834 7.33398 81.501 8.00098c24 0 39.667 -1 47 -3s13.333 -7.33301 18 -16c7.33301 -13.333 9 -34.5 5 -63.5s-11.667 -50.5 -23 -64.5
c-12 -15.333 -18 -26.666 -18 -33.999s-5 -20 -15 -38c-7.33301 -13.333 -10.5 -22.5 -9.5 -27.5s8.5 -15.167 22.5 -30.5c17.333 -20 32.333 -44.167 45 -72.5s19 -52.5 19 -72.5c0 -18.667 -6.33301 -37.5 -19 -56.5s-28.5 -34.333 -47.5 -46s-39 -20 -60 -25
s-39.833 -3.16699 -56.5 5.5c-30 15.333 -50.333 36 -61 62s-12 59.667 -4 101c4 20.667 5.66699 34.834 5 42.501s-4.33398 14.834 -11.001 21.501c-9.33301 11.333 -17.666 17 -24.999 17s-21.666 11.667 -42.999 35c-12.667 14 -21.167 25.833 -25.5 35.5
s-6.5 21.5 -6.5 35.5c0 22.667 5 46.167 15 70.5s21.333 39.833 34 46.5zM196 418.996c6 11.333 6.66797 18.333 2.00098 21c-5.33301 3.33301 -14.333 1.33301 -27 -6s-19 -14 -19 -20s2.83301 -9.66699 8.5 -11s12.167 -0.5 19.5 2.5s12.666 7.5 15.999 13.5z
M246.001 209.996c-2 7.33301 -7.66699 11.6689 -17 13.002s-16 -1.33398 -20 -8.00098s-3.16699 -12.834 2.5 -18.501s13.5 -6.66699 23.5 -3s13.667 9.16699 11 16.5z" />
    <glyph glyph-name="nine" unicode="9" horiz-adv-x="387" 
d="M175 675c26 18.667 42.332 28 48.999 28c9.33301 0 25.166 -10.667 47.499 -32s37.833 -41 46.5 -59c8.66699 -16 13.834 -31.667 15.501 -47s1.83398 -41.666 0.500977 -78.999c-1.33301 -22 3.5 -83.833 14.5 -185.5s19.833 -167.167 26.5 -196.5
c2.66699 -12 2.83398 -21.167 0.500977 -27.5s-8.83301 -14.5 -19.5 -24.5c-34.667 -32.667 -60 -27.667 -76 15c-6 15.333 -15.667 60.666 -29 135.999c-2 9.33301 -3.66699 17.666 -5 24.999c-5.33301 28.667 -8 51.334 -8 68.001c0 15.333 -2.66699 23.5 -8 24.5
s-19.666 -4.5 -42.999 -16.5c-23.333 -10.667 -40.5 -16 -51.5 -16s-25.5 5.66699 -43.5 17c-35.333 21.333 -59.833 53 -73.5 95s-11.834 80 5.49902 114c11.333 22 32.666 49.667 63.999 83s60.333 59.333 87 78zM230.999 538c2 28 -3.66699 40.667 -17 38
c-13.333 -3.33301 -33.333 -22.333 -60 -57c-20.667 -26.667 -31 -50 -31 -70s2.83301 -30 8.5 -30s23.167 14.333 52.5 43c18 16.667 30 30 36 40s9.66699 22 11 36z" />
    <glyph glyph-name="colon" unicode=":" horiz-adv-x="261" 
d="M26 72c6 7.33301 15.832 10.833 29.499 10.5s23.834 -4.83301 30.501 -13.5c8 -10 15.833 -26.167 23.5 -48.5s11.5 -40.833 11.5 -55.5c0 -16.667 -6.66699 -29.5 -20 -38.5s-28.5 -11.333 -45.5 -7s-29.833 14.5 -38.5 30.5c-6 12.667 -8 33.667 -6 63s7 49 15 59z
M167.999 471c14 18 31.333 13.334 52 -13.999c20 -26.667 30.333 -53.334 31 -80.001c0 -6 -0.666992 -11 -2 -15c-4 -12.667 -12.333 -25.5 -25 -38.5s-23.667 -19.5 -33 -19.5c-18.667 0 -30.5 13.333 -35.5 40s-5.16699 53 -0.5 79s9 42 13 48z" />
    <glyph glyph-name="semicolon" unicode=";" horiz-adv-x="360" 
d="M187 155c8.66699 16.667 18.665 24.666 29.998 23.999s26 -10.334 44 -29.001c12.667 -12.667 21 -24 25 -34s7 -25.667 9 -47c2.66699 -24.667 2.33398 -41 -0.999023 -49s-15.666 -22.667 -36.999 -44c-28.667 -28.667 -45.667 -43 -51 -43
c-2.66699 0 -9.33398 -3.83301 -20.001 -11.5l-43 -30c-18 -12.333 -35.667 -22.166 -53 -29.499l-43 -20l-20 25c-14 17.333 -19.333 33 -16 47c2.66699 10.667 30.334 42.834 83.001 96.501s79 86.167 79 97.5c0 13.333 4.66699 29 14 47zM252.998 396.999
c0 15.333 0.833008 28.334 2.5 39.001s4.66699 19.5 9 26.5s10.333 10 18 9s17.167 -5.83301 28.5 -14.5c21.333 -17.333 34 -39.333 38 -66s-2 -48.667 -18 -66c-12 -12.667 -21.5 -19 -28.5 -19s-16.833 6 -29.5 18c-8.66699 7.33301 -14.167 15.666 -16.5 24.999
s-3.5 25.333 -3.5 48z" />
    <glyph glyph-name="less" unicode="&#x3c;" horiz-adv-x="408" 
d="M136 431l90.001 85.001c26.667 24 41.334 36 44.001 36c9.33301 0 19.666 -11 30.999 -33s17 -42.333 17 -61c0 -15.333 -4 -28.666 -12 -39.999s-30 -33.666 -66 -66.999c-16.667 -15.333 -28.834 -26.833 -36.501 -34.5s-14.5 -15.667 -20.5 -24
s-9.16699 -14.166 -9.5 -17.499s1.83398 -7.5 6.50098 -12.5s10.5 -9 17.5 -12s17.833 -7.16699 32.5 -12.5l70 -27c20.667 -8 39 -12 55 -12c28.667 -0.666992 43 -21.667 43 -63c0 -16.667 -7.5 -32.667 -22.5 -48s-30.833 -23 -47.5 -23c-14.667 0 -42 5.83301 -82 17.5
s-68 21.834 -84 30.501c-13.333 7.33301 -28.833 15.166 -46.5 23.499l-40 19c-9 4.33301 -18.667 10.166 -29 17.499s-17.833 14.666 -22.5 21.999s-8.33398 17.166 -11.001 29.499s-3.66699 26.5 -3 42.5c1.33301 15.333 4.5 27.666 9.5 36.999s14.667 21.833 29 37.5
s43.5 45.5 87.5 89.5z" />
    <glyph glyph-name="equal" unicode="=" horiz-adv-x="628" 
d="M142 419c24 4 73.834 6.49805 149.501 7.49805s123.167 -0.5 142.5 -4.5c19.333 -3.33301 36 -16 50 -38c10 -15.333 15.667 -27.166 17 -35.499s0.333008 -23.5 -3 -45.5c-6 -31.333 -7.66699 -49.333 -5 -54s20 -7 52 -7c21.333 0 35.666 -1.16699 42.999 -3.5
s14 -8.5 20 -18.5c10 -15.333 12.5 -31.833 7.5 -49.5s-16.167 -31.5 -33.5 -41.5c-11.333 -7.33301 -30.166 -12.833 -56.499 -16.5s-75.833 -7.5 -148.5 -11.5c-113.333 -7.33301 -180.833 -10.833 -202.5 -10.5s-36.834 3.83301 -45.501 10.5
c-8 6.66699 -11.667 22.334 -11 47.001s5.66699 48.334 15 71.001l9 23l100 2l152 3c38.667 0 57.667 5 57 15c-0.666992 4.66699 -6.66699 9 -18 13c-18.667 6.66699 -66.167 8.16699 -142.5 4.5s-131.833 -9.83398 -166.5 -18.501
c-42.667 -11.333 -72.334 -13.333 -89.001 -6s-25 26.333 -25 57c0 32.667 8.83301 56.167 26.5 70.5s52.834 26.5 105.501 36.5z" />
    <glyph glyph-name="greater" unicode="&#x3e;" horiz-adv-x="413" 
d="M25 503c10 15.333 17.668 23.001 23.001 23.001c3.33301 0 25 -9.33301 65 -28s70.333 -29.334 91 -32.001c24 -2.66699 54.333 -10 91 -22c72 -23.333 108 -67.333 108 -132c0 -18 -2.33301 -32.5 -7 -43.5s-16.334 -28.167 -35.001 -51.5
c-16.667 -21.333 -41.167 -47.333 -73.5 -78l-86 -79c-25 -22 -38.5 -34.667 -40.5 -38c-4 -6.66699 -15.833 -9.83398 -35.5 -9.50098s-32.834 3.83301 -39.501 10.5c-6.66699 7.33301 -10 29 -10 65c0 26 1.33301 42.833 4 50.5s10.667 16.834 24 27.501l119.5 99.5
c19.667 17 28.834 27.5 27.501 31.5c-2 4.66699 -38.333 17.5 -109 38.5s-109.667 35.5 -117 43.5c-10 9.33301 -15 28.333 -15 57s5 51 15 67z" />
    <glyph glyph-name="question" unicode="?" horiz-adv-x="281" 
d="M89 42c5.33301 18 17.666 20.668 36.999 8.00098c21.333 -15.333 35 -37.666 41 -66.999c0 -2.66699 0.333008 -5 1 -7c3.33301 -28 1.83301 -48.167 -4.5 -60.5s-18.833 -18.5 -37.5 -18.5c-20 0 -33.333 4 -40 12c-8 9.33301 -13.167 23.666 -15.5 42.999
s-1.16602 35.666 3.50098 48.999zM249 543.001c21.333 -42 26.999 -86.0039 16.999 -132.004s-35 -90 -75 -132c-29.333 -31.333 -47.166 -53.666 -53.499 -66.999s-7.5 -32.666 -3.5 -57.999c3.33301 -27.333 2 -46 -4 -56s-19 -15 -39 -15
c-19.333 0 -37.333 8.66699 -54 26c-10.667 11.333 -17.5 22 -20.5 32s-4.83301 28.667 -5.5 56l-1 62l76 78c41.333 42 67 72 77 90s9.66699 32.333 -1 43c-6 6 -11.5 8.33301 -16.5 7s-14.5 -7.33301 -28.5 -18c-21.333 -16 -32 -27.5 -32 -34.5
s-9.16699 -17.333 -27.5 -31s-30.833 -16.5 -37.5 -8.5s-10 29.667 -10 65c0 26.667 1.83301 44.834 5.5 54.501s13.834 24.5 30.501 44.5c15.333 18 32 32.5 50 43.5s36.167 17.5 54.5 19.5s36.166 -2.66699 53.499 -14s32.333 -29.666 45 -54.999z" />
    <glyph glyph-name="at" unicode="@" horiz-adv-x="601" 
d="M221 614c24 13.333 41.834 21 53.501 23s37.834 1.66699 78.501 -1c92.667 -6 149.667 -25.667 171 -59c14 -21.333 28 -55.166 42 -101.499s22 -85.5 24 -117.5c2.66699 -42.667 -0.666016 -76 -9.99902 -100s-29.666 -50.667 -60.999 -80
c-19.333 -18 -37.333 -28.5 -54 -31.5s-37.667 0.166992 -63 9.5c-14.667 4.66699 -27.5 6.5 -38.5 5.5s-19.833 -3.5 -26.5 -7.5s-15.834 -6 -27.501 -6s-25.167 3.66699 -40.5 11c-32.667 16 -55 41.333 -67 76s-10 67.667 6 99c8.66699 16.667 13 28.667 13 36
s10.667 23.333 32 48c16 18.667 30.167 30.167 42.5 34.5s22.166 3.5 29.499 -2.5s13.833 -13.5 19.5 -22.5s11.334 -16.833 17.001 -23.5s11.5 -9 17.5 -7c12.667 4.66699 24.167 3 34.5 -5s21.166 -24 32.499 -48c12 -25.333 21.833 -40.166 29.5 -44.499
s17.834 -0.833008 30.501 10.5c20.667 18.667 19.667 60.334 -3 125.001c-8.66699 23.333 -16.334 39.666 -23.001 48.999s-18 18.666 -34 27.999c-22.667 13.333 -49 20.666 -79 21.999s-59.167 -2.5 -87.5 -11.5s-55.5 -22.833 -81.5 -41.5s-46 -40.334 -60 -65.001
c-9.33301 -16 -15.5 -30.5 -18.5 -43.5s-4.5 -32.833 -4.5 -59.5c0 -43.333 7.16699 -77.333 21.5 -102s41.5 -49.667 81.5 -75c38 -24 70 -40.167 96 -48.5s65 -15.5 117 -21.5c46.667 -5.33301 76.5 -11.666 89.5 -18.999s19.5 -22 19.5 -44
c0 -13.333 -7 -26.833 -21 -40.5s-28 -20.5 -42 -20.5c-10.667 0 -17.667 -3 -21 -9c-4 -6.66699 -20.667 -9.5 -50 -8.5s-57 4.83301 -83 11.5c-50.667 14 -101.5 40 -152.5 78s-89.167 78.667 -114.5 122c-12.667 20.667 -24.334 55.667 -35.001 105
c-7.33301 35.333 -11 59.5 -11 72.5s4 35.833 12 68.5c15.333 60 34.666 103.667 57.999 131s70.333 61 141 101zM318.501 291.5c5.66699 -3 9.99805 -1.66699 12.998 4s1.83301 10 -3.5 13s-9.66602 1.66699 -12.999 -4s-2.16602 -10 3.50098 -13z" />
    <glyph glyph-name="A" unicode="A" horiz-adv-x="463" 
d="M418 219c0 -10.667 5.83496 -29.5049 17.502 -56.5049s17.5 -46.5 17.5 -58.5c0 -12.667 -5.83301 -26.667 -17.5 -42s-22.5 -23 -32.5 -23c-17.333 0 -38.333 18 -63 54s-37 66.667 -37 92c0 15.333 -4.66699 32 -14 50c-6.66699 12.667 -12.334 20 -17.001 22
s-16 1.66699 -34 -1c-24.667 -4 -40.667 -9 -48 -15c-9.33301 -8 -18 -22.667 -26 -44s-12 -41 -12 -59c0 -22.667 -6 -40 -18 -52s-26.833 -16.167 -44.5 -12.5s-34.5 14.5 -50.5 32.5c-15.333 18 -24.5 36.333 -27.5 55s-0.5 41 7.5 67c5.33301 18.667 15.333 66 30 142
l41 216c12.667 68 20 104 22 108c4.66699 6.66699 24.5 9.33398 59.5 8.00098s60.167 -5.66602 75.5 -12.999c18 -8.66699 31.5 -19.167 40.5 -31.5s14.167 -24.166 15.5 -35.499s3.66602 -26.666 6.99902 -45.999s8.33301 -37.333 15 -54
c8.66699 -20.667 13 -39.334 13 -56.001c0.666992 -22 5.5 -42.167 14.5 -60.5s20.5 -31.5 34.5 -39.5c14 -7.33301 23.333 -17.833 28 -31.5s3 -24.5 -5 -32.5c-6.66699 -6.66699 -10 -16.667 -10 -30s3 -21.666 9 -24.999s9 -12.666 9 -27.999z" />
    <glyph glyph-name="B" unicode="B" horiz-adv-x="459" 
d="M82 667c14.667 14.667 29.168 22.165 43.501 22.498s38.166 -6.5 71.499 -20.5c48.667 -20 84.334 -51.667 107.001 -95c10 -18.667 16.167 -36.667 18.5 -54s2.16602 -31.5 -0.500977 -42.5s-5.66699 -21.167 -9 -30.5s-4.83301 -17.166 -4.5 -23.499
s4.5 -11.833 12.5 -16.5c19.333 -10.667 40.833 -28.5 64.5 -53.5s39.5 -45.833 47.5 -62.5c18 -42 20.667 -79 8 -111s-29.334 -57.667 -50.001 -77s-37.667 -29 -51 -29c-9.33301 0 -15.666 -2.66699 -18.999 -8c-4.66699 -7.33301 -23.5 -15.166 -56.5 -23.499
s-62.5 -12.5 -88.5 -12.5c-22 0 -38.833 1.66699 -50.5 5s-25.167 10.333 -40.5 21c-24.667 16.667 -40.334 30.667 -47.001 42c-9.33301 18.667 -14 64.334 -14 137.001c-0.666992 14 -0.666992 38 0 72c0.666992 123.333 -2.33301 202.666 -9 237.999
c-4 22.667 -5.66699 38.5 -5 47.5s4 17.833 10 26.5c8.66699 14.667 16.834 22 24.501 22s20.167 8.66699 37.5 26zM138.001 476.998c-2 -28.667 2.99902 -41.3311 14.999 -37.998c13.333 2.66699 27 17.667 41 45c18.667 35.333 20.667 58.666 6 69.999
c-4 2.66699 -8.66699 4.66699 -14 6c-11.333 1.33301 -21.666 -5.83398 -30.999 -21.501s-15 -36.167 -17 -61.5zM315 285.001c-6.66699 6.66699 -21.999 10.002 -45.999 10.002s-41.333 -3 -52 -9s-27 -8 -49 -6l-33 2l3 -48c2 -32.667 6 -52.667 12 -60
c5.33301 -6.66699 15 -10.334 29 -11.001s23 2.33301 27 9c3.33301 6 10.333 9 21 9c6.66699 0 20 5.33301 40 16s36.667 23.667 50 39s12.666 31.666 -2.00098 48.999z" />
    <glyph glyph-name="C" unicode="C" horiz-adv-x="654" 
d="M367 652c17.333 4 30.001 4.16699 38.001 0.5s23 -16.5 45 -38.5c30 -30 45 -51.5 45 -64.5s-10.333 -30.833 -31 -53.5c-12.667 -14 -22 -22.5 -28 -25.5s-12.667 -2.5 -20 1.5c-8.66699 4.66699 -16.167 11.334 -22.5 20.001l-14 19c-3 4 -9.83301 4.83301 -20.5 2.5
s-25.667 -10.166 -45 -23.499s-48.166 -41.166 -86.499 -83.499s-61.5 -71.833 -69.5 -88.5c-6 -12 -13.333 -25.333 -22 -40c-6 -13.333 -8.33301 -27.833 -7 -43.5s6.33301 -30 15 -43s18.334 -19.5 29.001 -19.5c7.33301 0 19.666 -4.66699 36.999 -14
c18.667 -10 49 -14.5 91 -13.5s73 7.16699 93 18.5c20.667 12 36.167 18 46.5 18s22.833 5.66699 37.5 17c14 11.333 33.5 17.333 58.5 18s48 -3.66602 69 -12.999s33.167 -21.333 36.5 -36c4 -16 0.333008 -29.667 -11 -41c-14.667 -13.333 -66 -43 -154 -89
c-31.333 -16 -63.5 -25.667 -96.5 -29s-70.5 -1 -112.5 7c-50.667 10.667 -87.334 21.667 -110.001 33c-41.333 21.333 -75 51 -101 89s-41.333 80.667 -46 128c-6 54 14.333 104 61 150c14 13.333 29.833 32.666 47.5 57.999s35.5 48.666 53.5 69.999s37.667 38 59 50
c19.333 11.333 43.166 23.166 71.499 35.499s49.5 20.166 63.5 23.499z" />
    <glyph glyph-name="D" unicode="D" horiz-adv-x="449" 
d="M101 658c4.66699 8.66699 24.6699 10.501 60.0029 5.50098s63 -13.5 83 -25.5s49 -37 87 -75s57 -61 57 -69s5.66699 -21.667 17 -41c14.667 -24.667 24.667 -54.834 30 -90.501s4.66602 -68.167 -2.00098 -97.5c-9.33301 -42 -31.5 -81 -66.5 -117
s-75.833 -62 -122.5 -78c-26 -8.66699 -58.333 -11.667 -97 -9s-65 10 -79 22c-6 4.66699 -10.5 9.66699 -13.5 15s-5.5 15.166 -7.5 29.499s-3.66699 29.666 -5 45.999s-3.83301 43.333 -7.5 81s-7.83398 76.834 -12.501 117.501c-5.33301 44.667 -9 79.834 -11 105.501
s-1.66699 46.5 1 62.5s7 26.5 13 31.5s15 6.83301 27 5.5c9.33301 -1.33301 16.333 2 21 10s9.16699 19.833 13.5 35.5s9.16602 27.5 14.499 35.5zM254.503 504.501c-13 12.333 -27.6689 20.6709 -44.002 25.0039s-26.5 2.83301 -30.5 -4.5
c-12 -18.667 -20.833 -67.834 -26.5 -147.501s-4.16699 -127.834 4.5 -144.501c4.66699 -8.66699 12 -14 22 -16s21 -0.833008 33 3.5s24.333 10.833 37 19.5s24.834 19.667 36.501 33s21.167 27.333 28.5 42c9.33301 19.333 14.5 33 15.5 41s-0.833008 19.333 -5.5 34
c-7.33301 21.333 -17.666 42.666 -30.999 63.999s-26.5 38.166 -39.5 50.499z" />
    <glyph glyph-name="E" unicode="E" horiz-adv-x="514" 
d="M48 557c12 10 32.3252 15.3301 60.9922 15.9971s88.334 0 179.001 -2c34 -0.666992 55.833 -2.33398 65.5 -5.00098s21.167 -10.667 34.5 -24c40 -39.333 37.333 -65 -8 -77c-25.333 -6.66699 -64.666 -10 -117.999 -10c-15.333 0 -27.833 -0.166992 -37.5 -0.5l-29.5 -1
c-10 -0.333008 -17.667 -1 -23 -2l-16.5 -3c-5.66699 -1 -9.5 -3 -11.5 -6s-4.16699 -5.66699 -6.5 -8s-3.66602 -6 -3.99902 -11s-0.5 -9.83301 -0.5 -14.5s0.333008 -10.667 1 -18c1.33301 -18 3.33301 -28.667 6 -32s10.334 -4.66602 23.001 -3.99902
c18 2 55.333 4.66699 112 8l85 5l27 -33c25.333 -30.667 32.333 -51.167 21 -61.5s-48 -17.5 -110 -21.5c-53.333 -3.33301 -90.666 -9 -111.999 -17s-33 -21 -35 -39c-2 -19.333 1.33301 -32.833 10 -40.5s22.334 -9.5 41.001 -5.5c12 2 21.5 4.33301 28.5 7
s12.333 4.83398 16 6.50098s13.834 3.5 30.501 5.5s41 4 73 6c48.667 3.33301 78.334 4.16602 89.001 2.49902s23 -8.16699 37 -19.5c18.667 -15.333 28 -26.666 28 -33.999c0 -11.333 -8.33301 -21.833 -25 -31.5s-37.334 -16.167 -62.001 -19.5
c-28 -4 -66.167 -11.333 -114.5 -22s-78.5 -17 -90.5 -19c-20.667 -3.33301 -37 -9 -49 -17c-13.333 -9.33301 -32.166 -13.166 -56.499 -11.499s-43.5 7.83398 -57.5 18.501c-11.333 8.66699 -18 17.667 -20 27s-3 34 -3 74c0 26.667 -0.833008 47.167 -2.5 61.5
s-3.5 22.333 -5.5 24s-3.83301 5 -5.5 10s-2.66699 11 -3 18s0.5 23.5 2.5 49.5c3.33301 36.667 5.83301 72.167 7.5 106.5s2.66699 59 3 74s1.33301 29.333 3 43s4 23.5 7 29.5s8.16699 12 15.5 18z" />
    <glyph glyph-name="F" unicode="F" horiz-adv-x="513" 
d="M81 572c5.33301 8.66699 20.9971 13.667 46.9971 15s51.333 -1.66699 76 -9c20.667 -6.66699 66.334 -12.334 137.001 -17.001l106 -7l29 -32c17.333 -18.667 26.333 -33.167 27 -43.5s-6 -22.833 -20 -37.5c-9.33301 -9.33301 -19.166 -15.166 -29.499 -17.499
s-21.333 -2.66602 -33 -0.999023s-33 3.83398 -64 6.50098s-64.167 4 -99.5 4h-58v-133l96 -4c44 -2 72 -4.5 84 -7.5s21.667 -9.16699 29 -18.5c18.667 -23.333 20.834 -43.5 6.50098 -60.5s-43.833 -29.5 -88.5 -37.5c-40 -6.66699 -67.667 -12.667 -83 -18
c-10.667 -4 -17 -8.33301 -19 -13s-1.66699 -14.334 1 -29.001c3.33301 -20.667 -0.333984 -40.834 -11.001 -60.501s-24 -31.5 -40 -35.5c-23.333 -5.33301 -44.833 1.33398 -64.5 20.001s-29.5 41.667 -29.5 69c0 8 -2.5 14.667 -7.5 20s-13.5 11 -25.5 17
c-16 8 -25.667 15.167 -29 21.5s-5.66602 21.166 -6.99902 44.499c-1.33301 24 -0.833008 39.333 1.5 46s9.83301 14.667 22.5 24c15.333 10.667 23.833 22.5 25.5 35.5s-1.5 42.5 -9.5 88.5c-4.66699 27.333 -6.66699 47 -6 59s4.66699 28.333 12 49
c11.333 31.333 19.333 52 24 62z" />
    <glyph glyph-name="G" unicode="G" horiz-adv-x="639" 
d="M342 637c42 18 78.002 18.0068 108.002 0.00683594c25.333 -15.333 33.333 -36.333 24 -63c-2.66699 -9.33301 -8 -18.666 -16 -27.999c-10.667 -12 -17.667 -18.5 -21 -19.5s-9 2.16699 -17 9.5c-12.667 11.333 -24.334 15.666 -35.001 12.999s-31 -15.334 -61 -38.001
c-24 -17.333 -52.667 -44 -86 -80s-50.333 -58 -51 -66c0 -0.666992 -2.16699 -6.5 -6.5 -17.5s-9.5 -24.833 -15.5 -41.5s-12 -34.5 -18 -53.5s-11.167 -38.167 -15.5 -57.5s-6.5 -35.666 -6.5 -48.999c0 -23.333 9.16699 -37.166 27.5 -41.499s40.833 2.16699 67.5 19.5
c12.667 8.66699 19 18 19 28s-7 23 -21 39c-14.667 17.333 -22.167 37.166 -22.5 59.499s6 41.333 19 57s29.5 23.834 49.5 24.501c16.667 0 36.667 5.66699 60 17c19.333 9.33301 48.666 15 87.999 17s68.666 -0.666992 87.999 -8c20.667 -8 41.667 -25 63 -51
s34 -50 38 -72c2.66699 -18.667 4.16699 -36.167 4.5 -52.5s4.16602 -40.166 11.499 -71.499l12 -57l-23 -25c-34 -36 -66.333 -34 -97 6c-10 13.333 -17 26.5 -21 39.5s-7 33.5 -9 61.5c-2.66699 43.333 -8.16699 70.666 -16.5 81.999s-26.166 16 -53.499 14l-41 -3v-67
c0 -26.667 -1 -45.834 -3 -57.501s-6 -20.834 -12 -27.501c-10.667 -12 -16 -21.333 -16 -28c0 -4.66699 -2 -8.33398 -6 -11.001s-10 -5.83398 -18 -9.50098s-14.667 -7.83398 -20 -12.501c-16.667 -14.667 -39 -27.834 -67 -39.501s-50.667 -17.5 -68 -17.5
c-50 0 -90.333 27.333 -121 82c-11.333 20 -18.666 36.5 -21.999 49.5s-5 32.833 -5 59.5c0 33.333 5.66699 76.166 17 128.499s22.333 85.833 33 100.5c8 11.333 12 21.666 12 30.999c0 6.66699 5 16 15 28s35.667 39 77 81c32 32 57 54 75 66s52.333 29.333 103 52z" />
    <glyph glyph-name="H" unicode="H" horiz-adv-x="557" 
d="M338 642c3.33301 8 10.332 12.9941 20.999 14.9941s22 0.666992 34 -4c14 -5.33301 26 -19.666 36 -42.999s16.333 -51.666 19 -84.999c3.33301 -32 7.16602 -52.833 11.499 -62.5s16.833 -24.5 37.5 -44.5c28.667 -28 43 -45.667 43 -53s-7.33301 -18.666 -22 -33.999
l-22 -23l23 -66c16 -47.333 25.167 -80.5 27.5 -99.5s-1.5 -32.167 -11.5 -39.5c-25.333 -18 -50 -17.5 -74 1.5s-42 52.167 -54 99.5c-15.333 58 -26.666 91 -33.999 99c-6 6.66699 -19.333 10 -40 10c-22 0 -37.167 -3.83301 -45.5 -11.5s-12 -21.834 -11 -42.501
s6.5 -54 16.5 -100c4.66699 -18.667 6.5 -31.334 5.5 -38.001s-4.83301 -13.667 -11.5 -21c-11.333 -10.667 -27.666 -18 -48.999 -22c-14.667 -2.66699 -25 -2.66699 -31 0s-14 11 -24 25c-10 12.667 -16.333 25.334 -19 38.001s-4.66699 36.334 -6 71.001l-3 79l-58 1
c-12.667 0 -22.334 0.166992 -29.001 0.5s-13.667 0.833008 -21 1.5s-12.666 1.33398 -15.999 2.00098s-6.83301 2.33398 -10.5 5.00098s-6 5 -7 7s-1.83301 5.33301 -2.5 10s-1 9.33398 -1 14.001s0.333008 10.667 1 18l3 47l59 9c39.333 6 61 11 65 15
c2.66699 2.66699 5 29.334 7 80.001c4 80 17 120.667 39 122c10.667 0.666992 24 -7.66602 40 -24.999c8.66699 -8.66699 15 -18.834 19 -30.501s7 -28.167 9 -49.5c4.66699 -39.333 10.167 -64.166 16.5 -74.499s19.5 -14.833 39.5 -13.5
c16 1.33301 25.333 3.66602 28 6.99902s3.66699 13.666 3 30.999c-6 103.333 -6.33301 161.333 -1 174z" />
    <glyph glyph-name="I" unicode="I" horiz-adv-x="618" 
d="M221 559c40.667 6 98.502 8.99707 173.502 8.99707s118.167 -3 129.5 -9c24 -13.333 41.5 -25.166 52.5 -35.499s19.167 -23.166 24.5 -38.499c4.66699 -14 6.83398 -23.667 6.50098 -29s-3.5 -11 -9.5 -17c-6.66699 -6.66699 -13.5 -10 -20.5 -10
s-23.833 3.66699 -50.5 11c-32.667 8.66699 -69 13.5 -109 14.5s-63.667 -2.5 -71 -10.5c-6 -5.33301 -9.16699 -21.666 -9.5 -48.999s1.83398 -59 6.50098 -95l5 -44l45 -6c25.333 -4 48.833 -10.667 70.5 -20s34.167 -14 37.5 -14s7 -2.16699 11 -6.5
s7.33301 -9.5 10 -15.5c8 -17.333 6.16699 -31 -5.5 -41s-33.167 -16.333 -64.5 -19c-34 -3.33301 -66.333 -12.666 -97 -27.999c-24 -12 -44.667 -19.167 -62 -21.5s-28.333 0.166992 -33 7.5c-3.33301 6 -21 9 -53 9s-55.333 3 -70 9
c-10.667 4 -17.167 8.83301 -19.5 14.5s-3.5 18.5 -3.5 38.5c0 24 3.83301 39.667 11.5 47s27.834 13.666 60.501 18.999c11.333 2 19.833 4.16699 25.5 6.5s10.667 5.5 15 9.5s6.66602 10.667 6.99902 20s0.166016 19.666 -0.500977 30.999s-2.33398 28 -5.00098 50l-12 87
l-36 -2c-16.667 -1.33301 -38.334 -6.66602 -65.001 -15.999s-49.334 -13 -68.001 -11c-17.333 1.33301 -27.5 3.83301 -30.5 7.5s-5.16699 15.834 -6.5 36.501c-2 27.333 2.33301 46.333 13 57c8 8 30.833 17.167 68.5 27.5s80.5 19.166 128.5 26.499z" />
    <glyph glyph-name="J" unicode="J" horiz-adv-x="390" 
d="M256 608c12.667 10 21.834 14.667 27.501 14s16.834 -8 33.501 -22c13.333 -11.333 21.166 -21.333 23.499 -30s3.5 -30.667 3.5 -66c0 -49.333 6 -103.333 18 -162c11.333 -56.667 17.166 -107.334 17.499 -152.001s-5.16699 -76 -16.5 -94
c-14 -22.667 -32.833 -39.5 -56.5 -50.5s-59.834 -19.5 -108.501 -25.5c-52 -6 -88 -6.66699 -108 -2s-39.333 18 -58 40c-11.333 14 -18.166 25.167 -20.499 33.5s-2.16602 20.833 0.500977 37.5c4.66699 25.333 13.667 46.333 27 63c8 10.667 15 17.334 21 20.001
s14.667 2.66699 26 0c12.667 -2.66699 22.834 -7.83398 30.501 -15.501s13 -15.167 16 -22.5s8.66699 -14 17 -20s19.166 -9 32.499 -9c20 0 40.333 4.33301 61 13c13.333 6 21.666 11.5 24.999 16.5s5 14.833 5 29.5c0 19.333 -4.16699 51.166 -12.5 95.499
s-17 79.833 -26 106.5s-11 64.334 -6 113.001s14.167 78.334 27.5 89.001z" />
    <glyph glyph-name="K" unicode="K" horiz-adv-x="640" 
d="M298 304c2.66699 0 14.668 -7.33496 36.001 -22.002s34.666 -22 39.999 -22c6.66699 0 25 -7 55 -21l85 -40c40.667 -18.667 70 -36.834 88 -54.501s27.333 -36.834 28 -57.501c0 -13.333 -7.66699 -23.5 -23 -30.5s-33.666 -8.5 -54.999 -4.5c-22 4 -52.667 16 -92 36
c-36 18 -60 27.5 -72 28.5s-24.667 -5.83301 -38 -20.5c-10.667 -11.333 -26.334 -18.333 -47.001 -21s-39 0 -55 8c-5.33301 4.66699 -11.5 6.33398 -18.5 5.00098s-12.5 -3.5 -16.5 -6.5s-11.167 -6.66699 -21.5 -11s-21.166 -7.5 -32.499 -9.5
c-13.333 -2.66699 -23 -2.83398 -29 -0.500977s-13 8.5 -21 18.5s-13.167 20.667 -15.5 32s-3.5 29.333 -3.5 54c0 35.333 -2.83301 60 -8.5 74s-15.5 21 -29.5 21c-14.667 0 -25.334 4.5 -32.001 13.5s-10 23.5 -10 43.5s5.33301 40.167 16 60.5s24.334 35.833 41.001 46.5
c10.667 8 17 16.333 19 25s2.33301 31.334 1 68.001c-0.666992 32.667 -0.166992 54.834 1.5 66.501s6.16699 21.5 13.5 29.5c11.333 12.667 21.333 19 30 19c12 0 27.167 -10.167 45.5 -30.5s27.5 -37.166 27.5 -50.499c0 -17.333 4 -28.333 12 -33
s19.333 -2.33398 34 6.99902c78 47.333 123 71 135 71c6.66699 0 14.667 2.5 24 7.5s23.166 10.5 41.499 16.5s40.833 10 67.5 12c8 0.666992 16.167 1.5 24.5 2.5s14.666 1.66699 18.999 2s8.5 0.833008 12.5 1.5s7 0.833984 9 0.500977s4 -0.5 6 -0.5
s3.66699 -0.666992 5 -2l3.5 -3.5c1 -1 2.5 -2.83301 4.5 -5.5c8 -9.33301 4.5 -21.5 -10.5 -36.5s-41.167 -31.833 -78.5 -50.5c-32.667 -16.667 -77.667 -41.5 -135 -74.5s-93.666 -52.5 -108.999 -58.5c-18.667 -8 -31 -18 -37 -30
c-4 -7.33301 -4.5 -13.666 -1.5 -18.999s11.833 -14 26.5 -26c22.667 -18.667 36 -28 40 -28z" />
    <glyph glyph-name="L" unicode="L" horiz-adv-x="562" 
d="M97 587c8.66699 14 22.668 12.6699 42.001 -3.99707c21.333 -19.333 32.333 -41.333 33 -66c0 -17.333 -5.5 -56.5 -16.5 -117.5s-20.5 -106.5 -28.5 -136.5c-4 -12.667 -6.16699 -22.167 -6.5 -28.5s0.5 -11.833 2.5 -16.5s7.16699 -7.5 15.5 -8.5s18 -1.16699 29 -0.5
s27.167 2.33398 48.5 5.00098c59.333 8 118.333 11.667 177 11s91.667 -5.33398 99 -14.001c5.33301 -6.66699 15.666 -14 30.999 -22s24.333 -15.667 27 -23c4 -10 2.83301 -18 -3.5 -24s-19.166 -10.667 -38.499 -14s-39.833 -5.83301 -61.5 -7.5
s-51.5 -4.33398 -89.5 -8.00098s-73 -7.83398 -105 -12.501c-38.667 -5.33301 -83.334 -8 -134.001 -8c-24 0 -43.167 1.33301 -57.5 4s-26 7.16699 -35 13.5s-14 16.166 -15 29.499s0.333008 29 4 47s10.5 41.667 20.5 71c20 59.333 31.667 105 35 137
c11.333 118.667 20.333 183 27 193z" />
    <glyph glyph-name="M" unicode="M" horiz-adv-x="576" 
d="M216 554c0 -9.33301 4.33594 -18.833 13.0029 -28.5s13 -17.167 13 -22.5c0 -12 5.5 -24.5 16.5 -37.5s21.833 -19.5 32.5 -19.5c25.333 0 62.333 53 111 159c8.66699 20 24.667 22.333 48 7c25.333 -16 42 -40 50 -72c1.33301 -4.66699 2.33301 -9 3 -13
c6.66699 -56.667 16 -122.167 28 -196.5s21 -124.166 27 -149.499c8.66699 -36 10.5 -62.333 5.5 -79s-17.833 -27.334 -38.5 -32.001c-24.667 -5.33301 -42.167 -1.16602 -52.5 12.501s-19.833 45.167 -28.5 94.5c-4 21.333 -7.83301 43.833 -11.5 67.5
s-6.5 42.667 -8.5 57l-6 41c-2 13 -4.16699 22.5 -6.5 28.5s-4.83301 9.33301 -7.5 10c-2.66699 1.33301 -6.83398 -1.16699 -12.501 -7.5s-11.5 -14.166 -17.5 -23.499c-12.667 -23.333 -27.834 -41.333 -45.501 -54s-33.5 -17.334 -47.5 -14.001
c-8.66699 2 -19.334 10 -32.001 24s-24 27.5 -34 40.5s-16.333 19.5 -19 19.5c-6 0.666992 -10.667 -9 -14 -29s-6 -54.333 -8 -103c-2.66699 -60 -8.66699 -101.667 -18 -125s-25 -35 -47 -35c-16 0 -27.333 4 -34 12c-4.66699 6 -9.66699 31 -15 75
s-11.666 99.833 -18.999 167.5s-14.333 121.5 -21 161.5s-10 69.167 -10 87.5s3.66699 31.833 11 40.5c7.33301 9.33301 14.666 13.5 21.999 12.5s18 -8.16699 32 -21.5l23 -21l16 17c10.667 12 21 18 31 18c10.667 0 25.167 -8.83301 43.5 -26.5s27.5 -31.834 27.5 -42.501
z" />
    <glyph glyph-name="N" unicode="N" horiz-adv-x="429" 
d="M203 588c0 -8.66699 4.50195 -17.666 13.502 -26.999s13.5 -16.666 13.5 -21.999c0 -6 7.33301 -22.667 22 -50s22 -44.666 22 -51.999c0.666992 -6.66699 6.16699 -17.167 16.5 -31.5s17.833 -21.5 22.5 -21.5c2.66699 1.33301 3.33398 6.66602 2.00098 15.999
s-4.33301 21.166 -9 35.499s-9.66699 26.166 -15 35.499c-10 16.667 -15.667 40.834 -17 72.501s2.33398 51.834 11.001 60.501c16 16 37.667 12.333 65 -11c18 -15.333 33.667 -51.166 47 -107.499s20.666 -117.166 21.999 -182.499c0 -43.333 -0.833008 -72.333 -2.5 -87
s-5.5 -25.667 -11.5 -33c-14 -15.333 -30.167 -19.333 -48.5 -12s-39.833 26.666 -64.5 57.999c-14 17.333 -26.833 34.333 -38.5 51s-20.334 29.834 -26.001 39.501s-11 18.334 -16 26.001s-9 13 -12 16s-6.5 4.5 -10.5 4.5c-6.66699 0 -12 -17.833 -16 -53.5
s-4 -65.834 0 -90.501c2 -14.667 2.16699 -26 0.5 -34s-6.16699 -16.667 -13.5 -26c-13.333 -16.667 -27.833 -26.5 -43.5 -29.5s-29.834 1.5 -42.501 13.5c-10 8.66699 -16 18.667 -18 30s-3 38 -3 80c0 46 -4 87.333 -12 124s-15.5 67.667 -22.5 93
s-9.83301 48.666 -8.5 69.999c1.33301 17.333 3.5 28.833 6.5 34.5s10.167 10.5 21.5 14.5c16 5.33301 29.667 4.66602 41 -2.00098c12 -7.33301 19.5 -10.333 22.5 -9s4.5 8.33301 4.5 21c0 14.667 6.66699 24.667 20 30s20.666 8 21.999 8
c6 1.33301 16.667 -5.33398 32 -20.001s23 -25.334 23 -32.001z" />
    <glyph glyph-name="O" unicode="O" horiz-adv-x="549" 
d="M190 539c24 -6 42.335 -9.33594 55.002 -10.0029s21.667 0.5 27 3.5s10.166 6.66699 14.499 11s12.5 8.16602 24.5 11.499s28 5.33301 48 6c24 0 40.333 -2 49 -6s23.334 -16.333 44.001 -37c37.333 -36 62.5 -74 75.5 -114s15.167 -84.333 6.5 -133
c-4 -24 -8.5 -42.167 -13.5 -54.5s-11.5 -24 -19.5 -35s-14.333 -21.167 -19 -30.5c-10 -20.667 -25.833 -42.167 -47.5 -64.5s-43.167 -39.833 -64.5 -52.5c-26 -15.333 -56.5 -24 -91.5 -26s-62.167 3 -81.5 15c-16 10.667 -27 16 -33 16
c-9.33301 0 -25.333 10.333 -48 31s-38.334 39.334 -47.001 56.001c-10 16.667 -20 43.167 -30 79.5s-17.333 57.5 -22 63.5c-6.66699 8.66699 -8.5 23.334 -5.5 44.001s9.5 38.334 19.5 53.001c7.33301 10.667 12.666 19.834 15.999 27.501s9 17.167 17 28.5
s23.667 30.666 47 57.999c24.667 28.667 41.5 46.334 50.5 53.001s18.5 8.66699 28.5 6zM412.002 427.997c-12.667 14 -27.499 22.3311 -44.499 24.998s-34.5 0.5 -52.5 -6.5s-34.833 -15 -50.5 -24s-31.834 -18.833 -48.501 -29.5s-29 -17.334 -37 -20.001
c-8.66699 -3.33301 -19.167 -17.166 -31.5 -41.499s-18.833 -43.833 -19.5 -58.5c0 -12 4.66699 -32 14 -60c13.333 -39.333 36.166 -66 68.499 -80s66.833 -12 103.5 6c14 6.66699 35.833 27.334 65.5 62.001s51.834 65.334 66.501 92.001c8 15.333 8.5 37.333 1.5 66
s-18.833 51.667 -35.5 69z" />
    <glyph glyph-name="P" unicode="P" horiz-adv-x="408" 
d="M234 690c19.333 8.66699 35.332 12.5 47.999 11.5s27.334 -7.83301 44.001 -20.5c40.667 -30 64.167 -70 70.5 -120s-4.83398 -102.833 -33.501 -158.5s-71.667 -106.5 -129 -152.5c-32.667 -26 -53.5 -47.167 -62.5 -63.5s-11.833 -37.166 -8.5 -62.499
c2.66699 -15.333 3.16699 -26.333 1.5 -33s-7.16699 -14.334 -16.5 -23.001c-14 -12.667 -28.333 -21 -43 -25c-24 -6 -41.833 9.33301 -53.5 46s-20.834 104 -27.501 202c-4.66699 82.667 -9 139.334 -13 170.001c-3.33301 31.333 -0.166016 54.666 9.50098 69.999
s24.834 21.333 45.501 18c13.333 -2 23 -1 29 3s15.333 16 28 36c32.667 50 69.667 84 111 102zM294.999 577c-9.33301 12.667 -17.667 18.999 -25 18.999c-6.66699 0 -17.5 -7.5 -32.5 -22.5s-28.167 -31.5 -39.5 -49.5c-9.33301 -15.333 -18.333 -46 -27 -92
s-10 -72 -4 -78c4.66699 -4 15.167 0.666992 31.5 14s33.333 31 51 53s30.167 41.333 37.5 58c12.667 26.667 19.5 46.334 20.5 59.001s-3.16699 25.667 -12.5 39z" />
    <glyph glyph-name="Q" unicode="Q" horiz-adv-x="679" 
d="M218 610c12.667 15.333 28.334 18.166 47.001 8.49902s49.334 -36.5 92.001 -80.5c54.667 -56.667 89 -97 103 -121c11.333 -19.333 21 -44.5 29 -75.5s12 -58.167 12 -81.5c0 -9.33301 3 -18.166 9 -26.499s17 -19.166 33 -32.499c32 -26 61 -53.333 87 -82
s39 -47.334 39 -56.001c0 -22.667 -8.16699 -38 -24.5 -46s-33.5 -5.33301 -51.5 8c-6.66699 5.33301 -16.834 9.83301 -30.501 13.5s-34.167 15.5 -61.5 35.5c-32 24 -50.5 36 -55.5 36s-23.5 -13.333 -55.5 -40c-39.333 -31.333 -76.5 -49.333 -111.5 -54
s-74.167 3.33301 -117.5 24c-47.333 22 -85.5 57.667 -114.5 107s-40.833 99 -35.5 149c4 36.667 19.5 82 46.5 136s54.5 94.333 82.5 121c30 28.667 48.667 43 56 43s14.666 4.66699 21.999 14zM331 414c-18 11.333 -32.6738 17.501 -44.0068 18.501
s-23.666 -3.16699 -36.999 -12.5c-17.333 -11.333 -28.666 -21.666 -33.999 -30.999s-16.666 -14 -33.999 -14c-11.333 0 -19.666 -2.16699 -24.999 -6.5s-11.666 -14.833 -18.999 -31.5c-22 -48.667 -22 -91.334 0 -128.001s58.333 -55 109 -55
c35.333 0 56.333 3.5 63 10.5s2.33398 20.833 -12.999 41.5c-6.66699 9.33301 -10.834 20 -12.501 32s-1.16699 23.167 1.5 33.5s6.83398 19.833 12.501 28.5s12.5 14.167 20.5 16.5s16.667 1.83301 26 -1.5c34.667 -17.333 52 -18 52 -2v4
c-2 12.667 -10.667 30.167 -26 52.5s-28.666 37.166 -39.999 44.499z" />
    <glyph glyph-name="R" unicode="R" horiz-adv-x="526" 
d="M278 314c0 -2 16.999 -8.83594 50.999 -20.5029s68 -25 102 -40s51 -28.167 51 -39.5c0 -4.66699 3.33301 -11.5 10 -20.5l18.5 -26c5.66699 -8.33301 7.5 -17.5 5.5 -27.5s-10.333 -18.667 -25 -26c-10 -5.33301 -19.667 -8 -29 -8s-18.833 1.83301 -28.5 5.5
s-28 9.33398 -55 17.001s-56.5 14.834 -88.5 21.501c-46 10 -75.667 19.333 -89 28c-14.667 9.33301 -26.167 11.666 -34.5 6.99902s-12.5 -16 -12.5 -34c0 -21.333 -6.33301 -39.5 -19 -54.5s-28.334 -22.5 -47.001 -22.5c-19.333 0 -32 3.66699 -38 11
c-4 6 -8.83301 54 -14.5 144s-10.5 140.667 -14.5 152c-5.33301 14.667 -9 52.334 -11 113.001c-1.33301 50.667 1.5 84.334 8.5 101.001s22.167 27 45.5 31c16 2 65.333 3.66699 148 5c60 0 97.167 -0.833008 111.5 -2.5s28.5 -7.83398 42.5 -18.501
c17.333 -12.667 33.5 -30.5 48.5 -53.5s22.5 -41.5 22.5 -55.5c0.666992 -15.333 -9.66602 -37 -30.999 -65s-46.666 -53.333 -75.999 -76c-34.667 -27.333 -52 -42.666 -52 -45.999zM256.999 452.997c38 25.333 39.333 42.332 4 50.999c-30.667 7.33301 -65 7 -103 -1
c-12 -3.33301 -19.667 -6.66602 -23 -9.99902c-6 -8 -9 -26.833 -9 -56.5s3.33301 -48.167 10 -55.5c2 -2 7.83301 -0.833008 17.5 3.5s20.167 10.5 31.5 18.5z" />
    <glyph glyph-name="S" unicode="S" horiz-adv-x="427" 
d="M264 592c7.33301 2.66699 17.1738 7.32812 29.5068 13.9951s20.833 10.834 25.5 12.501s11.334 2.66699 20.001 3s16.667 -2 24 -7s15.666 -12.833 24.999 -23.5c18 -20.667 27 -34.667 27 -42c0 -11.333 -12.833 -25.5 -38.5 -42.5s-46.834 -25.5 -63.501 -25.5
c-10.667 0 -37.834 -14.667 -81.501 -44s-63.834 -46.666 -60.501 -51.999c2 -3.33301 19.833 -9.5 53.5 -18.5s51.834 -15.5 54.501 -19.5c2.66699 -4.66699 9 -7 19 -7s24.333 -7 43 -21s36 -30.333 52 -49c9.33301 -11.333 15.666 -21.833 18.999 -31.5
s5 -22.167 5 -37.5c0 -17.333 -2.33301 -30.666 -7 -39.999s-15 -22.333 -31 -39c-17.333 -17.333 -35.833 -31 -55.5 -41s-36.834 -17.167 -51.501 -21.5s-24.334 -8.5 -29.001 -12.5c-6 -5.33301 -19.333 -8 -40 -8s-45.667 -4.33301 -75 -13
c-45.333 -14 -77.333 -16 -96 -6s-25.334 32.667 -20.001 68c3.33301 24 11 40.5 23 49.5s34 15.5 66 19.5c28 3.33301 62.5 11.833 103.5 25.5s61.167 23.334 60.5 29.001s-34.334 16.5 -101.001 32.5c-50 12.667 -83.167 23.834 -99.5 33.501s-29.5 26.834 -39.5 51.501
c-4 10.667 -2.66699 29 4 55s15.667 48 27 66c8 12.667 37.333 36.167 88 70.5s90.667 58.166 120 71.499z" />
    <glyph glyph-name="T" unicode="T" horiz-adv-x="614" 
d="M298 564c10 20.667 20.9971 30.8301 32.9971 30.4971s26.667 -11.5 44 -33.5c12.667 -15.333 22.834 -25 30.501 -29s20.167 -6 37.5 -6c31.333 0 59.333 -4.16699 84 -12.5s43.334 -19.5 56.001 -33.5c10.667 -13.333 17.334 -24.166 20.001 -32.499
s0.166992 -15.5 -7.5 -21.5s-20 -10.667 -37 -14s-40.5 -6 -70.5 -8c-53.333 -3.33301 -81.333 -9 -84 -17c-2 -5.33301 -0.166992 -58.833 5.5 -160.5s7.16699 -156.167 4.5 -163.5c-4.66699 -12 -17.334 -23.333 -38.001 -34s-37 -14.334 -49 -11.001
c-15.333 3.33301 -26 8.33301 -32 15s-10 18.834 -12 36.501s-1 42.834 3 75.501c3.33301 48 4.5 96.833 3.5 146.5s-4.16699 78.167 -9.5 85.5c-3.33301 6 -29.166 6.66699 -77.499 2s-80.5 -11 -96.5 -19c-14 -7.33301 -26.833 -9.66602 -38.5 -6.99902
s-24.167 11.334 -37.5 26.001l-20 21l21 38c8.66699 16 17.667 27.667 27 35s25 15 47 23c23.333 9.33301 47 15.666 71 18.999s42.333 5 55 5s25 3.16699 37 9.5s22 17.833 30 34.5z" />
    <glyph glyph-name="U" unicode="U" horiz-adv-x="412" 
d="M71 581c12 32.667 34.001 32.334 66.001 -0.999023l25 -27l-27 -87c-12 -37.333 -19.667 -66.666 -23 -87.999s-5 -51.666 -5 -90.999c0 -48 3 -80.667 9 -98s17.333 -26 34 -26s44.5 22.167 83.5 66.5s58.5 76.166 58.5 95.499c0 4 0.833008 7.5 2.5 10.5
s3.66699 5.83301 6 8.5s5.33301 9.16699 9 19.5s6.83398 24.166 9.50098 41.499c4.66699 22.667 6.5 38.834 5.5 48.501s-5.83301 23.167 -14.5 40.5c-20 41.333 -23.333 73.666 -10 96.999c11.333 19.333 28 21.666 50 6.99902c8.66699 -6 17.334 -14.333 26.001 -25
c13.333 -17.333 21.166 -32.166 23.499 -44.499s3.16602 -46.5 2.49902 -102.5c0 -46 -0.833008 -76.833 -2.5 -92.5s-5.83398 -29.834 -12.501 -42.501s-12 -26 -16 -40c-10.667 -36.667 -34.167 -77.667 -70.5 -123s-67.5 -72.333 -93.5 -81
c-20 -6.66699 -41.667 -8 -65 -4c-15.333 2.66699 -27.333 7.33398 -36 14.001s-20.334 19.667 -35.001 39c-30 39.333 -48.667 81.166 -56 125.499s-6 103.5 4 177.5c6.66699 46 15.334 83.667 26.001 113z" />
    <glyph glyph-name="V" unicode="V" horiz-adv-x="478" 
d="M264 65c-14 0 -25.499 5.16797 -34.499 15.501s-15.833 20.666 -20.5 30.999s-9 15.5 -13 15.5c-2.66699 0 -6.33398 3.66699 -11.001 11s-10.5 18.666 -17.5 33.999l-21.5 46.5l-27.5 61l-30.5 66.5c-16.667 36 -25 56.667 -25 62c0 2 -4.33301 9.83301 -13 23.5
s-17 28 -25 43s-13.167 31.833 -15.5 50.5s2.83398 34.334 15.501 47.001c17.333 19.333 34.666 21 51.999 5c22 -21.333 62.333 -97.333 121 -228c16.667 -38.667 29.5 -65.334 38.5 -80.001s16.167 -22 21.5 -22c10.667 0 24.834 25.167 42.501 75.5
s28.167 95.166 31.5 134.499c2 24.667 4.83301 44.5 8.5 59.5s7.16699 24.5 10.5 28.5s6.33301 8 9 12s4 9 4 15c0 14 4.83301 21.833 14.5 23.5s23.167 -3.5 40.5 -15.5c25.333 -16.667 40.833 -33.667 46.5 -51s2.16699 -37.666 -10.5 -60.999
c-9.33301 -17.333 -18 -41 -26 -71l-29 -110c-6.66699 -27.333 -15.334 -55.166 -26.001 -83.499s-19.5 -50.833 -26.5 -67.5s-10.5 -27.334 -10.5 -32.001c0 -7.33301 -8.66699 -15.666 -26 -24.999s-33 -14 -47 -14z" />
    <glyph glyph-name="W" unicode="W" horiz-adv-x="572" 
d="M458 627c7.33301 8.66699 14.6689 12.8311 22.002 12.498s19.666 -6.16602 36.999 -17.499c21.333 -13.333 34.833 -26.166 40.5 -38.499s5.5 -29.833 -0.5 -52.5c-2 -8 -7.5 -42.167 -16.5 -102.5s-19.333 -115.666 -31 -165.999s-23.834 -80.5 -36.501 -90.5
c-19.333 -14.667 -39.666 -18.167 -60.999 -10.5s-48.333 28.5 -81 62.5c-29.333 30 -47.666 45 -54.999 45c-14 0 -21 -21.667 -21 -65c0 -23.333 -6.16699 -42 -18.5 -56s-28.833 -21 -49.5 -21c-6.66699 0 -11.5 0.166992 -14.5 0.5s-6.33301 1.66602 -10 3.99902
s-6.16699 4.83301 -7.5 7.5s-4 7.66699 -8 15s-7.5 14.833 -10.5 22.5s-8 19.167 -15 34.5l-21.5 47c-20.667 42.667 -31 68.334 -31 77.001c0 7.33301 -5.66699 25 -17 53s-22 51.333 -32 70c-10 17.333 -12.833 39 -8.5 65s13.5 42.333 27.5 49
c12.667 6 27.667 3.33301 45 -8s29.333 -26.333 36 -45c19.333 -54 29 -89.667 29 -107c0 -8.66699 1.5 -17.334 4.5 -26.001s6.66699 -15.334 11 -20.001s8.16602 -6 11.499 -4c5.33301 3.33301 8 12 8 26c0 12.667 4.83301 28.667 14.5 48s18.167 30.333 25.5 33
c10 4 24.5 -0.166992 43.5 -12.5s34.167 -27.166 45.5 -44.499c12 -18.667 24.667 -35.834 38 -51.501s24.666 -27.5 33.999 -35.5s15.666 -10.333 18.999 -7c14.667 16 24.834 47.833 30.501 95.5s9.5 93.334 11.5 137.001s6 69.167 12 76.5z" />
    <glyph glyph-name="X" unicode="X" horiz-adv-x="543" 
d="M313 567c5.33301 8.66699 13.8271 12.3291 25.4941 10.9961s23.334 -5 35.001 -11s21.834 -14.5 30.501 -25.5s13 -21.833 13 -32.5c0 -11.333 -7.16699 -29.166 -21.5 -53.499s-25.166 -36.5 -32.499 -36.5c-3.33301 0 -6.83301 -2.83301 -10.5 -8.5s-8 -13.5 -13 -23.5
s-9.16699 -17.333 -12.5 -22c-4.66699 -6.66699 -4.16699 -14.167 1.5 -22.5s21.5 -24.166 47.5 -47.499l107 -95c30.667 -24.667 47.334 -44.334 50.001 -59.001s-8 -27 -32 -37c-19.333 -8 -37.166 -8.16699 -53.499 -0.5s-51.166 32.834 -104.499 75.501
c-52.667 42 -83 63 -91 63c-6 0 -12.167 -5.16699 -18.5 -15.5s-12.333 -22.166 -18 -35.499s-14.667 -27.166 -27 -41.499s-26.833 -24.5 -43.5 -30.5s-27.834 -8.83301 -33.501 -8.5s-12.5 3.83301 -20.5 10.5c-19.333 17.333 -26.5 39.666 -21.5 66.999
s20.833 55 47.5 83c23.333 23.333 35 37.5 35 42.5s-17.667 20.833 -53 47.5c-32.667 26 -55.667 47.333 -69 64s-20 33 -20 49c0 34 8.66699 53.333 26 58s39 -7 65 -35c10.667 -11.333 20.334 -20.666 29.001 -27.999s15.334 -12.5 20.001 -15.5s11.5 -7 20.5 -12
l23.5 -13.5c9.33301 -6 16.166 -8.16699 20.499 -6.5s12.166 9.5 23.499 23.5c10.667 13.333 20.834 28 30.501 44l27.5 47.5z" />
    <glyph glyph-name="Y" unicode="Y" horiz-adv-x="436" 
d="M10 592c0 18 1.66895 32.3311 5.00195 42.998s8 17.167 14 19.5s12.333 3.16602 19 2.49902s14.5 -4.16699 23.5 -10.5s16.833 -12.166 23.5 -17.499s14.667 -12.333 24 -21l103 -95l38 30c25.333 20 47.666 41.333 66.999 64c17.333 19.333 30.166 29.833 38.499 31.5
s18.833 -4.16602 31.5 -17.499c23.333 -26 32.333 -51 27 -75s-26 -50 -62 -78l-54 -42l6 -156c4.66699 -104 10 -171.667 16 -203c6 -32 4.66699 -55 -4 -69s-25.667 -21 -51 -21c-12 0 -21.5 1.33301 -28.5 4s-13.167 6.83398 -18.5 12.501s-9.16602 16.5 -11.499 32.5
s-4 34 -5 54s-1.83301 48.333 -2.5 85c-0.666992 71.333 -2.33398 115.333 -5.00098 132s-10.667 37.667 -24 63c-18.667 34.667 -51.667 74.667 -99 120c-35.333 33.333 -56 54.833 -62 64.5s-9 25.5 -9 47.5z" />
    <glyph glyph-name="Z" unicode="Z" horiz-adv-x="663" 
d="M213 533c108.667 5.33301 170.665 6.66504 185.998 3.99805c10.667 -1.33301 24 -9.33301 40 -24s29 -33.5 39 -56.5s8.66699 -48.167 -4 -75.5c-7.33301 -17.333 -27.166 -42.5 -59.499 -75.5s-64.833 -61.833 -97.5 -86.5
c-11.333 -9.33301 -20.666 -17.833 -27.999 -25.5s-10.333 -12.5 -9 -14.5c2 -2.66699 21.167 -4.33398 57.5 -5.00098s75.5 -1.33398 117.5 -2.00098s68.667 -2.33398 80 -5.00098c17.333 -4.66699 39 -15.834 65 -33.501s42 -32.5 48 -44.5
c4 -7.33301 5.33301 -13.166 4 -17.499s-6.33301 -10.166 -15 -17.499c-8.66699 -6.66699 -18.5 -10.667 -29.5 -12s-31.833 -1 -62.5 1c-40.667 2.66699 -101.334 1.33398 -182.001 -3.99902s-141.667 -11.666 -183 -18.999c-26 -5.33301 -43 -7.66602 -51 -6.99902
s-17.667 5.33398 -29 14.001c-25.333 18.667 -33.666 51.334 -24.999 98.001c2.66699 14 14.334 33 35.001 57s44.5 48.167 71.5 72.5l80 70.5c26.333 22.667 47.833 42.167 64.5 58.5s24 26.166 22 29.499c-4.66699 7.33301 -38.5 9 -101.5 5s-102.833 -10.667 -119.5 -20
c-20.667 -10 -41 -14.5 -61 -13.5s-34.333 7.5 -43 19.5c-10 13.333 -14.333 29.5 -13 48.5s7.66602 35.5 18.999 49.5l20 24z" />
    <glyph glyph-name="bracketleft" unicode="[" horiz-adv-x="428" 
d="M228 755c20.667 8.66699 40.3291 17.9951 58.9961 27.9951c8.66699 4 14.334 6.16699 17.001 6.5s7.33398 -1.5 14.001 -5.5l6 -3c18.667 -9.33301 34.667 -21.833 48 -37.5s20 -29.167 20 -40.5c0 -14.667 -6.5 -28.5 -19.5 -41.5s-28.5 -21.5 -46.5 -25.5
c-31.333 -6.66699 -62.666 -16.667 -93.999 -30s-53.333 -25.666 -66 -36.999l-26 -26l1 -128c0.666992 -86 3.66699 -131.667 9 -137c9.33301 -3.33301 21.333 -3.66602 36 -0.999023s36.834 6.5 66.501 11.5s53.167 7.5 70.5 7.5s29.833 -1.66699 37.5 -5
s16.5 -11 26.5 -23c29.333 -34.667 38 -60.667 26 -78s-47.667 -29.333 -107 -36c-42 -4.66699 -71.5 -9.5 -88.5 -14.5s-36.833 -14.833 -59.5 -29.5c-18.667 -11.333 -43.167 -17.166 -73.5 -17.499s-48.5 5.16699 -54.5 16.5
c-21.333 38.667 -25.666 87.334 -12.999 146.001c12 58 11.333 163.333 -2 316c-4 48.667 -0.333008 82.834 11 102.501s33.333 29.5 66 29.5c10.667 0 21.667 2 33 6s27.666 11.167 48.999 21.5s39.333 18.5 54 24.5z" />
    <glyph glyph-name="backslash" unicode="\" horiz-adv-x="218" 
d="M114 -68c0 14.667 -5.99805 48.8359 -17.998 102.503s-18 92.167 -18 115.5c0 20.667 -4.66699 55.167 -14 103.5s-21 96.5 -35 144.5c-10.667 39.333 -16.834 70.833 -18.501 94.5s1.5 44.5 9.5 62.5c15.333 36.667 34.666 43 57.999 19
c18.667 -19.333 30.334 -44.666 35.001 -75.999c0.666992 -4 1 -7.66699 1 -11c0 -9.33301 5.83301 -33.333 17.5 -72s17.5 -66.334 17.5 -83.001c0 -14 4.33301 -39.333 13 -76s16 -82.334 22 -137.001c6.66699 -68 13 -111.667 19 -131
c5.33301 -16 6.66602 -38.333 3.99902 -67s-7.66699 -47.334 -15 -56.001c-5.33301 -6.66699 -11.5 -10.334 -18.5 -11.001s-13.833 1 -20.5 5s-13 9.5 -19 16.5s-10.833 15.5 -14.5 25.5s-5.5 20.333 -5.5 31z" />
    <glyph glyph-name="bracketright" unicode="]" horiz-adv-x="449" 
d="M178 703c52 2 85.001 2.99902 99.001 2.99902s24.667 -0.5 32 -1.5s13.666 -1.5 18.999 -1.5c4 0 9.83301 -3.5 17.5 -10.5s14.5 -15.5 20.5 -25.5c10.667 -16 17.667 -32.167 21 -48.5s6.33301 -52.5 9 -108.5c1.33301 -37.333 2.5 -64 3.5 -80s2 -27.167 3 -33.5
s1.83301 -11.166 2.5 -14.499s2.16699 -14.5 4.5 -33.5s4.83301 -45.5 7.5 -79.5c3.33301 -38 7 -71.667 11 -101s6.83301 -48.333 8.5 -57s2.16699 -16.5 1.5 -23.5s-3 -14.5 -7 -22.5c-4 -6.66699 -7 -11.334 -9 -14.001s-7.16699 -5.16699 -15.5 -7.5
s-17.333 -3.83301 -27 -4.5s-27.167 -1.33398 -52.5 -2.00098c-41.333 -2 -82.5 -7.5 -123.5 -16.5s-71.333 -16.5 -91 -22.5s-37.5 -7.33301 -53.5 -4s-28 14.333 -36 33c-5.33301 13.333 -9.16602 24 -11.499 32s-2.5 16 -0.5 24s5.66699 14.333 11 19
s14.666 9.83398 27.999 15.501s28.166 10.834 44.499 15.501s38.5 10.334 66.5 17.001c85.333 21.333 131.666 35.333 138.999 42c6 4.66699 9.66699 16.667 11 36s0.5 43.333 -2.5 72s-6.16699 55.5 -9.5 80.5s-7.16602 51.5 -11.499 79.5s-6.83301 44.667 -7.5 50
c-4 28.667 -11 46.167 -21 52.5s-32.667 6.5 -68 0.5c-39.333 -6.66699 -69.666 -6.33398 -90.999 0.999023l-32 10v124z" />
    <glyph glyph-name="a" unicode="a" horiz-adv-x="548" 
d="M141 599c6.66699 9.33301 13.3369 15.1709 20.0039 17.5039s18.334 3.16602 35.001 2.49902c26 -2 44.667 -6 56 -12c8.66699 -4.66699 21.667 -17.334 39 -38.001s26 -33.667 26 -39s13 -26.5 39 -63.5s44 -59.833 54 -68.5c10.667 -10 24 -32.667 40 -68
s26.333 -55.666 31 -60.999c5.33301 -6.66699 11.166 -20.167 17.499 -40.5s14.166 -36.833 23.499 -49.5c10.667 -16 16.167 -33.667 16.5 -53s-4.33398 -35.666 -14.001 -48.999s-22.167 -20 -37.5 -20c-30.667 0 -57.834 11.667 -81.501 35s-35.834 50 -36.501 80
c0 21.333 -5.33301 42.166 -16 62.499s-22 31.166 -34 32.499c-14 2 -35.333 -5 -64 -21s-44.667 -30 -48 -42c-3.33301 -12.667 -5 -40.334 -5 -83.001c0 -43.333 -3.33301 -72.333 -10 -87s-21.334 -25 -44.001 -31s-40.667 -6.33301 -54 -1s-27.666 18.333 -42.999 39
c-8.66699 12 -13.334 21.667 -14.001 29s2.33301 23.666 9 48.999c10 38.667 14.167 65.667 12.5 81s-10.167 31.333 -25.5 48c-16 16 -23.667 29.167 -23 39.5s9.66699 18.833 27 25.5c14.667 5.33301 24.834 13.333 30.501 24s8.5 31 8.5 61s-3 54.333 -9 73
c-4 13.333 -4.66699 23.5 -2 30.5s11.667 19.167 27 36.5c22.667 26 39 46.333 49 61zM250.503 383.005c3.66699 0 6.83105 1.5 9.49805 4.5s3.16699 6.16699 1.5 9.5s-5.5 5 -11.5 5s-9.66699 -1.66699 -11 -5s-0.666016 -6.5 2.00098 -9.5s5.83398 -4.5 9.50098 -4.5z" />
    <glyph glyph-name="b" unicode="b" horiz-adv-x="437" 
d="M129 611c46.667 12.667 84.8301 12.499 114.497 -0.500977s53.834 -40.167 72.501 -81.5c12.667 -26.667 20 -50.334 22 -71.001s-0.666992 -41.667 -8 -63c-4.66699 -14 -5.16699 -25 -1.5 -33s17.167 -25 40.5 -51c26.667 -30.667 43.834 -57.5 51.501 -80.5
s8.83398 -52.167 3.50098 -87.5c-2.66699 -14 -7.33398 -27.167 -14.001 -39.5s-18.334 -27.166 -35.001 -44.499c-28 -31.333 -45 -47 -51 -47c-4 0 -9.16699 -2.5 -15.5 -7.5s-17.166 -10.833 -32.499 -17.5s-36 -11.334 -62 -14.001
c-26.667 -3.33301 -44.167 -4.16602 -52.5 -2.49902s-19.166 7.83398 -32.499 18.501c-18 15.333 -37.667 23 -59 23c-19.333 0 -32 7 -38 21c-9.33301 19.333 -15.333 86.333 -18 201v23l-4 195l23 44c15.333 28.667 23 46 23 52c0 10.667 7.66699 22.667 23 36
s32 22.333 50 27zM228.996 480.999c-4 6 -12.999 9.00098 -26.999 9.00098c-12.667 0 -25 -7.83301 -37 -23.5s-20 -34.834 -24 -57.501c-2.66699 -15.333 -3.33398 -24.833 -2.00098 -28.5s6 -5.5 14 -5.5c18 0 37.167 14.333 57.5 43s26.5 49.667 18.5 63zM237.997 220
c-0.666992 -0.666992 -2.49707 -1.83496 -5.49707 -3.50195s-4.83301 -2.5 -5.5 -2.5s-2.5 -0.666992 -5.5 -2s-5.33301 -1.66602 -7 -0.999023s-4.33398 1 -8.00098 1s-7.33398 0.833008 -11.001 2.5s-8.16699 3.5 -13.5 5.5s-11.166 4.66699 -17.499 8l-20.5 11
c-6.66699 3.33301 -11.334 -2.66699 -14.001 -18c-6.66699 -30 -5.66699 -58.333 3 -85c2 -6 4 -10.667 6 -14c6 -7.33301 11.667 -11.333 17 -12s17.333 1.33301 36 6c46.667 12.667 82.667 33.334 108 62.001c19.333 22 20.666 37.667 3.99902 47
c-11.333 6 -21.333 8.66699 -30 8s-20.667 -5 -36 -13z" />
    <glyph glyph-name="c" unicode="c" horiz-adv-x="510" 
d="M208 540c27.333 6.66699 44.9961 9.99805 52.9961 9.99805s20.333 -3.33301 37 -10c26 -10.667 44.5 -26.167 55.5 -46.5s16.833 -49.166 17.5 -86.499c1.33301 -43.333 -0.333984 -67.333 -5.00098 -72c-6 -6.66699 -12.333 -2.66699 -19 12c-3.33301 8 -5 16.333 -5 25
c0 12.667 -6.33301 24.167 -19 34.5s-26.667 15.5 -42 15.5s-38.666 -11.667 -69.999 -35s-55.333 -47.333 -72 -72c-10 -14.667 -16.333 -28.5 -19 -41.5s-4 -38.833 -4 -77.5c0 -20.667 0.166992 -36.5 0.5 -47.5s2 -21.667 5 -32s6.16699 -17.5 9.5 -21.5
s9.33301 -7.5 18 -10.5s17.834 -4.66699 27.501 -5s23.5 -0.166016 41.5 0.500977c34 0.666992 64.5 5 91.5 13s50.667 15.667 71 23s39.5 11 57.5 11c15.333 0 25.833 -1.5 31.5 -4.5s11.5 -9.83301 17.5 -20.5c16 -30.667 17.5 -55.5 4.5 -74.5
s-44.167 -37.833 -93.5 -56.5c-41.333 -15.333 -77.666 -25.5 -108.999 -30.5s-64.333 -5.83301 -99 -2.5c-38.667 3.33301 -70 13.333 -94 30s-44.667 42.667 -62 78c-11.333 24 -18.166 44.667 -20.499 62s-3.5 56.333 -3.5 117c0 59.333 1 97.333 3 114s8 33 18 49
c16.667 29.333 44.334 60.5 83.001 93.5s70 52.5 94 58.5z" />
    <glyph glyph-name="d" unicode="d" horiz-adv-x="470" 
d="M94 560c0 8.66699 3.33301 17 10 25s12 11.667 16 11c7.33301 -0.666992 26.5 -7 57.5 -19s51.167 -21 60.5 -27c15.333 -10 26 -15 32 -15s28.333 -18 67 -54c37.333 -35.333 63 -65.166 77 -89.499s26.333 -60.833 37 -109.5c6.66699 -30 9.5 -54.333 8.5 -73
s-6.5 -50.334 -16.5 -95.001c-7.33301 -34 -35.5 -65.667 -84.5 -95s-98.833 -44.333 -149.5 -45c-31.333 -0.666992 -56.5 1.83301 -75.5 7.5s-36.167 8.83398 -51.5 9.50098c-27.333 0.666992 -45.5 8.66699 -54.5 24s-11.5 42.333 -7.5 81
c4.66699 48.667 6.5 105.167 5.5 169.5s-4.5 103.833 -10.5 118.5c-8 18 -7.16699 40.167 2.5 66.5s23.5 44.166 41.5 53.499c23.333 12 35 30.667 35 56zM360 249c0 8.66699 -4.50195 22.332 -13.502 40.999s-13.5 30 -13.5 34c0 22 -47.667 58.333 -143 109
c-40.667 21.333 -63 26.333 -67 15c-1.33301 -4.66699 -1.33301 -11 0 -19c2.66699 -12.667 5.33398 -45.167 8.00098 -97.5s5.33398 -101.166 8.00098 -146.499s5 -69 7 -71c6 -3.33301 29 -0.333008 69 9s67 18.333 81 27c14.667 8.66699 29 23.667 43 45s21 39.333 21 54
z" />
    <glyph glyph-name="e" unicode="e" horiz-adv-x="510" 
d="M109 624c41.333 3.33301 97.9961 4.32617 169.996 2.99316c50.667 -0.666992 83.167 -2.16699 97.5 -4.5s29.833 -9.16602 46.5 -20.499c41.333 -27.333 47.333 -54 18 -80c-8 -7.33301 -19.167 -11.166 -33.5 -11.499s-34.166 0.5 -59.499 2.5
s-62.333 -0.333008 -111 -7l-84 -12l-3 -35c-1.33301 -23.333 1.66699 -40.333 9 -51c5.33301 -7.33301 12 -10.833 20 -10.5s28.667 4.83301 62 13.5c38.667 10.667 66.834 15 84.501 13s37.5 -11.333 59.5 -28c12 -10 19.833 -18.167 23.5 -24.5
s4.83398 -15.166 3.50098 -26.499c-1.33301 -13.333 -4.83301 -21.5 -10.5 -24.5s-25.167 -5.83301 -58.5 -8.5c-32 -2.66699 -65.833 -9.16699 -101.5 -19.5s-57.834 -19.833 -66.501 -28.5c-6 -6 -5 -20.667 3 -44c5.33301 -15.333 10.5 -25.166 15.5 -29.499
s14.5 -7.16602 28.5 -8.49902c21.333 -1.33301 47.333 2.33398 78 11.001c36 10.667 71 15.334 105 14.001s59 -8 75 -20c14.667 -12 21.167 -24.5 19.5 -37.5s-11.167 -25.167 -28.5 -36.5c-15.333 -10 -42.833 -21.833 -82.5 -35.5s-66.5 -20.5 -80.5 -20.5
c-9.33301 0 -38.666 -6 -87.999 -18s-85.666 -18 -108.999 -18c-12 0 -21.333 0.333008 -28 1s-13 3.66699 -19 9s-10.167 11.333 -12.5 18s-4.5 18.5 -6.5 35.5s-3.16699 34.667 -3.5 53s-0.5 44.833 -0.5 79.5c0 72 -1.83301 124.833 -5.5 158.5
s-11.167 62.167 -22.5 85.5c-6 13.333 -1.66699 43 13 89l22 69z" />
    <glyph glyph-name="f" unicode="f" horiz-adv-x="439" 
d="M68 643c13.333 2.66699 59.333 4.33008 138 4.99707c54 0.666992 89 0 105 -2s31.333 -7.33301 46 -16c36 -21.333 58.333 -40.833 67 -58.5s4.33398 -34.5 -12.999 -50.5c-8 -7.33301 -16 -11.166 -24 -11.499s-25 1.83398 -51 6.50098c-34.667 6 -71 9.16699 -109 9.5
s-62.667 -2.83398 -74 -9.50098c-11.333 -6 -17 -20 -17 -42c0 -26 4.5 -42 13.5 -48s32.833 -9.33301 71.5 -10c88 -2.66699 132 -24 132 -64c0 -12 -3.66699 -20.5 -11 -25.5s-30 -13.5 -68 -25.5c-7.33301 -2 -17.333 -5 -30 -9l-39.5 -12.5
c-7.66699 -2.33301 -16.167 -5.66602 -25.5 -9.99902s-15 -7.33301 -17 -9s-4 -5.5 -6 -11.5s-2.83301 -11.167 -2.5 -15.5s0.833008 -11.5 1.5 -21.5c0.666992 -7.33301 1.33398 -12.666 2.00098 -15.999c3.33301 -42.667 7 -77.667 11 -105
c7.33301 -52.667 -14.667 -79 -66 -79c-28 0 -46.667 8.66699 -56 26s-14.333 53.333 -15 108c-0.666992 59.333 -2.33398 91.333 -5.00098 96c-8.66699 13.333 -13.834 60 -15.501 140s0.833008 140.333 7.5 181c5.33301 28 11.5 47.667 18.5 59s17.5 18.333 31.5 21z" />
    <glyph glyph-name="g" unicode="g" horiz-adv-x="571" 
d="M52 434c11.333 20 26 42.832 44 68.499s38.667 50.5 62 74.5s42 36.333 56 37c12.667 0 27 -6.5 43 -19.5s28.667 -27.833 38 -44.5l14 -28l-44 -40c-29.333 -26.667 -53.666 -52.667 -72.999 -78c-17.333 -22.667 -32.333 -51.5 -45 -86.5s-17 -60.833 -13 -77.5
c2.66699 -12 13 -26.333 31 -43s32 -25 42 -25c18 0 21 9.66699 9 29c-4 6.66699 -10 14 -18 22c-30 31.333 -41.667 59.833 -35 85.5s31 46.167 73 61.5c50.667 18.667 100.5 23.5 149.5 14.5s89.167 -30.5 120.5 -64.5c24.667 -26 40.5 -49.5 47.5 -70.5
s9.16699 -51.833 6.5 -92.5c-2.66699 -47.333 -9.33398 -81 -20.001 -101s-27.334 -31 -50.001 -33c-14 -1.33301 -23.833 -0.333008 -29.5 3s-12.834 12 -21.501 26c-9.33301 15.333 -14.5 28 -15.5 38s1.16699 31.333 6.5 64c6.66699 47.333 8.16699 73.833 4.5 79.5
s-15.167 8.5 -34.5 8.5h-28l3 -57c2 -26.667 1.83301 -45 -0.5 -55s-9.16602 -23 -20.499 -39c-31.333 -45.333 -66 -64.333 -104 -57c-20.667 4.66699 -44.167 11.834 -70.5 21.501s-43.5 17.834 -51.5 24.501c-9.33301 8 -16.666 12 -21.999 12s-16.333 10.667 -33 32
s-30.667 42.666 -42 63.999c-17.333 33.333 -24 72 -20 116s17.667 87.333 41 130z" />
    <glyph glyph-name="h" unicode="h" horiz-adv-x="432" 
d="M267 654c16 20 39.001 16.0029 69.001 -11.9971c14 -13.333 23 -26.333 27 -39c6 -18 15.333 -91 28 -219c12 -126.667 21 -204 27 -232c5.33301 -24.667 5.33301 -43.5 0 -56.5s-16.666 -21.833 -33.999 -26.5c-14.667 -4 -29.834 -1.66699 -45.501 7
s-27.167 21 -34.5 37c-8 16 -14 48 -18 96c-2.66699 35.333 -5.5 56.5 -8.5 63.5s-11.167 12.167 -24.5 15.5c-22.667 6 -36.5 3.5 -41.5 -7.5s-3.16699 -34.5 5.5 -70.5c6 -28.667 9 -47 9 -55s-4 -17.333 -12 -28c-10 -14 -25 -22.167 -45 -24.5s-35 2.16699 -45 13.5
c-8.66699 10 -18 31 -28 63s-15 56.333 -15 73c0 17.333 -4 26 -12 26s-20 6 -36 18c-8.66699 7.33301 -14.667 14.666 -18 21.999s-5 17.666 -5 30.999c0 16 1.83301 26.667 5.5 32s12.834 11.666 27.501 18.999l33 15v111c0 73.333 2.33301 113.666 7 120.999
c7.33301 10.667 19.166 14.167 35.499 10.5s32.166 -13.5 47.499 -29.5c14 -14.667 22.5 -27.167 25.5 -37.5s5.16699 -36.5 6.5 -78.5l2 -86l33 -12c22.667 -7.33301 34.667 -9 36 -5c1.33301 2.66699 -0.666992 42.334 -6 119.001s-4 118.667 4 126z" />
    <glyph glyph-name="i" unicode="i" horiz-adv-x="540" 
d="M179 605c32 6.66699 75.3369 8.50098 130.004 5.50098s90.667 -9.16699 108 -18.5c24 -12 43.333 -25.833 58 -41.5s22 -30.167 22 -43.5c0 -18.667 -5.5 -30.334 -16.5 -35.001s-33.833 -5 -68.5 -1c-40.667 5.33301 -63 6.83301 -67 4.5s-5.66699 -36.5 -5 -102.5
l2 -99h59c31.333 -0.666992 55.833 -5 73.5 -13s32.834 -21.667 45.501 -41c6 -9.33301 9.16699 -16.166 9.5 -20.499s-1.83398 -9.5 -6.50098 -15.5c-8.66699 -10.667 -25.834 -21.167 -51.501 -31.5s-51.834 -17.166 -78.501 -20.499
c-18.667 -2.66699 -31.834 -5.83398 -39.501 -9.50098s-13.5 -9.5 -17.5 -17.5c-15.333 -33.333 -43.333 -44 -84 -32c-22.667 6 -47.334 7.33301 -74.001 4c-58 -6.66699 -93.333 13.333 -106 60c-6 24 -8.33301 44 -7 60c1.33301 11.333 4.83301 18 10.5 20s23.5 3 53.5 3
c15.333 0 27.333 0.5 36 1.5s17 3.33301 25 7s13.667 8.16699 17 13.5s6.5 14 9.5 26s4.83301 24.667 5.5 38s1.33398 32 2.00098 56l3 97h-97c-64.667 0 -100.667 2.33301 -108 7c-8.66699 6 -12.667 21.5 -12 46.5s5.66699 41.5 15 49.5
c13.333 11.333 64.666 25.666 153.999 42.999z" />
    <glyph glyph-name="j" unicode="j" horiz-adv-x="414" 
d="M279 646c8 17.333 16.833 26.834 26.5 28.501s25.167 -3.83301 46.5 -16.5c12.667 -8 21 -15.667 25 -23s7.33301 -21.666 10 -42.999c2 -20 2.33301 -38.333 1 -55s1.33398 -47 8.00098 -91c6.66699 -45.333 9.16699 -94 7.5 -146s-6.83398 -94.667 -15.501 -128
c-11.333 -43.333 -39.333 -78.833 -84 -106.5s-100 -44.167 -166 -49.5c-36.667 -2.66699 -60.334 -3.33398 -71.001 -2.00098s-21.5 6.5 -32.5 15.5s-17.833 17.5 -20.5 25.5s-4 25.667 -4 53c0 23.333 1.33301 40.166 4 50.499s7.66699 19.833 15 28.5
c10.667 11.333 25.167 17.833 43.5 19.5s34.666 -1.33301 48.999 -9s21.5 -18.167 21.5 -31.5c0 -12 13 -15 39 -9c35.333 7.33301 62.333 23.666 81 48.999c3.33301 4.66699 6.33301 9.33398 9 14.001c8.66699 20 13.334 55.833 14.001 107.5
s-2.66602 112.834 -9.99902 183.501c-5.33301 47.333 -7.83301 78.166 -7.5 92.499s3.83301 28.5 10.5 42.5z" />
    <glyph glyph-name="k" unicode="k" horiz-adv-x="497" 
d="M23 559c9.33301 13.333 21.998 19.6689 37.998 19.002s31.667 -8.33398 47 -23.001c11.333 -10.667 18.333 -20.334 21 -29.001s4 -24 4 -46c0 -34 2.66699 -52.667 8 -56s16.333 2 33 16c42.667 34.667 83.667 57 123 67l73 20c17.333 4.66699 29 6.66699 35 6
s13 -4.66699 21 -12c11.333 -10.667 17 -20 17 -28c0 -10.667 -6 -23.334 -18 -38.001s-25 -25.334 -39 -32.001c-18 -8 -40.333 -20.333 -67 -37l-57 -34c-4.66699 -2.66699 -8.16699 -6.33398 -10.5 -11.001s-2.83301 -8.66699 -1.5 -12c2.66699 -6.66699 25 -21 67 -43
s73 -35.333 93 -40c12.667 -3.33301 28.667 -16.833 48 -40.5s29 -41.5 29 -53.5c0 -10 -7.66699 -22.5 -23 -37.5s-30.666 -24.833 -45.999 -29.5c-14.667 -5.33301 -29 -6.16602 -43 -2.49902s-21 9.5 -21 17.5c0 2.66699 -4.66699 7.66699 -14 15
s-21.166 15.5 -35.499 24.5l-41.5 26c-13.333 8.33301 -26 15.833 -38 22.5s-18 10.334 -18 11.001c-16.667 10 -28.167 11.333 -34.5 4s-7.5 -22.666 -3.5 -45.999c6.66699 -42 9 -72.5 7 -91.5s-9.33301 -32.833 -22 -41.5c-14.667 -9.33301 -32.667 -14.333 -54 -15
c-20 -0.666992 -34 4.83301 -42 16.5s-11.167 26.667 -9.5 45s2.5 38.5 2.5 60.5s-2 43.667 -6 65c-5.33301 19.333 -10 56.5 -14 111.5s-8.33301 94.833 -13 119.5c-12 66.667 -10.333 110.667 5 132z" />
    <glyph glyph-name="l" unicode="l" horiz-adv-x="484" 
d="M34 592c7.33301 8.66699 13.335 12.6689 18.002 12.002s12.667 -7 24 -19c18 -19.333 28.667 -41.5 32 -66.5s2 -79.167 -4 -162.5c-6.66699 -104.667 -8.33398 -161.334 -5.00098 -170.001c6.66699 -18 39.667 -17 99 3c34.667 12 80 18 136 18h84l25 -31
c14.667 -18 24.167 -36 28.5 -54s2.83301 -34 -4.5 -48c-4.66699 -8 -9.5 -12.833 -14.5 -14.5s-14.5 -1.16699 -28.5 1.5c-48.667 9.33301 -99.667 10.166 -153 2.49902s-101 -22.5 -143 -44.5c-26 -14 -46.833 -21 -62.5 -21s-28.334 8.16699 -38.001 24.5
s-15 42.166 -16 77.499s-0.833008 81.333 0.5 138c2 43.333 3.83301 86.833 5.5 130.5s2.66699 76.667 3 99s1 43.333 2 63s2.33301 33.834 4 42.501s4.16699 15 7.5 19z" />
    <glyph glyph-name="m" unicode="m" horiz-adv-x="613" 
d="M443 536c23.333 26 43.668 19.002 61.001 -20.998c11.333 -26 23 -68.667 35 -128l40 -202c11.333 -53.333 18.666 -98.333 21.999 -135c2 -24.667 2.16699 -40.667 0.5 -48s-6.83398 -14 -15.501 -20c-12.667 -9.33301 -24.167 -13.833 -34.5 -13.5
s-21.5 5.16602 -33.5 14.499c-8 6.66699 -14 18.167 -18 34.5s-9 49.833 -15 100.5c-7.33301 70 -14.333 118.5 -21 145.5s-14.334 40.5 -23.001 40.5c-8 0 -12 -2.66699 -12 -8c0 -7.33301 -13 -24.166 -39 -50.499s-45.667 -42.166 -59 -47.499
c-19.333 -8 -40.333 -8 -63 0s-40.334 21.667 -53.001 41c-14 20 -24 30 -30 30c-6.66699 0 -13.5 -21.833 -20.5 -65.5s-10.5 -85.167 -10.5 -124.5c0 -32 -1.16699 -51.5 -3.5 -58.5s-9.83301 -13.833 -22.5 -20.5c-17.333 -9.33301 -33 -14 -47 -14s-24.167 3 -30.5 9
s-10.166 17 -11.499 33s-1.83301 33.5 -1.5 52.5s-0.666992 46.167 -3 81.5s-6.5 71 -12.5 107c-8 49.333 -12 79.666 -12 90.999s3.66699 22.333 11 33c10.667 14.667 25.667 22 45 22c12.667 0 21.334 1.5 26.001 4.5s8.66699 10.5 12 22.5
c6.66699 20.667 12.5 34.667 17.5 42s12.167 11.666 21.5 12.999c10.667 2 25.5 -7.5 44.5 -28.5s30.5 -40.167 34.5 -57.5c3.33301 -15.333 13.333 -33 30 -53l25 -30l32 17c16.667 9.33301 36.834 29.666 60.501 60.999s39.834 59.333 48.501 84
c7.33301 20 15.666 35.333 24.999 46z" />
    <glyph glyph-name="n" unicode="n" horiz-adv-x="529" 
d="M63 452c10 -1.33301 19 1.83203 27 9.49902s15.167 15.834 21.5 24.501s11.5 13 15.5 13c7.33301 0 18.166 -6.5 32.499 -19.5s21.5 -22.833 21.5 -29.5c0 -6 6 -18.667 18 -38s37 -57 75 -113c20 -28.667 47.333 -61.5 82 -98.5s55.667 -55.5 63 -55.5
c6.66699 0 10 51.333 10 154c0 66.667 0.833008 110.167 2.5 130.5s5.83398 34.5 12.501 42.5l16 19l59 -49l-1 -226c-0.666992 -130 -4 -205.667 -10 -227c-5.33301 -17.333 -16 -27 -32 -29c-4.66699 -0.666992 -11.667 -1 -21 -1c-13.333 0 -23.5 2.16699 -30.5 6.5
s-16.167 13.833 -27.5 28.5c-36 47.333 -79.333 100.5 -130 159.5s-78.334 88.5 -83.001 88.5c-8 0 -12 -4.5 -12 -13.5s-4.66699 -55.5 -14 -139.5c-6 -54.667 -10.833 -90.167 -14.5 -106.5s-9.83398 -27.5 -18.501 -33.5c-24 -19.333 -45 -19 -63 1
c-10.667 11.333 -18.667 68.833 -24 172.5s-11.666 167.167 -18.999 190.5c-11.333 36.667 -12.166 70 -2.49902 100s25.167 43 46.5 39z" />
    <glyph glyph-name="o" unicode="o" horiz-adv-x="470" 
d="M443 230c0 -11.333 -5.83203 -25.666 -17.499 -42.999s-17.5 -27.666 -17.5 -30.999c0 -6 -21 -28.333 -63 -67c-52.667 -48.667 -97.334 -76 -134.001 -82s-71.667 8.33301 -105 43c-23.333 24.667 -35 40 -35 46c0 4.66699 -1.33301 9.83398 -4 15.501l-9 18.5
c-3.33301 6.66699 -7 20.334 -11 41.001s-6.66699 46.667 -8 78c-4 60.667 -9.66699 94 -17 100c-3.33301 3.33301 -6.33301 8.66602 -9 15.999s-3.66699 17.166 -3 29.499s3.16699 25.666 7.5 39.999s13.166 30.666 26.499 48.999s30.333 36.5 51 54.5
c17.333 14.667 31.5 24.667 42.5 30s24.5 8.33301 40.5 9c15.333 0 29.166 -1.33301 41.499 -4s25.833 -7 40.5 -13s25.667 -10.333 33 -13c21.333 -6 45.333 -22.333 72 -49s47.334 -55.334 62.001 -86.001c14.667 -30 24.834 -62.167 30.501 -96.5
s4.16699 -54.166 -4.5 -59.499c-6.66699 -4 -10 -12.667 -10 -26zM301.001 455c-18 12.667 -36.833 18.332 -56.5 16.999s-36.5 -9.33301 -50.5 -24c-20 -22 -33.833 -48.333 -41.5 -79s-10.5 -73 -8.5 -127c2 -64 6 -99.333 12 -106c16 -15.333 44.5 -9.16602 85.5 18.501
s73.833 63.167 98.5 106.5c20.667 36 27.5 71.667 20.5 107s-26.833 64.333 -59.5 87z" />
    <glyph glyph-name="p" unicode="p" horiz-adv-x="420" 
d="M180 696c44 5.33301 76.166 6.66992 96.499 4.00293s39.166 -11 56.499 -25c22.667 -17.333 41.334 -37 56.001 -59c10 -14 16 -27.333 18 -40s3 -38 3 -76c-0.666992 -36 -2.5 -62.333 -5.5 -79s-9.5 -35.334 -19.5 -56.001c-14.667 -32 -38.667 -63.667 -72 -95
s-66.666 -53.666 -99.999 -66.999c-23.333 -9.33301 -37.166 -16.333 -41.499 -21s-5.83301 -14.334 -4.5 -29.001c1.33301 -21.333 -5.66699 -41.333 -21 -60c-6.66699 -7.33301 -13.667 -13.833 -21 -19.5s-13 -8.5 -17 -8.5c-11.333 0 -23.333 7.16699 -36 21.5
s-19 28.166 -19 41.499c0 8 -3.16699 25.167 -9.5 51.5s-12.166 71.833 -17.499 136.5c-2.66699 28.667 -5.66699 63 -9 103c-6 61.333 -7 96 -3 104c2 4.66699 7.33301 10 16 16c2 1.33301 3.66699 2.33301 5 3c18 13.333 27 24.166 27 32.499s14.667 30.166 44 65.499
c17.333 20.667 31.166 34.834 41.499 42.501s21.166 12.167 32.499 13.5zM295.999 576.004c-12 15.333 -23 24.1699 -33 26.5029s-24.333 -0.833984 -43 -9.50098c-33.333 -14.667 -56.5 -35 -69.5 -61s-19.5 -64 -19.5 -114c0 -50.667 2 -79.334 6 -86.001
s14.333 -10 31 -10c18 0 42.833 16.5 74.5 49.5s52.167 64.167 61.5 93.5c10 30 14.5 51.667 13.5 65s-8.16699 28.666 -21.5 45.999z" />
    <glyph glyph-name="q" unicode="q" horiz-adv-x="563" 
d="M10 273c0 44.667 5.33301 87.8359 16 129.503s23.5 76.334 38.5 104.001s30.333 52 46 73s28.667 36.5 39 46.5s16.166 15 17.499 15c12 0 30.167 -8 54.5 -24s40.833 -30.667 49.5 -44c4.66699 -8 10.5 -15 17.5 -21s12.833 -9 17.5 -9c24.667 0 53.5 -17.667 86.5 -53
s54.167 -71.333 63.5 -108c4 -16.667 5.83301 -31.334 5.5 -44.001s-3.16602 -30 -8.49902 -52c-9.33301 -36 -18 -58.667 -26 -68c-4.66699 -6 -5.33398 -11.833 -2.00098 -17.5s13.333 -15.834 30 -30.501c26 -22.667 42.5 -34 49.5 -34s16.833 -8.83301 29.5 -26.5
s19 -31.834 19 -42.501c0 -12 -7.66699 -24.333 -23 -37s-32 -20.334 -50 -23.001c-13.333 -2.66699 -24.833 -1.5 -34.5 3.5s-27.5 18.833 -53.5 41.5l-58 50l-40 -30c-26.667 -20.667 -51.167 -34.5 -73.5 -41.5s-46.166 -8.83301 -71.499 -5.5
c-44 6.66699 -78.167 31.667 -102.5 75s-36.5 101 -36.5 173zM326 410.002c-14 16.667 -26.332 25.001 -36.999 25.001s-29 -8.33301 -55 -25c-15.333 -10 -27.833 -17.667 -37.5 -23s-18 -9.33301 -25 -12s-12.5 -5.33398 -16.5 -8.00098
c-10.667 -5.33301 -19.5 -23.333 -26.5 -54s-10.167 -61.667 -9.5 -93s5.66699 -50.666 15 -57.999c6 -4.66699 11.667 -6.66699 17 -6s15 5 29 13c16 9.33301 25.333 17.333 28 24s4 25 4 55c0 40.667 3.33301 64.834 10 72.501s26 9.83398 58 6.50098
c25.333 -2 40.833 -2.33301 46.5 -1s10.5 7.66602 14.5 18.999c6 15.333 8.16699 26.166 6.5 32.499s-8.83398 17.166 -21.501 32.499z" />
    <glyph glyph-name="r" unicode="r" horiz-adv-x="553" 
d="M100 609c17.333 11.333 55.8291 16.5 115.496 15.5s101.167 -7.5 124.5 -19.5c21.333 -10.667 41 -28 59 -52s29 -47.333 33 -70c3.33301 -19.333 -2.66699 -46.5 -18 -81.5s-34.333 -65.5 -57 -91.5c-18.667 -21.333 -26 -36.5 -22 -45.5s20.333 -13.5 49 -13.5
c48.667 0 87.334 -7.66699 116.001 -23s43 -36 43 -62c0 -14.667 -13.833 -27.334 -41.5 -38.001s-60.5 -16.667 -98.5 -18s-76.667 1.66699 -116 9c-19.333 4.66699 -32.166 6 -38.499 4s-17.166 -10.667 -32.499 -26c-9.33301 -8.66699 -19 -16.167 -29 -22.5
s-17.667 -9.5 -23 -9.5c-12 0 -24.167 6 -36.5 18s-18.5 24 -18.5 36c0 10.667 -2.5 17.5 -7.5 20.5s-9.16699 42.5 -12.5 118.5c-3.33301 61.333 -8.33301 104.333 -15 129s-19.334 44.334 -38.001 59.001s-27.167 32.667 -25.5 54s12.834 42 33.501 62
c22.667 21.333 41.334 37 56.001 47zM289.996 478c-10 7.33301 -25.833 11.1689 -47.5 11.502s-36.167 -2.83398 -43.5 -9.50098c-4 -4.66699 -7 -17 -9 -37s-2.33301 -39.167 -1 -57.5s4.33301 -27.5 9 -27.5c8.66699 0 25.167 10.167 49.5 30.5s39.833 37.166 46.5 50.499
c6 12.667 8.83301 21 8.5 25s-4.5 8.66699 -12.5 14z" />
    <glyph glyph-name="s" unicode="s" horiz-adv-x="444" 
d="M110.5 508c7.66699 0 20.3359 5.83496 38.0029 17.502s29.167 17.5 34.5 17.5c8 0 20.667 7.33301 38 22c26.667 22 53.334 27.333 80.001 16s40 -33.333 40 -66c0 -14.667 -6.33301 -31.334 -19 -50.001s-24 -28 -34 -28c-10.667 0 -23.334 -6.33301 -38.001 -19
c-6 -4.66699 -8 -8 -6 -10l40.5 -22.5l33 -18c7.66699 -4.33301 17.167 -10.833 28.5 -19.5s23 -19.334 35 -32.001c14.667 -14.667 25.167 -28 31.5 -40s11.5 -28 15.5 -48c4.66699 -22 6.66699 -37.333 6 -46s-4.33398 -19 -11.001 -31c-14 -22.667 -46.167 -46 -96.5 -70
s-105.5 -41.667 -165.5 -53c-34 -6.66699 -56 -5.5 -66 3.5s-14.667 32.5 -14 70.5c0.666992 36 4.16699 57 10.5 63s26.166 11.333 59.499 16c30 4 58.833 11.5 86.5 22.5s41.5 20.5 41.5 28.5c0 15.333 -30 26.333 -90 33c-51.333 5.33301 -89.333 12 -114 20
s-41.834 19.5 -51.501 34.5s-14.167 36.833 -13.5 65.5c0.666992 26 5 47.167 13 63.5s18 24.5 30 24.5c4.66699 0 13.5 5.83301 26.5 17.5s23.333 17.5 31 17.5z" />
    <glyph glyph-name="t" unicode="t" horiz-adv-x="521" 
d="M257 552c14 4 46.166 4.83203 96.499 2.49902s84.833 -6.16602 103.5 -11.499c17.333 -5.33301 30.5 -12.833 39.5 -22.5s13.833 -19.334 14.5 -29.001s-0.166016 -19.167 -2.49902 -28.5s-5 -16.666 -8 -21.999s-4.83301 -8.33301 -5.5 -9
c-5.33301 -3.33301 -29.333 -8.66602 -72 -15.999l-64 -11l3 -61c1.33301 -21.333 5.16602 -54.166 11.499 -98.499s9.16602 -79.333 8.49902 -105s-7 -45.834 -19 -60.501c-11.333 -14 -25.166 -21.667 -41.499 -23s-32.166 4 -47.499 16c-10 8 -16.333 19.833 -19 35.5
s-5.33398 58.167 -8.00098 127.5c-4 97.333 -7.66699 149.333 -11 156c-4.66699 8 -18.334 7.66699 -41.001 -1s-48 -19.334 -76 -32.001s-48.333 -19 -61 -19c-21.333 0 -36 13.5 -44 40.5s-5.66699 55.5 7 85.5c5.33301 13.333 12.833 23 22.5 29s29.834 14 60.501 24
c40.667 14 74.834 22.5 102.501 25.5s44.5 5.5 50.5 7.5z" />
    <glyph glyph-name="u" unicode="u" horiz-adv-x="335" 
d="M247 547c14 9.33301 23.5 13.3281 28.5 11.9951s13.833 -10.666 26.5 -27.999c5.33301 -6.66699 9.33301 -12.334 12 -17.001s4.83398 -10.167 6.50098 -16.5s2.66699 -13.166 3 -20.499s0.666016 -17.333 0.999023 -30s0.166016 -27.5 -0.500977 -44.5
s-0.666992 -38.5 0 -64.5c0.666992 -49.333 -2.66602 -83.833 -9.99902 -103.5s-27.333 -47.834 -60 -84.501c-32 -36 -58.833 -61.5 -80.5 -76.5s-41.5 -20.5 -59.5 -16.5s-33.667 17.667 -47 41s-27 58.333 -41 105c-10.667 35.333 -16 94.333 -16 177v124l30 2
c19.333 2 36.333 -3.66699 51 -17c10 -9.33301 16 -20.166 18 -32.499s3 -45.166 3 -98.499c0 -74 4 -115 12 -123c6.66699 -6.66699 19.667 -3.66699 39 9c18.667 12 28 21.333 28 28s6 17.334 18 32.001c8 10 13 22.333 15 37s3 44.334 3 89.001c0 48 1 77.833 3 89.5
s7.66699 20.834 17 27.501z" />
    <glyph glyph-name="v" unicode="v" horiz-adv-x="419" 
d="M261 247c0 8.66699 5.83203 40 17.499 94s17.5 96.667 17.5 128c0 35.333 4.66699 59.666 14 72.999c10 13.333 19.5 19 28.5 17s22.833 -13 41.5 -33c17.333 -19.333 26.833 -35.5 28.5 -48.5s-3.16602 -35.167 -14.499 -66.5c-4 -10.667 -9.83301 -45.167 -17.5 -103.5
s-15.167 -97.833 -22.5 -118.5c-8.66699 -25.333 -13 -46 -13 -62c0 -48 -12.667 -80.667 -38 -98c-11.333 -8.66699 -22.166 -13.167 -32.499 -13.5s-19.166 2.33398 -26.499 8.00098s-14.5 13.334 -21.5 23.001s-13 19.5 -18 29.5s-10.667 20.667 -17 32
s-11.833 20 -16.5 26c-4.66699 5.33301 -28.334 43.5 -71.001 114.5s-68 111.167 -76 120.5c-10.667 12 -15.334 31.333 -14.001 58s7.66602 45.667 18.999 57c8 7.33301 14.333 11.5 19 12.5s8.33398 -0.166992 11.001 -3.5s7.5 -7.33301 14.5 -12s14.833 -8 23.5 -10
c7.33301 -1.33301 12.333 -3.83301 15 -7.5s5.66699 -11.667 9 -24s7.33301 -23.5 12 -33.5l26 -57c14 -32.667 36.333 -71.334 67 -116.001c8.66699 -12 16.667 -16.5 24 -13.5s11 12.167 11 27.5z" />
    <glyph glyph-name="w" unicode="w" horiz-adv-x="629" 
d="M526 470c9.33301 18 19.501 27.1699 30.501 27.5029s24.833 -7.83398 41.5 -24.501c12 -12.667 18.667 -22 20 -28s-0.333984 -16.667 -5.00098 -32c-7.33301 -20.667 -9.83301 -46 -7.5 -76s4 -62.333 5 -97s1.5 -67 1.5 -97s-5.5 -54.833 -16.5 -74.5
s-27.833 -29.5 -50.5 -29.5c-18 0 -43.833 10.167 -77.5 30.5s-66.167 45.166 -97.5 74.499c-27.333 26.667 -43 38 -47 34s-10.167 -17 -18.5 -39s-14.833 -42.333 -19.5 -61c-5.33301 -20 -10.333 -32.833 -15 -38.5s-15 -9.83398 -31 -12.501
c-34.667 -6.66699 -61.667 8.33301 -81 45l-63 122c-33.333 64.667 -55.833 103 -67.5 115s-17.5 33.667 -17.5 65c0 28.667 3 49.334 9 62.001s16 19 30 19c11.333 0 25.333 -5.83301 42 -17.5s25 -21.5 25 -29.5c0.666992 -10 16.334 -46.667 47.001 -110
c27.333 -56 44.333 -81.333 51 -76c3.33301 2.66699 10.5 27 21.5 73s21.167 73.667 30.5 83c7.33301 7.33301 13 11.166 17 11.499s10.667 -2.5 20 -8.5c13.333 -10 38 -36 74 -78c26.667 -32.667 51.667 -58.5 75 -77.5s39.333 -27.167 48 -24.5
c5.33301 2 8.16602 21.5 8.49902 58.5s1.33301 77.667 3 122s6.5 73.833 14.5 88.5z" />
    <glyph glyph-name="x" unicode="x" horiz-adv-x="445" 
d="M210 419c6 0 20.3281 16.333 42.9951 49s35.667 49 39 49c18.667 0 38.334 -13.667 59.001 -41l23 -30l-17 -38c-11.333 -24.667 -21.666 -41 -30.999 -49c-12 -10 -15.667 -21.333 -11 -34s19.667 -31.334 45 -56.001c36.667 -36 60.167 -69.5 70.5 -100.5
s5.83301 -55.167 -13.5 -72.5c-8 -6.66699 -14.167 -10.167 -18.5 -10.5s-11.833 2.16699 -22.5 7.5s-35.667 27.166 -75 65.499s-63.333 57.5 -72 57.5c-8 0 -21.5 -16.667 -40.5 -50s-28.5 -57.333 -28.5 -72c0 -10.667 -8.66699 -24.334 -26 -41.001l-26 -26l-29 18
c-13.333 8 -21.5 15.167 -24.5 21.5s-4.16699 19.5 -3.5 39.5c0.666992 25.333 7.83398 52.5 21.501 81.5s27.334 54 41.001 75s20.5 34.167 20.5 39.5c0 6.66699 -20.667 33 -62 79c-27.333 30.667 -44.5 51.834 -51.5 63.501s-10.5 25.167 -10.5 40.5
c0 22.667 4.66699 39.334 14 50.001c13.333 14.667 27.333 18.834 42 12.501s38 -26.833 70 -61.5c16.667 -18 32.334 -33.667 47.001 -47s23.667 -20 27 -20z" />
    <glyph glyph-name="y" unicode="y" horiz-adv-x="365" 
d="M21 674c6 6.66699 11.6699 9.99805 17.0029 9.99805s16.333 -3.66699 33 -11c14 -5.33301 29.5 -17.666 46.5 -36.999s25.5 -34 25.5 -44c0 -6.66699 10.333 -19.834 31 -39.501s32.667 -27.667 36 -24s13.333 21.167 30 52.5c15.333 28.667 29.5 44.667 42.5 48
s28.5 -4.66699 46.5 -24c13.333 -14 21.166 -26.333 23.499 -37s0.833008 -25 -4.5 -43s-18 -49.667 -38 -95c-11.333 -25.333 -17 -50.833 -17 -76.5s-4.66699 -42.167 -14 -49.5c-5.33301 -4.66699 -8.5 -16 -9.5 -34s-0.166992 -58 2.5 -120
c2.66699 -68 3.33398 -109.5 2.00098 -124.5s-6 -26.167 -14 -33.5c-12 -10.667 -26 -15 -42 -13c-20.667 2 -35.834 16.5 -45.501 43.5s-16.834 75.833 -21.501 146.5c-10.667 148.667 -18.334 231.667 -23.001 249c-3.33301 12 -12 27.667 -26 47l-61 84
c-12 16 -20.167 29.333 -24.5 40s-6.5 23.334 -6.5 38.001c0 24.667 3.66699 40.334 11 47.001z" />
    <glyph glyph-name="z" unicode="z" horiz-adv-x="569" 
d="M98 297c0 3.33301 13.3369 25.167 40.0039 65.5s40 61.833 40 64.5c0 5.33301 6 13 18 23c10 9.33301 15.5 18.333 16.5 27s-2.83301 14.667 -11.5 18c-16 6 -43.667 -8 -83 -42c-18 -15.333 -33.333 -23.333 -46 -24s-26 6.33301 -40 21c-14.667 14.667 -22 35 -22 61
c0 13.333 1.66699 24.833 5 34.5s9 18 17 25s15.333 12.5 22 16.5s16.667 9.16699 30 15.5s24 11.833 32 16.5c14.667 8.66699 29.5 13 44.5 13s26.833 2.66699 35.5 8c14 10 30.667 12.5 50 7.5s37.666 -13.5 54.999 -25.5s32.166 -27.667 44.499 -47
s18.5 -38.333 18.5 -57c0 -11.333 -9 -35 -27 -71s-38.667 -71.667 -62 -107c-12 -18.667 -21.833 -36.667 -29.5 -54s-10.167 -26.666 -7.5 -27.999c4.66699 -2.66699 23.5 -1.33398 56.5 3.99902s66.333 9.66602 100 12.999s66.167 0 97.5 -10
c19.333 -7.33301 35.333 -17 48 -29s19 -23.333 19 -34c0 -7.33301 -5.33301 -17.333 -16 -30c-8.66699 -10.667 -21.5 -17.334 -38.5 -20.001s-39.333 -5 -67 -7s-52.834 -6.66699 -75.501 -14c-28.667 -9.33301 -62.334 -17.166 -101.001 -23.499s-73 -9.83301 -103 -10.5
c-33.333 0 -56 5.83301 -68 17.5s-20 35.834 -24 72.501c-2.66699 23.333 -3.16699 39.5 -1.5 48.5s6.5 18.833 14.5 29.5c12.667 16 19 26.667 19 32z" />
    <glyph glyph-name="braceleft" unicode="{" horiz-adv-x="327" 
d="M147 682l27.5029 40c7 10 14.167 19.333 21.5 28s13 15.167 17 19.5s8.83301 7.33301 14.5 9s9.83398 2.5 12.501 2.5s7.16699 -2 13.5 -6s11.166 -7.5 14.499 -10.5s9.33301 -8.83301 18 -17.5c14 -13.333 23.167 -23.333 27.5 -30s4.83301 -12.334 1.5 -17.001l-42 -62
c-22.667 -32.667 -34 -53 -34 -61c0 -10.667 5 -24.667 15 -42s19 -27.666 27 -30.999c10 -4 13 -17.333 9 -40s-13 -44.667 -27 -66c-16 -22.667 -24 -41.667 -24 -57c0 -11.333 -3 -27.5 -9 -48.5s-12 -36.167 -18 -45.5c-42.667 -66.667 -59 -105.667 -49 -117
c1.33301 -2 3.33301 -3 6 -3c6 0 19.333 -7.66699 40 -23c12.667 -9.33301 21.167 -19.166 25.5 -29.499s4.83301 -19.833 1.5 -28.5s-9.33301 -16.667 -18 -24s-20.834 -13 -36.501 -17s-33.167 -6 -52.5 -6c-31.333 0 -54.5 4.5 -69.5 13.5s-27.833 25.833 -38.5 50.5
c-9.33301 22 -12.666 41.667 -9.99902 59s12.334 43.666 29.001 78.999c14 28 21.833 46.167 23.5 54.5s-0.5 14.833 -6.5 19.5c-12.667 9.33301 -23.834 25.333 -33.501 48s-13.834 42 -12.501 58s7.16602 28.333 17.499 37s33.166 21 68.499 37c12 5.33301 20 13 24 23
s3 20 -3 30c-7.33301 12 -11 34 -11 66c0 21.333 2.16699 38 6.5 50s15.5 31.333 33.5 58z" />
    <glyph glyph-name="bar" unicode="|" 
 />
    <glyph glyph-name="braceright" unicode="}" horiz-adv-x="321" 
d="M14 655c3.33301 8.66699 7.50195 14.3311 12.502 16.998s14.167 4 27.5 4c26 0 59.333 -3.83301 100 -11.5s64.667 -14.5 72 -20.5c9.33301 -8 17.5 -12 24.5 -12s16.5 -13.333 28.5 -40c10 -23.333 13.167 -41.166 9.5 -53.499s-19.5 -34.166 -47.5 -65.499
c-20 -22.667 -30 -39.334 -30 -50.001s9.66699 -18 29 -22c19.333 -3.33301 36.666 -13.666 51.999 -30.999c10 -11.333 16 -21 18 -29s1.66699 -21.667 -1 -41c-5.33301 -47.333 -6.5 -83.5 -3.5 -108.5s3.66699 -47 2 -66s-8.5 -37.167 -20.5 -54.5
c-33.333 -46.667 -84.666 -76.667 -153.999 -90c-29.333 -5.33301 -48.5 -7.83301 -57.5 -7.5s-20.167 4.83301 -33.5 13.5c-12 8 -19.833 15.167 -23.5 21.5s-5.5 16.5 -5.5 30.5c0 18.667 5.33301 33.667 16 45s24.667 17 42 17c18 0 42.667 8 74 24s49 29.667 53 41
c8 21.333 7.5 40.833 -1.5 58.5s-22.833 26.5 -41.5 26.5c-15.333 0 -31.666 8.66699 -48.999 26c-11.333 12.667 -18.333 24 -21 34s-3.66699 32.667 -3 68c0.666992 34 2.5 57.167 5.5 69.5s10.833 27.5 23.5 45.5c18 27.333 25.167 43.833 21.5 49.5
s-19.834 8.5 -48.501 8.5s-46.334 4.33301 -53.001 13c-8.66699 10.667 -14.834 25.5 -18.501 44.5s-3.16699 34.167 1.5 45.5z" />
    <glyph glyph-name="asciitilde" unicode="~" horiz-adv-x="651" 
d="M228 242c-24.667 0 -47.667 -5.49805 -69 -16.498s-38.166 -23.167 -50.499 -36.5l-35 -36.5c-11 -11 -19.167 -16.5 -24.5 -16.5c-11.333 0 -20.666 8.5 -27.999 25.5s-11 37.833 -11 62.5c0 22.667 2 38.5 6 47.5s16 23.5 36 43.5c17.333 18 30.166 29.667 38.499 35
s17 9 26 11s19.167 6.66699 30.5 14c20.667 12.667 46.667 18.667 78 18s57.333 -8.33398 78 -23.001c14.667 -10 31.5 -26.667 50.5 -50s28.5 -39.333 28.5 -48c0.666992 -4.66699 9.33398 -17 26.001 -37l26 -31l67 61c44.667 41.333 71.667 68.666 81 81.999
c15.333 24 29.666 28 42.999 12c14 -16 19 -44 15 -84c-2 -27.333 -6.33301 -46.333 -13 -57s-28.334 -34.667 -65.001 -72s-65 -63 -85 -77s-37.667 -21 -53 -21c-8.66699 0 -21.834 8.66699 -39.501 26s-31.5 35 -41.5 53l-35.5 66c-7 12.667 -15.167 23.5 -24.5 32.5
s-17.166 14 -23.499 15s-16.833 1.5 -31.5 1.5z" />
    <glyph glyph-name="cent" unicode="&#xa2;" 
 />
    <glyph glyph-name="sterling" unicode="&#xa3;" horiz-adv-x="542" 
d="M342 630c29.333 18 58.9932 26.998 88.9932 26.998c26.667 0.666992 43.834 -2.5 51.501 -9.5s14.834 -25.167 21.501 -54.5c6 -31.333 4.66699 -53.333 -4 -66s-27.334 -19 -56.001 -19c-15.333 0 -27.166 -1.16699 -35.499 -3.5s-13.833 -5.16602 -16.5 -8.49902
s-7 -7.33301 -13 -12s-13.667 -8.66699 -23 -12s-14.833 -7.5 -16.5 -12.5s-1.5 -14.167 0.5 -27.5c3.33301 -21.333 9.66602 -39 18.999 -53c6 -9.33301 13 -15.166 21 -17.499s24.667 -3.5 50 -3.5c24 0 40.167 -1.16699 48.5 -3.5s14.5 -7.5 18.5 -15.5
c6 -12 7.33301 -26.667 4 -44c-2.66699 -10.667 -7.5 -19 -14.5 -25s-19.833 -13.333 -38.5 -22c-30.667 -14 -47.667 -26 -51 -36c-7.33301 -17.333 -3 -31.5 13 -42.5s36 -14.167 60 -9.5c18.667 4 33.834 -0.166992 45.501 -12.5s17.167 -28.333 16.5 -48
s-7.66699 -38.167 -21 -55.5c-11.333 -13.333 -27.166 -21.166 -47.499 -23.499s-68.166 -1.83301 -143.499 1.5c-27.333 1.33301 -47.666 0.833008 -60.999 -1.5s-27.666 -7.5 -42.999 -15.5c-24.667 -12.667 -41.5 -19 -50.5 -19s-24.5 -6 -46.5 -18
c-72.667 -38.667 -109 -16.334 -109 66.999c0 26 1.5 42.833 4.5 50.5s11.167 16.5 24.5 26.5c19.333 14 34 22.667 44 26c10.667 4.66699 15.5 10.167 14.5 16.5s-7.83301 11.833 -20.5 16.5c-21.333 8 -32 40.667 -32 98c0 19.333 3.66699 32.5 11 39.5s23 12.5 47 16.5
l50.5 8.5c13.667 2.33301 25.667 5 36 8s18.166 5.83301 23.499 8.5s9.33301 5.66699 12 9s3.83398 6.83301 3.50098 10.5s-2.16602 8.16699 -5.49902 13.5c-7.33301 14.667 -10 35 -8 61s8.66699 51 20 75c12 26.667 24.833 47 38.5 61s36.5 30.667 68.5 50z
M248.993 189.998c0 4 -5.83301 6.16504 -17.5 6.49805s-24.5 -1.16699 -38.5 -4.5c-7.33301 -2 -12 -4.66699 -14 -8s-1.16699 -6.16602 2.5 -8.49902s9.5 -3.5 17.5 -3.5c14 0 25.833 1.83301 35.5 5.5s14.5 7.83398 14.5 12.501z" />
    <glyph glyph-name="section" unicode="&#xa7;" 
 />
    <glyph glyph-name="guillemotleft" unicode="&#xab;" horiz-adv-x="660" 
d="M395 404c12 13.333 23.668 17.501 35.001 12.501s25.333 -20.167 42 -45.5l32 -49h57c26 0 43 -1.16699 51 -3.5s16.333 -8.83301 25 -19.5c8 -10.667 12.167 -19 12.5 -25s-1.66699 -13.167 -6 -21.5s-6.5 -16.833 -6.5 -25.5c0 -15.333 -9.83301 -27 -29.5 -35
s-51.834 -13.667 -96.501 -17c-40 -2.66699 -65.5 -3.16699 -76.5 -1.5s-25.5 8.5 -43.5 20.5c-16.667 10.667 -27.167 19.5 -31.5 26.5s-6.83301 18.5 -7.5 34.5c-1.33301 29.333 -1 50.166 1 62.499s6.66699 22.833 14 31.5c8.66699 10 13 18.833 13 26.5
s5 17.167 15 28.5zM142.001 444.001c10 17.333 18.999 26.334 26.999 27.001s20 -6.66602 36 -21.999c11.333 -10.667 18.333 -20.334 21 -29.001s4 -24.334 4 -47.001c0 -26 -3.5 -46.833 -10.5 -62.5s-22.167 -37.167 -45.5 -64.5
c-16 -19.333 -18.167 -34.666 -6.5 -45.999s35.834 -17.666 72.501 -18.999c20.667 0 36.667 -4.33301 48 -13c8.66699 -6.66699 12.667 -12.334 12 -17.001s-6 -17 -16 -37c-14 -26 -28 -42.5 -42 -49.5s-40 -10.167 -78 -9.5c-44.667 0.666992 -75.5 4.16699 -92.5 10.5
s-31.167 19.833 -42.5 40.5c-10 17.333 -16.167 41.166 -18.5 71.499s0.5 47.833 8.5 52.5c2 1.33301 10.167 12 24.5 32s29.5 43.333 45.5 70s25.667 47 29 61c4 14.667 12 31.667 24 51z" />
    <glyph glyph-name="guillemotright" unicode="&#xbb;" horiz-adv-x="497" 
d="M20 411c17.333 31.333 56.999 21.002 118.999 -30.998c38 -32.667 58.5 -49 61.5 -49s6.5 11 10.5 33c4.66699 25.333 10.167 42.333 16.5 51s16.833 13 31.5 13c10 0 18.333 -2 25 -6s12 -9.16699 16 -15.5s12.167 -14.5 24.5 -24.5s27.5 -19.333 45.5 -28
c31.333 -15.333 57.5 -35.833 78.5 -61.5s33.5 -52.167 37.5 -79.5c3.33301 -26.667 -2.66699 -55.834 -18 -87.501s-39.333 -63.5 -72 -95.5c-26.667 -26.667 -47.5 -41 -62.5 -43s-25.833 8 -32.5 30c-12.667 44 0 85.667 38 125c10 10 17 17.667 21 23
s6.83301 10.833 8.5 16.5s-0.5 11 -6.5 16s-13.167 10 -21.5 15s-21.5 11.833 -39.5 20.5c-28 14 -46.5 20.833 -55.5 20.5s-13.5 -7.83301 -13.5 -22.5c0 -16 -7.16699 -36.833 -21.5 -62.5s-30.166 -45.167 -47.499 -58.5c-19.333 -16.667 -36.333 -25.5 -51 -26.5
s-24.667 5.83301 -30 20.5s-11 23.667 -17 27c-5.33301 3.33301 -6.5 12.833 -3.5 28.5s9.5 32.5 19.5 50.5c6.66699 12 9.5 20.167 8.5 24.5s-7.5 11.166 -19.5 20.499c-26 21.333 -43.833 46.833 -53.5 76.5s-8.5 56.167 3.5 79.5z" />
    <glyph glyph-name="questiondown" unicode="&#xbf;" 
 />
    <glyph glyph-name="Agrave" unicode="&#xc0;" 
 />
    <glyph glyph-name="Aacute" unicode="&#xc1;" 
 />
    <glyph glyph-name="Acircumflex" unicode="&#xc2;" 
 />
    <glyph glyph-name="Adieresis" unicode="&#xc4;" 
 />
    <glyph glyph-name="Ccedilla" unicode="&#xc7;" 
 />
    <glyph glyph-name="Egrave" unicode="&#xc8;" 
 />
    <glyph glyph-name="Eacute" unicode="&#xc9;" 
 />
    <glyph glyph-name="Ecircumflex" unicode="&#xca;" 
 />
    <glyph glyph-name="Edieresis" unicode="&#xcb;" 
 />
    <glyph glyph-name="Icircumflex" unicode="&#xce;" 
 />
    <glyph glyph-name="Idieresis" unicode="&#xcf;" 
 />
    <glyph glyph-name="Ntilde" unicode="&#xd1;" 
 />
    <glyph glyph-name="Oacute" unicode="&#xd3;" 
 />
    <glyph glyph-name="Ocircumflex" unicode="&#xd4;" horiz-adv-x="51" 
d="M10 310c0 6.66699 3.50098 10.832 10.501 12.499s13.167 -0.166016 18.5 -5.49902c4 -4 2.66699 -10 -4 -18s-12.334 -10.333 -17.001 -7c-5.33301 2.66699 -8 8.66699 -8 18z" />
    <glyph glyph-name="Odieresis" unicode="&#xd6;" 
 />
    <glyph glyph-name="Ugrave" unicode="&#xd9;" 
 />
    <glyph glyph-name="Uacute" unicode="&#xda;" 
 />
    <glyph glyph-name="Ucircumflex" unicode="&#xdb;" 
 />
    <glyph glyph-name="Udieresis" unicode="&#xdc;" 
 />
    <glyph glyph-name="germandbls" unicode="&#xdf;" 
 />
    <glyph glyph-name="agrave" unicode="&#xe0;" 
 />
    <glyph glyph-name="aacute" unicode="&#xe1;" 
 />
    <glyph glyph-name="acircumflex" unicode="&#xe2;" 
 />
    <glyph glyph-name="adieresis" unicode="&#xe4;" 
 />
    <glyph glyph-name="ccedilla" unicode="&#xe7;" 
 />
    <glyph glyph-name="egrave" unicode="&#xe8;" 
 />
    <glyph glyph-name="eacute" unicode="&#xe9;" 
 />
    <glyph glyph-name="ecircumflex" unicode="&#xea;" 
 />
    <glyph glyph-name="edieresis" unicode="&#xeb;" 
 />
    <glyph glyph-name="icircumflex" unicode="&#xee;" 
 />
    <glyph glyph-name="idieresis" unicode="&#xef;" 
 />
    <glyph glyph-name="oacute" unicode="&#xf3;" 
 />
    <glyph glyph-name="ocircumflex" unicode="&#xf4;" horiz-adv-x="69" 
d="M10 627c0 12 5.99512 16 17.9951 12c7.33301 -2.66699 14.333 -7.66699 21 -15c8.66699 -10 11.834 -21.5 9.50098 -34.5s-8.83301 -19.5 -19.5 -19.5c-5.33301 0 -8.16602 0.833008 -8.49902 2.5s1.83398 5.16699 6.50098 10.5c6 7.33301 7.33301 14.333 4 21
s-9.66602 10 -18.999 10c-3.33301 0 -6.16602 1.33301 -8.49902 4s-3.5 5.66699 -3.5 9z" />
    <glyph glyph-name="odieresis" unicode="&#xf6;" 
 />
    <glyph glyph-name="ugrave" unicode="&#xf9;" 
 />
    <glyph glyph-name="uacute" unicode="&#xfa;" 
 />
    <glyph glyph-name="ucircumflex" unicode="&#xfb;" 
 />
    <glyph glyph-name="udieresis" unicode="&#xfc;" 
 />
    <glyph glyph-name="eogonek" unicode="&#x119;" 
 />
    <glyph glyph-name="quotedblleft" unicode="&#x201c;" horiz-adv-x="271" 
d="M42 581c0 14.667 7.33496 34.168 22.002 58.501s25 36.5 31 36.5c5.33301 0 17 -11 35 -33l27 -33l44 53l32 -36c15.333 -17.333 24.166 -30 26.499 -38s2.16602 -26 -0.500977 -54c-10 -105.333 -26.667 -158 -50 -158c-8.66699 0 -19 7.33301 -31 22
c-10 12 -16.167 27.5 -18.5 46.5s-3.66602 35.667 -3.99902 50s-2.83301 22.833 -7.5 25.5c-4.66699 3.33301 -9.83398 1.33301 -15.501 -6s-10.667 -18.333 -15 -33s-7.16602 -30.334 -8.49902 -47.001c-2.66699 -34.667 -7.33398 -56 -14.001 -64
c-12 -14.667 -27.167 -18 -45.5 -10s-31.166 23.667 -38.499 47c-2.66699 10.667 -0.833984 35 5.49902 73s12.5 60.333 18.5 67c4.66699 5.33301 7 16.333 7 33z" />
    <glyph glyph-name="quotedblbase" unicode="&#x201e;" horiz-adv-x="257" 
d="M45 85c8.66699 16.667 15.3379 24.9971 20.0049 24.9971c6 0 16.333 -9.16699 31 -27.5s23.667 -33.166 27 -44.499c5.33301 -16 11.666 -19.667 18.999 -11c6 6 10 16.333 12 31c4.66699 28 11.667 44.667 21 50s22 -0.666992 38 -18c15.333 -16 25.333 -33.5 30 -52.5
s5.66699 -43.833 3 -74.5c-2.66699 -24 -5.83398 -40.5 -9.50098 -49.5s-9.83398 -16.5 -18.501 -22.5c-14.667 -9.33301 -26.667 -11.166 -36 -5.49902s-17 19.834 -23 42.501c-6.66699 22.667 -14.667 36 -24 40c-4 2 -6.33301 0 -7 -6
c-0.666992 -1.33301 -1 -2.66602 -1 -3.99902c0 -13.333 -8.66699 -34.833 -26 -64.5s-31.333 -46.834 -42 -51.501c-13.333 -6.66699 -23.333 -6.5 -30 0.5s-12.334 22.833 -17.001 47.5c-4 21.333 -2.33301 53.833 5 97.5s16.666 76.167 27.999 97.5z" />
    <glyph glyph-name="bullet" unicode="&#x2022;" 
 />
    <glyph glyph-name="Euro" unicode="&#x20ac;" horiz-adv-x="524" 
d="M320 618c4.66699 2 12.166 5.83105 22.499 11.498l27 14.5c7.66699 4 13.5 6 17.5 6c6 0 15.167 -6.66699 27.5 -20s21.833 -26.666 28.5 -39.999c6.66699 -16 9.83398 -32.667 9.50098 -50s-4.33301 -31.833 -12 -43.5s-16.5 -15.5 -26.5 -11.5
c-8 2.66699 -19.667 1.16699 -35 -4.5s-23 -11.5 -23 -17.5c0 -3.33301 2.83301 -5.66602 8.5 -6.99902s12.834 -1.33301 21.501 0s16.334 4 23.001 8c12 6.66699 28.333 5.16699 49 -4.5s35 -22.834 43 -39.501c10 -18 14.333 -31.333 13 -40s-9 -19.334 -23 -32.001
c-12.667 -12 -25.834 -20.5 -39.501 -25.5s-41.167 -11.167 -82.5 -18.5c-70 -12.667 -111.667 -24.667 -125 -36c-16 -13.333 -11.333 -20 14 -20c11.333 0 26 1.33301 44 4c22.667 4 38.834 5.66699 48.501 5s19.167 -4 28.5 -10
c5.33301 -3.33301 10.166 -8.16602 14.499 -14.499s6.5 -12.166 6.5 -17.499c0 -12.667 -6.16699 -29 -18.5 -49s-22.5 -30 -30.5 -30c-8.66699 0 -23.334 -6.16699 -44.001 -18.5s-31 -21.166 -31 -26.499s14 -8 42 -8c38 0 60.333 -9.83301 67 -29.5s-4 -44.167 -32 -73.5
c-18.667 -20 -38.334 -30 -59.001 -30c-23.333 0 -47.666 7.33301 -72.999 22s-45.666 33 -60.999 55l-27 40l-43 -6c-19.333 -2.66699 -32 -3.16699 -38 -1.5s-13.333 8.16699 -22 19.5c-10.667 13.333 -17.167 34 -19.5 62s1.16699 46.333 10.5 55
c7.33301 7.33301 21.666 11 42.999 11c20 0 32.5 3 37.5 9s2.83301 15.333 -6.5 28c-8 12 -12.5 36 -13.5 72s2.5 58 10.5 66c6.66699 7.33301 16.667 11 30 11c11.333 0 20.333 3.66699 27 11s17.667 26 33 56c8 15.333 15.5 27.5 22.5 36.5s12.333 14.333 16 16
s6.5 3.5 8.5 5.5s3 5 3 9c0 6.66699 12 22.167 36 46.5s41.333 39.166 52 44.499z" />
    <glyph glyph-name=".null" horiz-adv-x="0" 
 />
    <glyph glyph-name="nonmarkingreturn" horiz-adv-x="333" 
 />
  </font>
</defs>
</svg>
