<?xml version="1.0" standalone="no"?>
<!DOCTYPE svg PUBLIC "-//W3C//DTD SVG 1.1//EN" "http://www.w3.org/Graphics/SVG/1.1/DTD/svg11.dtd" >
<svg>
<metadata>
Created by FontForge 20090914 at Thu Mar  6 01:15:04 2014
 By www-data
Created by MyScriptFont.com
</metadata>
<defs>
<font id="thomasreggi2" horiz-adv-x="10" >
  <font-face 
    font-family="thomasreggi2"
    font-weight="500"
    font-stretch="normal"
    units-per-em="1000"
    panose-1="2 0 6 3 0 0 0 0 0 0"
    ascent="800"
    descent="-200"
    x-height="542.997"
    cap-height="586.995"
    bbox="9.23763 -164.999 679.786 799.997"
    underline-thickness="50"
    underline-position="-100"
    unicode-range="U+0020-U+20AC"
  />
<missing-glyph horiz-adv-x="364" 
d="M33 0v666h265v-666h-265zM66 33h199v600h-199v-600z" />
    <glyph glyph-name=".notdef" horiz-adv-x="364" 
d="M33 0v666h265v-666h-265zM66 33h199v600h-199v-600z" />
    <glyph glyph-name="space" unicode=" " horiz-adv-x="420" 
 />
    <glyph glyph-name="exclam" unicode="!" horiz-adv-x="175" 
d="M34 87c16 8.66699 27.499 12.832 34.499 12.499s17.5 -6.5 31.5 -18.5c16 -12.667 26.167 -30 30.5 -52s1.5 -40.667 -8.5 -56c-5.33301 -8.66699 -11.5 -14.667 -18.5 -18s-16.5 -5 -28.5 -5c-24 0 -40.833 5.66699 -50.5 17s-14.5 31.333 -14.5 60
c0 20.667 1.33301 34.334 4 41.001s9.33398 13 20.001 19zM64.999 716.998c10 12.667 20.668 19.1641 32.001 19.4971s24.666 -5.16699 39.999 -16.5c14 -11.333 22.5 -24.833 25.5 -40.5s2.83301 -32.667 -0.5 -51s-7.33301 -49.666 -12 -93.999s-7 -90.833 -7 -139.5
c0 -56 -1 -91.167 -3 -105.5s-7.66699 -26.166 -17 -35.499c-12.667 -14 -27.334 -20.667 -44.001 -20s-30 8.33398 -40 23.001c-9.33301 14 -14.166 41 -14.499 81s3.5 108 11.5 204c4.66699 62 9 104.5 13 127.5s9.33301 38.833 16 47.5z" />
    <glyph glyph-name="numbersign" unicode="#" horiz-adv-x="690" 
d="M385 688c4 7.33301 13.168 8.83203 27.501 4.49902s25.833 -12.5 34.5 -24.5c8.66699 -11.333 13.667 -21.666 15 -30.999s0.333008 -27.666 -3 -54.999c-4.66699 -40.667 -5.66699 -63.5 -3 -68.5s12.334 -5.83301 29.001 -2.5c22 4.66699 41.667 -4 59 -26
c15.333 -19.333 17.666 -35 6.99902 -47c-2.66699 -3.33301 -6.33398 -5.66602 -11.001 -6.99902c-10 -3.33301 -30.667 -12 -62 -26c-30.667 -13.333 -45.667 -23.333 -45 -30c1.33301 -8.66699 40 -13 116 -13c79.333 0 122.333 -5.66699 129 -17
c3.33301 -4.66699 2 -11.667 -4 -21c-6.66699 -10 -17 -18.333 -31 -25c-66.667 -32 -119 -51 -157 -57c-32.667 -5.33301 -51.834 -10.833 -57.501 -16.5s-9.83398 -25.834 -12.501 -60.501c-2 -26.667 -8.16699 -48.5 -18.5 -65.5s-22.5 -25.5 -36.5 -25.5
c-8 0 -18.833 8.33301 -32.5 25s-20.5 30 -20.5 40c0 9.33301 -2.33301 15.333 -7 18s-10.334 1.33398 -17.001 -3.99902c-8 -6.66699 -12 -19.667 -12 -39c0 -35.333 -16.333 -51 -49 -47c-10.667 1.33301 -18 4.83301 -22 10.5s-8.66699 17.834 -14 36.501
c-5.33301 17.333 -11.666 31.666 -18.999 42.999s-14.666 20 -21.999 26l-22 18c-7.33301 6 -14.166 14.333 -20.499 25s-10.833 24 -13.5 40c-3.33301 18.667 -6.83301 30.167 -10.5 34.5s-10.834 6.83301 -21.501 7.5c-16 0.666992 -26.833 4.5 -32.5 11.5
s-10.167 21.5 -13.5 43.5c-4 23.333 -1.16699 38.833 8.5 46.5s33.834 14.167 72.501 19.5c70 9.33301 114.333 21.666 133 36.999c7.33301 5.33301 11 27.833 11 67.5s3.66699 63.167 11 70.5c8.66699 9.33301 18.5 12.666 29.5 9.99902s20.833 -7.5 29.5 -14.5l25.5 -20
c8.33301 -6.33301 14.5 -8.5 18.5 -6.5c5.33301 3.33301 11.833 22.5 19.5 57.5s12.5 54.167 14.5 57.5z" />
    <glyph glyph-name="dollar" unicode="$" horiz-adv-x="486" 
d="M357 750c9.33301 10.667 17.165 17.001 23.498 19.001s15.833 1.66699 28.5 -1c8 -1.33301 16.833 -5 26.5 -11s18.834 -14.667 27.501 -26s12.834 -24.666 12.501 -39.999s-5.83301 -33 -16.5 -53c-12 -18.667 -18 -33 -18 -43c0 -7.33301 -1.66699 -15.333 -5 -24
l-20.5 -51.5c-10.333 -25.667 -20.833 -56.167 -31.5 -91.5c-6.66699 -20 -13.334 -39 -20.001 -57l-15 -40l-10.5 -28c-3.66699 -10 -6 -17 -7 -21s-1.83301 -10.5 -2.5 -19.5s0 -17.167 2 -24.5c10 -64 -2.66699 -114.333 -38 -151c-15.333 -16.667 -31.333 -40 -48 -70
s-25 -50.667 -25 -62c0 -4 -1.83301 -8.16699 -5.5 -12.5s-8.5 -7.66602 -14.5 -9.99902s-12.333 -3.5 -19 -3.5s-13.834 2.66699 -21.501 8s-14.167 13 -19.5 23s-10.833 13.5 -16.5 10.5s-12.834 -13.167 -21.501 -30.5c-6.66699 -14 -18 -21.833 -34 -23.5
s-28.667 6.5 -38 24.5s-13.666 42.667 -12.999 74c0.666992 20.667 -0.166016 39.334 -2.49902 56.001l-4.5 32.5c-0.666992 5 0.833008 11 4.5 18s11.5 16.5 23.5 28.5c8.66699 9.33301 16.167 19.166 22.5 29.499s9.5 18.166 9.5 23.499
c0 13.333 4.66699 34.666 14 63.999c6.66699 20.667 9.83398 35.5 9.50098 44.5s-3.5 23.167 -9.5 42.5c-29.333 86 -8.33301 165.667 63 239c14.667 14.667 27 31.5 37 50.5s18 36.5 24 52.5s10.667 26.333 14 31c14 18 36.333 14.167 67 -11.5s46 -27.5 46 -5.5
c0 11.333 7.33301 24.666 22 39.999zM281.999 499.001c8 18.667 8.66699 31.168 2 37.501s-13 1.5 -19 -14.5c-10 -26.667 -12 -43 -6 -49c5.33301 -4.66699 12 1.66602 20 18.999c1.33301 2 2.33301 4.33301 3 7z" />
    <glyph glyph-name="percent" unicode="%" horiz-adv-x="681" 
d="M453 270c20 5.33301 35.834 7.49512 47.501 6.49512s18.667 -3 21 -6s6.83301 -7.16699 13.5 -12.5s15.667 -9 27 -11c6.66699 -1.33301 16.667 -6.83301 30 -16.5s25.666 -20.5 36.999 -32.5c22 -21.333 34.667 -36.166 38 -44.499s4.66602 -26.166 3.99902 -53.499
c-1.33301 -32.667 -8.33301 -57.334 -21 -74.001s-39 -35.667 -79 -57c-36 -19.333 -66.5 -28.666 -91.5 -27.999s-47.5 11.334 -67.5 32.001c-13.333 13.333 -21.666 25 -24.999 35s-6 29 -8 57c-4 50.667 1.33301 96.334 16 137.001s34 63.334 58 68.001zM543.001 134.995
c-2 11.333 -7.83301 16.833 -17.5 16.5s-17.167 -6.5 -22.5 -18.5c-6.66699 -14.667 -7.33398 -23.667 -2.00098 -27c6.66699 -4.66699 15.834 -3 27.501 5s16.5 16 14.5 24zM518.001 491.995c0 -3.33301 -5.83008 -11.166 -17.4971 -23.499s-17.5 -20.5 -17.5 -24.5
c0 -4.66699 -5.16699 -14 -15.5 -28l-96.5 -125c-41.333 -52.667 -84.333 -103.5 -129 -152.5s-71.334 -79.5 -80.001 -91.5c-13.333 -16.667 -29.5 -28.334 -48.5 -35.001s-33.5 -6 -43.5 2c-7.33301 6 -14.666 25 -21.999 57l-10 48l35 38
c16.667 17.333 35.667 38.833 57 64.5l53.5 64c14.333 17 23.833 26.833 28.5 29.5c6 4 7 8 3 12c-2 2.66699 -8 0.666992 -18 -6s-23.167 -14.667 -39.5 -24s-31.5 -15 -45.5 -17c-22 -2.66699 -41.333 3 -58 17s-28.334 33.5 -35.001 58.5s-9.5 52.333 -8.5 82
s7.66699 60.5 20 92.5s29.5 60.333 51.5 85c14.667 16 25.5 25.833 32.5 29.5s17.167 4.16699 30.5 1.5c40.667 -6.66699 80 -37.334 118 -92.001c12 -17.333 19.667 -31.333 23 -42s5 -24.667 5 -42c-0.666992 -28 0.333008 -42 3 -42c8 0 35.5 30.833 82.5 92.5
s70.5 97.834 70.5 108.501c0.666992 5.33301 6.83398 12.166 18.501 20.499s17.5 14.833 17.5 19.5s2.66699 10.834 8 18.501s12.5 14.667 21.5 21s18.667 10.5 29 12.5s21.166 -1.5 32.499 -10.5s21.666 -24.167 30.999 -45.5c6.66699 -16 6.66699 -32.333 0 -49
s-22.334 -39.667 -47.001 -69c-26.667 -30.667 -40 -49 -40 -55zM173.004 481.495c0 5.66699 -1.33203 8.5 -3.99902 8.5c-3.33301 0 -6.33301 -3.33301 -9 -10c-2.66699 -4.66699 -1.33398 -7 3.99902 -7c6 0 9 2.83301 9 8.5z" />
    <glyph glyph-name="ampersand" unicode="&#x26;" horiz-adv-x="664" 
d="M274 769l19.0029 30.9971h201l22 -38c15.333 -26 23 -56.333 23 -91c0 -56.667 -15.333 -112.667 -46 -168s-64.334 -87.666 -101.001 -96.999c-24 -6 -39.5 -11.833 -46.5 -17.5s-8.83301 -13.834 -5.5 -24.501c4.66699 -14.667 16.5 -31.167 35.5 -49.5
s33.667 -27.5 44 -27.5s26.166 10.833 47.499 32.5s43.666 50.5 66.999 86.5c14 20.667 24.167 33.167 30.5 37.5s17.166 6.16602 32.499 5.49902c20.667 0 35.334 -5.33301 44.001 -16s13 -28 13 -52c0 -18.667 -4 -34.5 -12 -47.5s-20.5 -29 -37.5 -48
s-31.5 -38.5 -43.5 -58.5c-7.33301 -12 -11.166 -21 -11.499 -27s2.16699 -14 7.5 -24c5.33301 -10.667 7.66602 -18 6.99902 -22s-5 -9 -13 -15c-12.667 -9.33301 -26.167 -15.166 -40.5 -17.499s-26.166 -0.833008 -35.499 4.5c-10.667 4.66699 -18.667 6.5 -24 5.5
s-15 -4.16699 -29 -9.5s-27.833 -11.166 -41.5 -17.499s-34 -12.166 -61 -17.499s-56.167 -8.66602 -87.5 -9.99902c-36.667 -1.33301 -61.5 -1.16602 -74.5 0.500977s-27.5 6.83398 -43.5 15.501c-50 28 -82.333 72.667 -97 134c-5.33301 29.333 -7.33301 48.166 -6 56.499
s4.16602 17.166 8.49902 26.499s6.5 19 6.5 29c0 28.667 18.5 59.5 55.5 92.5s71.833 49.5 104.5 49.5c10.667 0 19 6 25 18s9 27.667 9 47c0 26 6.5 65.667 19.5 119s24.5 88 34.5 104zM409.003 696.997c-6.66699 34 -18.667 32.334 -36 -4.99902
c-6 -13.333 -12 -30.333 -18 -51c-13.333 -42.667 -21.333 -72.334 -24 -89.001s-1 -27 5 -31c9.33301 -5.33301 20.5 2.5 33.5 23.5s23.667 47 32 78s10.833 55.833 7.5 74.5zM253.003 333.998c-12.667 25.333 -27.499 35.8311 -44.499 31.498
s-33.833 -23.166 -50.5 -56.499c-10 -20.667 -15.333 -38.667 -16 -54s3.66602 -31.666 12.999 -48.999c6 -12 12.333 -19.167 19 -21.5s22.667 -3.5 48 -3.5c21.333 0 38.333 1.5 51 4.5s26.667 9.16699 42 18.5c10.667 6 19.5 12 26.5 18s10.167 10 9.5 12
c-0.666992 2.66699 -7.5 9 -20.5 19s-27.333 22.5 -43 37.5s-27.167 29.5 -34.5 43.5z" />
    <glyph glyph-name="quotesingle" unicode="'" horiz-adv-x="168" 
d="M64 689c15.333 10.667 28.168 14.667 38.501 12s21.833 -13 34.5 -31c12 -18.667 18.667 -35 20 -49s-0.833984 -25.833 -6.50098 -35.5s-12.667 -24.167 -21 -43.5s-14.166 -39.666 -17.499 -60.999c-4 -24.667 -13.833 -45.834 -29.5 -63.501
s-31.834 -25.5 -48.501 -23.5c-10 2 -16.167 6.66699 -18.5 14s-3.83301 28.333 -4.5 63c-1.33301 28.667 -1 51.5 1 68.5s6.66699 34.833 14 53.5c12 32.667 18 54.5 18 65.5s6.66699 21.167 20 30.5z" />
    <glyph glyph-name="parenleft" unicode="(" horiz-adv-x="355" 
d="M214 633c18 22 31.498 36.167 40.498 42.5s19.833 9.5 32.5 9.5c17.333 0 31.333 -6.5 42 -19.5s16 -30.833 16 -53.5c0 -18 -4.5 -33.5 -13.5 -46.5s-24.833 -27.5 -47.5 -43.5c-24 -17.333 -36 -28.833 -36 -34.5s-4.33301 -13.167 -13 -22.5
c-6.66699 -6.66699 -18.667 -24.834 -36 -54.501s-35.666 -68.667 -54.999 -117s-29 -89.833 -29 -124.5c0 -24.667 5.83301 -46.667 17.5 -66s25.167 -29 40.5 -29c27.333 0 49 -12 65 -36s19 -49 9 -75c-4.66699 -11.333 -21.834 -21.333 -51.501 -30s-48.5 -9 -56.5 -1
c-6.66699 6.66699 -14.667 10 -24 10c-10 0 -24.5 10.333 -43.5 31s-32.833 41.334 -41.5 62.001c-9.33301 22.667 -15.666 61 -18.999 115c-2.66699 51.333 1 97.5 11 138.5s30 90.5 60 148.5c22 43.333 40.333 75.833 55 97.5s40.334 54.5 77.001 98.5z" />
    <glyph glyph-name="parenright" unicode=")" horiz-adv-x="378" 
d="M206 523c-12.667 20 -20.832 38.833 -24.499 56.5s-3.83398 32.167 -0.500977 43.5s8.33301 21.166 15 29.499s13.5 14.333 20.5 18s12.833 5.5 17.5 5.5c12 0 29.333 -13 52 -39s34 -46 34 -60c0 -13.333 5.33301 -29 16 -47c21.333 -34.667 31.833 -84.5 31.5 -149.5
s-10.833 -125.833 -31.5 -182.5c-51.333 -138 -109 -228.333 -173 -271c-56 -38 -95.5 -56.333 -118.5 -55s-34.5 22.333 -34.5 63c0 24 2.66699 41.833 8 53.5s15.333 20.834 30 27.501c20.667 10 44.834 27.333 72.501 52s45.834 45.334 54.501 62.001
c1.33301 2.66699 3.33301 7 6 13c12.667 23.333 22 41 28 53s13.5 28.667 22.5 50s14.833 38.666 17.5 51.999s5.16699 30 7.5 50s1.66602 38.333 -2.00098 55s-9.33398 35.5 -17.001 56.5s-18.167 42.167 -31.5 63.5z" />
    <glyph glyph-name="asterisk" unicode="*" horiz-adv-x="383" 
d="M138 681c8 12 17 18.667 27 20s19.167 -0.833984 27.5 -6.50098l27.5 -18c10 -6.33301 18 -9.5 24 -9.5c20.667 0 40.5 -12.5 59.5 -37.5s23.833 -44.833 14.5 -59.5c-4 -6.66699 -4.5 -13.167 -1.5 -19.5s11.167 -16.166 24.5 -29.499c21.333 -22 32 -37 32 -45
c0 -10.667 -7 -21.167 -21 -31.5s-30.333 -17.166 -49 -20.499c-20 -3.33301 -34 -9.83301 -42 -19.5s-12 -24.834 -12 -45.501c0 -16.667 -7.33301 -32 -22 -46c-9.33301 -8.66699 -16.666 -13.5 -21.999 -14.5s-12.666 0.5 -21.999 4.5
c-6 2.66699 -11.167 6.66699 -15.5 12s-6.5 10.333 -6.5 15c0 12 -3.5 19.667 -10.5 23s-14.833 1 -23.5 -7c-10 -8.66699 -23 -15 -39 -19c-10.667 -2.66699 -18 -3 -22 -1s-7.66699 7.66699 -11 17c-4.66699 12 -6.83398 28.667 -6.50098 50s-0.333984 44 -2.00098 68
s-7.16699 46 -16.5 66c-13.333 28 -20 56.333 -20 85s6.33301 48.667 19 60c8.66699 8 15.167 12 19.5 12s12.833 -3.66699 25.5 -11c18 -10 31 -14.5 39 -13.5s16.333 8.16699 25 21.5z" />
    <glyph glyph-name="plus" unicode="+" horiz-adv-x="511" 
d="M171 542c8 8 15.835 10.998 23.502 8.99805s19.167 -9.66699 34.5 -23c13.333 -11.333 21.666 -21.166 24.999 -29.499s5.33301 -25.5 6 -51.5c0.666992 -37.333 4.33398 -57 11.001 -59s25 -3.5 55 -4.5s60.167 -3.16699 90.5 -6.5s51.166 -9.33301 62.499 -18
c14.667 -11.333 22 -20.333 22 -27c0 -7.33301 -12.667 -15.333 -38 -24s-58.333 -16 -99 -22c-16 -2.66699 -26.5 -4.33398 -31.5 -5.00098s-12.5 -2.33398 -22.5 -5.00098s-15.833 -4.16699 -17.5 -4.5s-4.83398 -2.83301 -9.50098 -7.5s-7 -7.66699 -7 -9
s-0.666992 -6.16602 -2 -14.499s-1.66602 -14.666 -0.999023 -18.999s1 -12.833 1 -25.5c1.33301 -30.667 1.16602 -50.167 -0.500977 -58.5s-7.16699 -15.833 -16.5 -22.5c-13.333 -9.33301 -25.333 -14 -36 -14c-11.333 0 -21.833 8.33301 -31.5 25
s-15.834 36.667 -18.501 60c-2.66699 24 -8.5 38.333 -17.5 43s-26.5 2.33398 -52.5 -6.99902c-60.667 -22.667 -91 3 -91 77c0 20 4.83301 33.333 14.5 40s29.834 10 60.501 10c15.333 0 27.166 0.166992 35.499 0.5s16.166 2 23.499 5s12.5 6.16699 15.5 9.5
s5.33301 9.5 7 18.5s2.33398 18.333 2.00098 28s-1.16602 23.5 -2.49902 41.5c-4 52.667 -2.33301 82.667 5 90z" />
    <glyph glyph-name="comma" unicode="," horiz-adv-x="153" 
d="M54 175c20.667 13.333 38.3311 16.666 52.998 9.99902s25 -23 31 -49s7 -58 3 -96c-3.33301 -28.667 -10.666 -51.667 -21.999 -69s-23.5 -27.166 -36.5 -29.499s-25.667 3 -38 16s-21.5 33.167 -27.5 60.5c-5.33301 21.333 -7.66602 36.5 -6.99902 45.5
s4 20.167 10 33.5c10 20.667 15 36.667 15 48s6.33301 21.333 19 30z" />
    <glyph glyph-name="hyphen" unicode="-" horiz-adv-x="365" 
d="M111 309c34 8.66699 72.333 11 115 7s74.667 -13.333 96 -28c9.33301 -6 17.166 -12.667 23.499 -20s9.5 -13.333 9.5 -18c0 -12.667 -10.333 -24.5 -31 -35.5s-43 -16.5 -67 -16.5c-26 0 -52.667 -3.66699 -80 -11s-49.333 -14.5 -66 -21.5s-32.167 -12.167 -46.5 -15.5
s-25.5 -1.16602 -33.5 6.50098s-14 22.834 -18 45.501c-5.33301 35.333 -2.66602 58.666 8.00098 69.999s40.667 23.666 90 36.999z" />
    <glyph glyph-name="period" unicode="." horiz-adv-x="155" 
d="M18 136c5.33301 10.667 10.833 17.832 16.5 21.499s13.834 5.5 24.501 5.5c18.667 0 37.667 -9.16699 57 -27.5s29 -36.166 29 -53.499c0 -30 -6.66699 -51.333 -20 -64s-33 -16 -59 -10c-22 4.66699 -38.333 21.5 -49 50.5s-10.334 54.833 0.999023 77.5z" />
    <glyph glyph-name="slash" unicode="/" horiz-adv-x="429" 
d="M304 631c0 4.66699 1.33496 10.999 4.00195 18.999s7.33398 16.833 14.001 26.5s15.834 14.667 27.501 15s26.5 -4.83398 44.5 -15.501c10.667 -8 17.5 -15.5 20.5 -22.5s4.5 -18.5 4.5 -34.5c0 -26 -5.33301 -51.667 -16 -77l-37 -87c-22 -52.667 -42.667 -96 -62 -130
s-31 -55 -35 -63c-2.66699 -6.66699 -14.167 -25.5 -34.5 -56.5s-41.333 -65.5 -63 -103.5s-37.5 -71.333 -47.5 -100c-2.66699 -9.33301 -13.334 -18.666 -32.001 -27.999s-32 -12.333 -40 -9c-12 4.66699 -21.833 16 -29.5 34s-11.834 39.667 -12.501 65
c-0.666992 24 1.16602 42 5.49902 54s13.666 27.333 27.999 46s26.5 36.334 36.5 53.001c4.66699 8.66699 13.834 21 27.501 37s33.5 45 59.5 87l32 48c15.333 23.333 32.666 57 51.999 101l41 95c8 18 12 33.333 12 46z" />
    <glyph glyph-name="zero" unicode="0" horiz-adv-x="445" 
d="M414 297c0 -10.667 -3.00195 -21.5029 -9.00195 -32.5029s-12 -20.333 -18 -28s-9 -12.834 -9 -15.501c0 -4.66699 -18.833 -31 -56.5 -79s-65.167 -80 -82.5 -96c-22 -20.667 -44.667 -34.667 -68 -42s-43.666 -6.66602 -60.999 2.00098
c-14.667 8 -29.667 21.833 -45 41.5s-23 35.167 -23 46.5c0 6.66699 -0.666992 12.167 -2 16.5s-3.16602 9 -5.49902 14s-5.33301 17.667 -9 38s-7.16699 47.5 -10.5 81.5c-4 41.333 -5.66699 72.333 -5 93s3.66699 43.667 9 69c11.333 54 19 87.667 23 101s10.333 26 19 38
c10.667 15.333 16 25.166 16 29.499s12 20.833 36 49.5c20.667 24.667 37.5 38.334 50.5 41.001s29.167 -4 48.5 -20c14 -12 24.333 -19 31 -21s12 0.666992 16 8c4 6.66699 14.333 9.5 31 8.5s30.334 -5.16699 41.001 -12.5c24.667 -17.333 44.167 -39.166 58.5 -65.499
s25.833 -61.166 34.5 -104.499c7.33301 -37.333 11.166 -62 11.499 -74s-2.5 -23.667 -8.5 -35c-8.66699 -17.333 -13 -34.666 -13 -51.999zM260.998 501.997c-8 -7.33301 -13.665 -10.8311 -16.998 -10.498s-8.33301 5.16602 -15 14.499l-14 19l-29 -24
c-42.667 -36.667 -64 -115.334 -64 -236.001c0 -64.667 5.33301 -100 16 -106c7.33301 -3.33301 20.333 2 39 16c15.333 12 36.333 34.833 63 68.5s48 58.167 64 73.5c27.333 27.333 45 58 53 92s4.33301 63 -11 87c-8.66699 12.667 -21.834 19.667 -39.501 21
s-32.834 -3.66699 -45.501 -15z" />
    <glyph glyph-name="one" unicode="1" horiz-adv-x="462" 
d="M103 569l49.0039 98.0029h35c14 0 24.833 -1.83301 32.5 -5.5s17.167 -12.167 28.5 -25.5c14 -16 22.5 -31.667 25.5 -47s1.16699 -35 -5.5 -59c-3.33301 -12.667 -2.33301 -53.834 3 -123.501s10.666 -108.834 15.999 -117.501
c3.33301 -5.33301 22.333 -11.666 57 -18.999c39.333 -8.66699 65 -15.167 77 -19.5s20.667 -10.5 26 -18.5c6.66699 -11.333 6 -20.166 -2 -26.499s-27.667 -13.5 -59 -21.5c-34.667 -8.66699 -56.334 -16.667 -65.001 -24c-20.667 -16.667 -42.334 -27.167 -65.001 -31.5
s-57.334 -4.83301 -104.001 -1.5c-44 3.33301 -71.5 6.5 -82.5 9.5s-22.5 11.5 -34.5 25.5c-16.667 18 -25 38.667 -25 62c0 24.667 5 40.167 15 46.5s29 6.16602 57 -0.500977c31.333 -6.66699 51 -9.33398 59 -8.00098s14.667 8.66602 20 21.999c6 16 6.16699 27 0.5 33
s-14.167 4 -25.5 -6s-21.666 -15 -30.999 -15c-12.667 0 -24.334 13 -35.001 39s-16 54 -16 84c0 22.667 2.83301 42.667 8.5 60s19.167 47.333 40.5 90z" />
    <glyph glyph-name="two" unicode="2" horiz-adv-x="435" 
d="M148 629c22 12.667 41.3311 19.001 57.998 19.001s34.334 -6 53.001 -18c47.333 -32.667 73 -73.167 77 -121.5s-13.333 -111.5 -52 -189.5l-25 -51l33 -13c8 -3.33301 17 -7.33301 27 -12s17.333 -8 22 -10s10.167 -3.83301 16.5 -5.5s12.833 -2.5 19.5 -2.5
c14.667 0 26.667 -9.66699 36 -29s13.333 -34.833 12 -46.5s-9 -23.834 -23 -36.501c-14.667 -13.333 -29.167 -20 -43.5 -20s-43.166 7 -86.499 21c-30.667 10 -51.334 15.5 -62.001 16.5s-22.334 -1.16699 -35.001 -6.5s-23.667 -12.5 -33 -21.5s-18.166 -16 -26.499 -21
s-19.833 -7.5 -34.5 -7.5s-25 1.83301 -31 5.5s-13 11.834 -21 24.501c-14.667 24 -20.667 45 -18 63s14.334 37.333 35.001 58c24.667 23.333 40.667 35 48 35c6.66699 0 23 15 49 45s43 53.333 51 70c7.33301 14.667 13.666 26.667 18.999 36
c7.33301 12 13.833 29.833 19.5 53.5s7.16699 37.834 4.5 42.501c-8 13.333 -26.167 13.333 -54.5 0s-45.833 -30 -52.5 -50c-3.33301 -11.333 -11.5 -20.333 -24.5 -27s-25.5 -8.33398 -37.5 -5.00098c-13.333 3.33301 -25.166 13.666 -35.499 30.999s-13.5 33 -9.5 47
c2.66699 12 13 29.5 31 52.5s32.667 37.833 44 44.5z" />
    <glyph glyph-name="three" unicode="3" horiz-adv-x="357" 
d="M10 549c-0.666992 20.667 6.00488 39.1689 20.0049 55.502s31.167 28.666 51.5 36.999s39.166 14.666 56.499 18.999s32 6.5 44 6.5c18.667 0 32.5 -2.33301 41.5 -7s23.833 -17 44.5 -37c22 -20.667 35.167 -35.167 39.5 -43.5s6.5 -23.833 6.5 -46.5
c0 -24.667 -4.5 -47.334 -13.5 -68.001s-16.333 -36.834 -22 -48.501s-5.83398 -22.5 -0.500977 -32.5c6.66699 -12 13 -18 19 -18c2.66699 0 5 -1.16699 7 -3.5s3.83301 -5.33301 5.5 -9s4.66699 -9.66699 9 -18s9.16602 -16.5 14.499 -24.5
c7.33301 -10.667 11.666 -21 12.999 -31s0.666016 -26.333 -2.00098 -49c-4.66699 -46 -18.667 -82.5 -42 -109.5s-58 -47.833 -104 -62.5c-64 -19.333 -112.833 -20.166 -146.5 -2.49902s-44.834 49.834 -33.501 96.501c3.33301 12.667 7 21.334 11 26.001s11 7.66699 21 9
c16 1.33301 29.667 -1 41 -7c12 -6 31.667 -5.33301 59 2s52.5 18.333 75.5 33s34.5 27.667 34.5 39c0 12 -7 21.667 -21 29s-32.667 10.666 -56 9.99902c-33.333 -0.666992 -55.333 4.5 -66 15.5s-15 33.167 -13 66.5c2 26.667 4.83301 45 8.5 55s9.5 15 17.5 15
c6.66699 0 19.667 9.33301 39 28c28.667 28 38 47.333 28 58c-10 11.333 -30.333 8 -61 -10c-9.33301 -5.33301 -19 -12 -29 -20c-25.333 -21.333 -47.666 -27.333 -66.999 -18s-29.333 31 -30 65z" />
    <glyph glyph-name="four" unicode="4" horiz-adv-x="397" 
d="M45 559c12.667 13.333 25.9902 19.8291 39.9902 19.4961s23.333 -7.16602 28 -20.499c6 -14.667 11.667 -23.667 17 -27c8 -4.66699 11.167 -15.167 9.5 -31.5s-7.5 -34.166 -17.5 -53.499c-10.667 -20.667 -16.167 -37 -16.5 -49s3.83398 -24.333 12.501 -37
c8 -11.333 21.833 -17.833 41.5 -19.5s33.834 2.5 42.501 12.5c7.33301 8.66699 15 13 23 13s17.667 5.66699 29 17c6.66699 6.66699 10.834 15.334 12.501 26.001s1.5 30.667 -0.5 60c-2 33.333 -2 54.333 0 63s8.33301 18 19 28s18.167 15.333 22.5 16
s11.833 -2.33301 22.5 -9l20.5 -14.5c5 -3.66699 9.83301 -10 14.5 -19s7.83398 -17.5 9.50098 -25.5s3.33398 -22.167 5.00098 -42.5s2.83398 -40.5 3.50098 -60.5s1.33398 -49.667 2.00098 -89c0.666992 -60 1.33398 -107.333 2.00098 -142s-0.5 -61.834 -3.5 -81.501
s-6.66699 -33 -11 -40s-10.833 -13.167 -19.5 -18.5c-26.667 -13.333 -45.167 -11.166 -55.5 6.50098s-15.5 55.834 -15.5 114.501c0 52.667 -2.33301 79 -7 79c-6 0 -16.667 -2.83301 -32 -8.5l-44 -16c-14 -5 -28.667 -8.16699 -44 -9.5s-26 2.66699 -32 12
c-7.33301 8.66699 -14.666 13 -21.999 13s-18.666 8.33301 -33.999 25s-27.333 33.667 -36 51c-16.667 33.333 -23.5 79.333 -20.5 138s14.5 98.667 34.5 120z" />
    <glyph glyph-name="five" unicode="5" horiz-adv-x="409" 
d="M127 600c32.667 3.33301 63.166 7.66406 91.499 12.9971s54.166 8.33301 77.499 9c19.333 0.666992 33.166 -0.666016 41.499 -3.99902s18.833 -11 31.5 -23c26.667 -26 35.334 -47 26.001 -63s-34.333 -24 -75 -24c-23.333 0 -47.166 -3.33301 -71.499 -10
s-48.166 -11.667 -71.499 -15c-18.667 -2 -31.667 -4.66699 -39 -8s-11.333 -8 -12 -14c-2.66699 -11.333 -0.333984 -19.666 6.99902 -24.999s25 -11.666 53 -18.999c20.667 -5.33301 35.5 -11.166 44.5 -17.499s19.167 -17.833 30.5 -34.5
c9.33301 -13.333 17.333 -26.166 24 -38.499s11.5 -24 14.5 -35l7.5 -27.5c2 -7.33301 2.33301 -15.833 1 -25.5s-2.16602 -16.334 -2.49902 -20.001s-1.83301 -10.167 -4.5 -19.5s-4 -14.333 -4 -15c-7.33301 -28 -14.333 -48.667 -21 -62s-18 -28.333 -34 -45l-38 -39
l-128 5l-25 47c-16.667 31.333 -23 56 -19 74c4 17.333 8.66699 25.333 14 24c4 -0.666992 7.66699 -5.33398 11 -14.001c2 -5.33301 6.16699 -8.66602 12.5 -9.99902s18.5 -1 36.5 1c28 3.33301 51.167 11.333 69.5 24s29.166 28 32.499 46c4 16.667 2.33301 29.5 -5 38.5
s-21.666 15.167 -42.999 18.5c-20.667 3.33301 -46.667 11 -78 23c-19.333 8 -32.833 15.167 -40.5 21.5s-14.167 15.833 -19.5 28.5c-16 38.667 -16 89 0 151c9.33301 34 19.833 55.667 31.5 65s36.167 15.666 73.5 18.999z" />
    <glyph glyph-name="six" unicode="6" horiz-adv-x="325" 
d="M122 585c6 8.66699 14 12.1689 24 10.502s19.667 -5.66699 29 -12s17.166 -15.333 23.499 -27s9.5 -23.5 9.5 -35.5c0 -19.333 -5 -38.333 -15 -57c-7.33301 -14 -11 -22.667 -11 -26s4.33301 -7.66602 13 -12.999c15.333 -8.66699 33.833 -25.667 55.5 -51
s37.167 -47.666 46.5 -66.999c12 -25.333 18 -56.666 18 -93.999c0 -24.667 -1.5 -41.334 -4.5 -50.001s-9.83301 -18.334 -20.5 -29.001c-16.667 -16 -29.167 -24 -37.5 -24s-18.5 -6 -30.5 -18c-13.333 -12 -36.666 -19.833 -69.999 -23.5s-57 -0.833984 -71 8.49902
c-10.667 7.33301 -21.667 24.166 -33 50.499s-17 49.166 -17 68.499c0 14 -4.33301 31.667 -13 53c-6 15.333 -8.5 27 -7.5 35s7.83301 26 20.5 54c18 38 27 62.333 27 73c0 6 1.66699 13.333 5 22l15.5 38.5c7 17 13.5 35.167 19.5 54.5c10 32 18 51.667 24 59z
M212 273.002c-8.66699 13.333 -16.501 20.499 -23.501 21.499s-17.5 -3.16699 -31.5 -12.5c-11.333 -8 -17.666 -20.333 -18.999 -37s3 -29.334 13 -38.001c8 -6.66699 21.333 -5 40 5c17.333 8.66699 27.5 17.334 30.5 26.001s-0.166992 20.334 -9.5 35.001z" />
    <glyph glyph-name="seven" unicode="7" horiz-adv-x="391" 
d="M32 610c22.667 22 41.002 25.999 55.002 11.999c6 -6 39.667 -10.333 101 -13c32 -2 55.333 -3.5 70 -4.5s28.834 -2.33301 42.501 -4s23.334 -4.16699 29.001 -7.5s10.667 -7 15 -11s9.5 -10.333 15.5 -19c12 -18.667 18.667 -38 20 -58
s-0.833984 -36.833 -6.50098 -50.5s-11.667 -27.334 -18 -41.001s-9.5 -22.834 -9.5 -27.501c0 -5.33301 -6.66699 -21.166 -20 -47.499s-25 -46.166 -35 -59.499c-8 -11.333 -13.5 -24 -16.5 -38s-10.167 -32.667 -21.5 -56c-14.667 -29.333 -22 -49.333 -22 -60
c0 -30.667 -16 -49.334 -48 -56.001c-22.667 -4 -38 -1.5 -46 7.5s-12 28.5 -12 58.5c0 26 4.33301 49.833 13 71.5s28 58.834 58 111.501c36 61.333 54.667 107 56 137l1 22h-107c-23.333 0 -41.5 0.166992 -54.5 0.5s-25.333 1.33301 -37 3s-19.834 3.66699 -24.501 6
s-8.83398 6.5 -12.501 12.5s-5.83398 12.167 -6.50098 18.5s-1 15.5 -1 27.5c0 17.333 1.5 30.333 4.5 39s8.83301 17.334 17.5 26.001z" />
    <glyph glyph-name="eight" unicode="8" horiz-adv-x="338" 
d="M200 632c7.33301 0 15.666 1.99902 24.999 5.99902s18 8.16699 26 12.5s12.667 6.83301 14 7.5c2.66699 0 13.667 -7.33301 33 -22c14 -10.667 22.5 -19.667 25.5 -27s4.5 -23.666 4.5 -48.999c0 -36 -5.66699 -62 -17 -78c-14.667 -20.667 -22.5 -40.667 -23.5 -60
s4.83301 -41 17.5 -65c8.66699 -16.667 14.667 -32 18 -46s5 -32 5 -54c0 -28 -1.83301 -46.167 -5.5 -54.5s-16.5 -23.5 -38.5 -45.5c-34.667 -34.667 -72.834 -60.5 -114.501 -77.5s-78.5 -21.833 -110.5 -14.5c-25.333 5.33301 -40.166 11.5 -44.499 18.5
s-5.16602 24.167 -2.49902 51.5c4.66699 36.667 12 67.167 22 91.5s28.667 56.833 56 97.5c11.333 16 17 26 17 30s-12 19 -36 45c-14.667 16 -24.167 28.667 -28.5 38s-6.5 22 -6.5 38c0 26 9.83301 52.5 29.5 79.5s39.167 40.833 58.5 41.5c6.66699 0 18.5 6 35.5 18
s30.5 18 40.5 18zM184 206.999c14 8.66699 24.499 18.001 31.499 28.001s10.333 19 10 27s-2 15.333 -5 22s-6.33301 11.667 -10 15s-6.16699 5 -7.5 5c-10 0 -25.667 -14.5 -47 -43.5s-32 -50.167 -32 -63.5c0 -9.33301 11.333 -10.333 34 -3
c8.66699 3.33301 17.334 7.66602 26.001 12.999z" />
    <glyph glyph-name="nine" unicode="9" horiz-adv-x="322" 
d="M20 521c6.66699 24.667 16.666 47.498 29.999 68.498s27.333 38.167 42 51.5s29.167 24.833 43.5 34.5s26.333 16.667 36 21s16.167 6.5 19.5 6.5c10 0 26.5 -10.167 49.5 -30.5s40.833 -40.5 53.5 -60.5c9.33301 -15.333 15 -27.333 17 -36s1.33301 -20.667 -2 -36
c-10 -52 -10 -166.667 0 -344c4 -68.667 4.16699 -114.834 0.5 -138.501s-13.834 -43.167 -30.501 -58.5c-24.667 -22.667 -48.667 -10 -72 38c-9.33301 18.667 -15.166 37.167 -17.499 55.5s-3.5 56.5 -3.5 114.5c0 76.667 -2.33301 118.334 -7 125.001
c-2 3.33301 -5.66699 5.33301 -11 6c-8.66699 1.33301 -16.167 -0.333984 -22.5 -5.00098s-11.666 -9.16699 -15.999 -13.5s-12 -6.16602 -23 -5.49902s-24.833 6.33398 -41.5 17.001c-12 6.66699 -20.667 14.834 -26 24.501s-11.333 27.167 -18 52.5
c-7.33301 28 -11 47.667 -11 59s3.33301 29.333 10 54zM172.999 526.998c0 16.667 -4 24.666 -12 23.999c-9.33301 -1.33301 -18.333 -14 -27 -38c-4 -11.333 -3.83301 -19.166 0.5 -23.499s11.5 -3.83301 21.5 1.5c11.333 6 17 18 17 36z" />
    <glyph glyph-name="colon" unicode=":" horiz-adv-x="240" 
d="M10 144c0 22 2.83105 38.332 8.49805 48.999s13.334 15.334 23.001 14.001s18.667 -4.33301 27 -9s16.833 -10.667 25.5 -18c13.333 -12 21.833 -22 25.5 -30s5.5 -21 5.5 -39c0 -24 -3.16699 -40.5 -9.5 -49.5s-18.166 -13.5 -35.499 -13.5c-18.667 0 -35 9.5 -49 28.5
s-21 41.5 -21 67.5zM117.998 532.999c12 12 27.0029 13.668 45.0029 5.00098s34.667 -25.667 50 -51c11.333 -18.667 17 -34.5 17 -47.5s-5.66699 -26.833 -17 -41.5c-12.667 -15.333 -24.834 -22.333 -36.501 -21s-25.834 11.333 -42.501 30
c-10.667 12.667 -17.834 23.667 -21.501 33s-5.5 22.666 -5.5 39.999c0 28 3.66699 45.667 11 53z" />
    <glyph glyph-name="semicolon" unicode=";" horiz-adv-x="256" 
d="M46 90c7.33301 22 15.335 38.3311 24.002 48.998s18.167 15.334 28.5 14.001s19.666 -4.5 27.999 -9.5s18.166 -12.833 29.499 -23.5c18.667 -18 30 -33.333 34 -46s3 -33.334 -3 -62.001c-4 -18.667 -20 -42.5 -48 -71.5s-49.333 -43.5 -64 -43.5
c-14 0 -27.333 7.83301 -40 23.5s-20.5 32.834 -23.5 51.501s-0.833008 35.334 6.5 50.001c8.66699 14 18 36.667 28 68zM132.002 469.998c5.33301 14.667 15.1689 21 29.502 19s31.166 -12.333 50.499 -31c21.333 -21.333 32.666 -41.333 33.999 -60s-7 -38 -25 -58
c-12 -14 -20.167 -21.5 -24.5 -22.5s-13.833 2.16699 -28.5 9.5c-50.667 25.333 -62.667 73 -36 143z" />
    <glyph glyph-name="less" unicode="&#x3c;" horiz-adv-x="461" 
d="M230 560c24.667 16 44 24.3369 58 25.0039s28.667 -6 44 -20c10.667 -10 17 -18.333 19 -25s1.66699 -18.334 -1 -35.001c-3.33301 -20.667 -8.33301 -35.167 -15 -43.5s-21 -18.5 -43 -30.5c-32 -17.333 -57.667 -33 -77 -47s-28.333 -23.667 -27 -29
c6 -18.667 48.667 -34 128 -46c32 -4.66699 54.167 -9.33398 66.5 -14.001s25.166 -13.334 38.499 -26.001c12.667 -12.667 20.834 -23.167 24.501 -31.5s5.5 -20.5 5.5 -36.5c0 -14.667 -1.5 -25.834 -4.5 -33.501s-9.16699 -15.167 -18.5 -22.5
c-13.333 -10 -27.833 -15.5 -43.5 -16.5s-28.5 2.83301 -38.5 11.5c-9.33301 8 -37.666 18.333 -84.999 31l-99 26c-18.667 5.33301 -40.667 15.666 -66 30.999c-25.333 14 -46.833 36.667 -64.5 68s-24.5 58 -20.5 80c5.33301 31.333 12.666 53.166 21.999 65.499
s28.666 25.5 57.999 39.5c19.333 8.66699 35 16.834 47 24.501s19.667 13.334 23 17.001s6.33301 6.66699 9 9s6 3.5 10 3.5c6.66699 0 23.334 8.33301 50.001 25z" />
    <glyph glyph-name="equal" unicode="=" horiz-adv-x="474" 
d="M31 469c8 8 34.5 12.999 79.5 14.999s134.167 1.33301 267.5 -2c57.333 -0.666992 86 -21 86 -61c0 -20 -5.66699 -35.5 -17 -46.5s-29.333 -18.167 -54 -21.5c-30 -4 -45 -8 -45 -12s12.667 -9 38 -15c17.333 -4 28.166 -8 32.499 -12s6.83301 -13 7.5 -27
c1.33301 -12.667 0.5 -22.667 -2.5 -30s-9.83301 -16 -20.5 -26c-10 -10 -21 -17 -33 -21s-24.833 -6.66699 -38.5 -8s-41.167 -4.16602 -82.5 -8.49902s-85 -9.83301 -131 -16.5c-48 -6.66699 -78.167 -7.66699 -90.5 -3s-18.166 19.667 -17.499 45
c2.66699 106 5.16699 172.333 7.5 199s6.83301 43.667 13.5 51z" />
    <glyph glyph-name="greater" unicode="&#x3e;" horiz-adv-x="453" 
d="M42 537c10 13.333 19.668 20.8311 29.001 22.498s22.333 -2.16602 39 -11.499c26.667 -14 88.334 -32.333 185.001 -55c47.333 -10.667 84.333 -28.5 111 -53.5s39 -52.333 37 -82s-18.667 -56.834 -50 -81.501c-22 -17.333 -40.833 -30.666 -56.5 -39.999
s-53.834 -30.333 -114.501 -63c-30.667 -16 -66.667 -33.5 -108 -52.5s-64.333 -28.5 -69 -28.5c-11.333 0 -20.333 8.5 -27 25.5s-9.33398 38.167 -8.00098 63.5c2 25.333 6.83301 43 14.5 53s25.167 21 52.5 33c106 45.333 159 73.333 159 84
c0 6.66699 -12.5 13.834 -37.5 21.501s-47.5 11.5 -67.5 11.5c-36 0 -65.667 11.667 -89 35c-12.667 12 -19 30.667 -19 56s6.33301 46 19 62z" />
    <glyph glyph-name="question" unicode="?" horiz-adv-x="316" 
d="M138 505c0 4.66699 4.50586 11.6602 13.5059 20.9932s13.5 17 13.5 23s-2.83301 9.66699 -8.5 11s-12.334 0.5 -20.001 -2.5s-14.5 -7.83301 -20.5 -14.5c-8.66699 -9.33301 -21.334 -14.666 -38.001 -15.999s-28.334 2 -35.001 10c-5.33301 7.33301 -10 23 -14 47
c-2.66699 16.667 -2.83398 28.334 -0.500977 35.001s9.5 15.667 21.5 27c20.667 18.667 53.667 36 99 52s80 17.667 104 5c13.333 -7.33301 25.5 -21.666 36.5 -42.999s16.5 -40.666 16.5 -57.999c0 -20 -7.16699 -46.167 -21.5 -78.5s-30.5 -59.166 -48.5 -80.499
c-18 -20.667 -27 -33.667 -27 -39s-6 -13.333 -18 -24c-15.333 -14.667 -29.833 -40 -43.5 -76s-22.5 -72.667 -26.5 -110c-3.33301 -33.333 -4.33301 -54.666 -3 -63.999s6.66602 -19 15.999 -29c20 -22 29.167 -48.167 27.5 -78.5s-13 -49 -34 -56s-37.5 -6 -49.5 3
s-20.667 27.167 -26 54.5c-5.33301 24.667 -7.33301 42.834 -6 54.501s1.66602 20 0.999023 25s-5 9.5 -13 13.5c-14 8 -21.833 26.833 -23.5 56.5s1.83301 62.667 10.5 99s21.5 73.333 38.5 111s35.833 67.5 56.5 89.5c14.667 15.333 22 26 22 32z" />
    <glyph glyph-name="at" unicode="@" horiz-adv-x="629" 
d="M353 684c28.667 4.66699 55.166 5.49609 79.499 2.49609s44 -7.33301 59 -13s28.5 -11 40.5 -16s20 -7.5 24 -7.5c8.66699 0 18.667 -10 30 -30s19.333 -42 24 -66c6.66699 -30.667 9.83398 -77.5 9.50098 -140.5s-4.16602 -106.833 -11.499 -131.5
c-12.667 -44 -43 -77.667 -91 -101c-17.333 -8.66699 -32.333 -14.167 -45 -16.5s-22 -2.16602 -28 0.500977l-18.5 8c-6.33301 2.66699 -11.833 4.66699 -16.5 6s-12 0 -22 -4c-50.667 -23.333 -101 -33.666 -151 -30.999c-8.66699 0.666992 -23.834 9.66699 -45.501 27
s-32.5 36 -32.5 56c0 8 -0.833008 14 -2.5 18s-4.16699 5.33301 -7.5 4c-14.667 -4.66699 -22.667 -31 -24 -79c-0.666992 -18 4 -32 14 -42s35 -26 75 -48c30.667 -17.333 63 -25.666 97 -24.999s65 10 93 28s48.333 27 61 27c13.333 0 26.333 -7.5 39 -22.5
s20.667 -32.167 24 -51.5s-1.33398 -35.666 -14.001 -48.999s-40 -30.666 -82 -51.999c-24.667 -12.667 -44.334 -20.667 -59.001 -24s-36 -5 -64 -5c-16.667 0 -29.667 0.333008 -39 1s-19.166 2.5 -29.499 5.5s-17.833 5.83301 -22.5 8.5s-15 8.16699 -31 16.5
s-30.333 15.5 -43 21.5c-46 23.333 -81 56.833 -105 100.5s-32.667 89.5 -26 137.5c12.667 82.667 36.167 160 70.5 232s75.333 130.667 123 176s96.834 71.666 147.501 78.999zM530.999 503.996c-4 7.33301 -11.668 15.5 -23.001 24.5s-25.666 18 -42.999 27
s-37.5 13.167 -60.5 12.5s-45.5 -8.33398 -67.5 -23.001l-20 -13l33 -12c24 -7.33301 46.667 -23.333 68 -48s32 -46.667 32 -66s5.33301 -35.166 16 -47.499s22.667 -16.5 36 -12.5c21.333 6 35.5 27.333 42.5 64s2.5 68 -13.5 94z" />
    <glyph glyph-name="A" unicode="A" horiz-adv-x="473" 
d="M148 664c10 12 17.9951 19.8369 23.9951 23.5039s13 4.16699 21 1.5c21.333 -5.33301 38.833 -15.833 52.5 -31.5s31.167 -45.834 52.5 -90.501c80.667 -164.667 130.334 -278 149.001 -340l16 -55l-25 -27c-19.333 -19.333 -37.333 -27.833 -54 -25.5
s-30.667 15.166 -42 38.499c-8.66699 17.333 -15.667 35.166 -21 53.499s-8.83301 31.166 -10.5 38.499s-5.66699 13.833 -12 19.5s-15.166 7.66699 -26.499 6s-28.666 -5.83398 -51.999 -12.501c-28.667 -8.66699 -48.834 -19.5 -60.501 -32.5s-17.5 -30.833 -17.5 -53.5
c0 -19.333 -3.66699 -35.166 -11 -47.499s-17 -20.166 -29 -23.499c-17.333 -4 -31.666 -3.33301 -42.999 2s-22 16.666 -32 33.999c-11.333 18.667 -16.666 39 -15.999 61s4.33398 42.333 11.001 61l29.5 80.5c13 35 23.167 67.5 30.5 97.5c4 16 9.83301 36.833 17.5 62.5
s13.667 47 18 64s6.5 30.5 6.5 40.5c0 16 8 34.333 24 55zM218.995 427.004c6.66699 -6.66699 12 -5.99902 16 2.00098c3.33301 7.33301 2.33301 13.666 -3 18.999c-6.66699 6.66699 -12 5.66699 -16 -3c-3.33301 -6.66699 -2.33301 -12.667 3 -18z" />
    <glyph glyph-name="B" unicode="B" horiz-adv-x="500" 
d="M158 689c16.667 11.333 40.5 16.1709 71.5 14.5039s56.5 -8.83398 76.5 -21.501c33.333 -21.333 54.5 -39.833 63.5 -55.5s13.5 -41.167 13.5 -76.5c0 -20 -0.666992 -38.167 -2 -54.5s-2.83301 -27.5 -4.5 -33.5s-2.33398 -11.5 -2.00098 -16.5
s1.66602 -8.5 3.99902 -10.5s7.5 -4.66699 15.5 -8c15.333 -8 35 -26 59 -54c17.333 -20.667 27.666 -36 30.999 -46s5 -30.667 5 -62l1 -65l-40 -37c-19.333 -18 -52.166 -39.333 -98.499 -64s-82.5 -40 -108.5 -46c-11.333 -2.66699 -20.5 -2.33398 -27.5 0.999023
s-17.5 11.833 -31.5 25.5s-24.167 21.834 -30.5 24.501s-13.166 2 -20.499 -2c-21.333 -11.333 -40.666 -13 -57.999 -5s-29.333 24 -36 48c-2.66699 7.33301 -5.5 14.166 -8.5 20.499s-5.16699 11.333 -6.5 15s-2 10.834 -2 21.501s1.33301 25.667 4 45
c2.66699 31.333 2.66699 63.666 0 96.999s-6.33398 63.5 -11.001 90.5s-6.16699 50.333 -4.5 70s8.83398 31.5 21.501 35.5c14 5.33301 25.167 13.166 33.5 23.499s12.5 21.166 12.5 32.499c0 12 7.33301 26.5 22 43.5s34 33.5 58 49.5zM259 553.005
c-6 9.33301 -18.002 10.166 -36.002 2.49902s-38 -22.167 -60 -43.5l-34 -33l6 -67c8.66699 -98 14.667 -153.667 18 -167c2.66699 -10 12.667 -20.333 30 -31s32.666 -16 45.999 -16c16.667 0 44.334 12.833 83.001 38.5s58 43.834 58 54.501c0 8 -7.5 14 -22.5 18
s-30.5 4 -46.5 0c-31.333 -8 -54.166 -10.167 -68.499 -6.5s-29.166 15.5 -44.499 35.5c-20.667 26.667 -30.667 49.667 -30 69s11.667 38.333 33 57c20.667 18 38 36.167 52 54.5s19.333 29.833 16 34.5z" />
    <glyph glyph-name="C" unicode="C" horiz-adv-x="433" 
d="M174 624c20.667 14.667 37.6641 22.5049 50.9971 23.5049s32.333 -4.16699 57 -15.5c12 -6 21 -11.667 27 -17s10 -10.333 12 -15s5.5 -14.334 10.5 -29.001s10.5 -29 16.5 -43c11.333 -25.333 16 -52 14 -80c-1.33301 -18.667 -3.33301 -30.334 -6 -35.001s-9 -7 -19 -7
c-8.66699 0 -16 3 -22 9s-13.333 17.667 -22 35c-14.667 29.333 -25.667 45 -33 47c-3.33301 1.33301 -8.83301 -0.166992 -16.5 -4.5s-16.667 -11.833 -27 -22.5s-20.666 -23.334 -30.999 -38.001s-20.333 -33.5 -30 -56.5s-17.167 -47.5 -22.5 -73.5
c-6.66699 -30.667 -7.33398 -54 -2.00098 -70s17 -26.333 35 -31c14.667 -3.33301 38.834 -1.33301 72.501 6s60.167 16.666 79.5 27.999c53.333 30.667 88 15 104 -47c3.33301 -14.667 -2.16699 -30.834 -16.5 -48.501s-35.166 -33.5 -62.499 -47.5
c-16.667 -8 -32.5 -13.333 -47.5 -16s-37.167 -4 -66.5 -4c-31.333 0 -53.666 1.33301 -66.999 4s-28.333 8.66699 -45 18c-32.667 19.333 -58.667 47 -78 83s-29 75 -29 117c0 49.333 18 110.333 54 183s72.667 121.667 110 147z" />
    <glyph glyph-name="D" unicode="D" horiz-adv-x="496" 
d="M80 623c7.33301 9.33301 13.666 16.501 18.999 21.501s11.333 8.66699 18 11s12.5 3.83301 17.5 4.5s13.333 1.5 25 2.5s22.167 2.16699 31.5 3.5c10 1.33301 31.167 -1.83398 63.5 -9.50098s57.833 -15.834 76.5 -24.501c26 -12 51.667 -31.333 77 -58
s44.333 -55 57 -85c8.66699 -19.333 14.334 -37.666 17.001 -54.999s4 -43.666 4 -78.999c0.666992 -38 -0.333008 -64.333 -3 -79s-9 -31.334 -19 -50.001c-26 -50 -59.333 -86 -100 -108s-86.334 -28.667 -137.001 -20c-25.333 4 -41.666 5.5 -48.999 4.5
s-15.333 -5.83301 -24 -14.5c-22.667 -24.667 -44.5 -33.167 -65.5 -25.5s-36.833 29.834 -47.5 66.501c-8 28 -15.5 86.5 -22.5 175.5s-9.5 158.167 -7.5 207.5c0.666992 24 1.5 40.667 2.5 50s3.16699 15.666 6.5 18.999s6.83301 4.83301 10.5 4.5s10.167 2.5 19.5 8.5
s19.333 15.667 30 29zM316 491.001c-15.333 11.333 -28.5 18.502 -39.5 21.502s-29.5 4.5 -55.5 4.5c-38 0 -62.167 -6.33301 -72.5 -19s-15.5 -42.334 -15.5 -89.001c0.666992 -82.667 12.334 -136.834 35.001 -162.501s59.667 -26.834 111 -3.50098
c10.667 4.66699 22.667 12.334 36 23.001s24.666 21 33.999 31c13.333 16 22 28.833 26 38.5s6 24.5 6 44.5c0 25.333 -4.5 45.5 -13.5 60.5s-26.167 31.833 -51.5 50.5z" />
    <glyph glyph-name="E" unicode="E" horiz-adv-x="473" 
d="M153 599c158 4 243.666 2 256.999 -6c6.66699 -4 14.667 -15.333 24 -34c6.66699 -13.333 9.66699 -22.166 9 -26.499s-6.33398 -11.5 -17.001 -21.5c-16 -16 -56 -30.833 -120 -44.5s-103.333 -20.5 -118 -20.5c-17.333 0 -27.666 -4.66699 -30.999 -14
c-6 -15.333 0 -24 18 -26c14.667 -1.33301 42 1 82 7s66.167 9 78.5 9s25.5 -3.33301 39.5 -10s24.667 -15.334 32 -26.001s10.833 -22.167 10.5 -34.5s-7.33301 -24.833 -21 -37.5s-33.834 -23.334 -60.501 -32.001c-21.333 -7.33301 -43.666 -15.5 -66.999 -24.5
s-39.333 -14.5 -48 -16.5c-12 -2 -19 -7 -21 -15c2 -5.33301 6.33301 -8.66602 13 -9.99902c11.333 0 30.333 2.83301 57 8.5l74.5 16.5c23 5.33301 45.5 7.16602 67.5 5.49902s36.333 -8.83398 43 -21.501c12.667 -23.333 11 -46.333 -5 -69s-41 -38 -75 -46
c-22 -4.66699 -44.5 -11.834 -67.5 -21.501s-38.833 -14.5 -47.5 -14.5c-8 0 -17.167 -2 -27.5 -6s-20.166 -8.16699 -29.499 -12.5s-23 -7.83301 -41 -10.5s-39 -2 -63 2c-4 0.666992 -13.333 13.667 -28 39c-9.33301 16 -15.5 30.667 -18.5 44s-4.5 33.333 -4.5 60
c0 38.667 -3.16699 85.667 -9.5 141s-12.166 88.333 -17.499 99c-5.33301 9.33301 -8.66602 33.333 -9.99902 72c-0.666992 10.667 -1 19.334 -1 26.001s0.166992 13.5 0.5 20.5s1.83301 12.5 4.5 16.5s5.16699 8 7.5 12s6.66602 7 12.999 9l18 5.5
c5.66699 1.66699 14.167 2.83398 25.5 3.50098l32.5 2c10.333 0.666992 24.166 1.33398 41.499 2.00098z" />
    <glyph glyph-name="F" unicode="F" horiz-adv-x="403" 
d="M81 553c14 0 35.5 5.6709 64.5 17.0039s60.5 17 94.5 17c25.333 0 43.166 -1.33301 53.499 -4s21.166 -8.66699 32.499 -18c13.333 -11.333 24.666 -27.833 33.999 -49.5s11.333 -36.5 6 -44.5c-10.667 -17.333 -48 -27 -112 -29
c-34.667 -1.33301 -59.334 -6.5 -74.001 -15.5s-21 -22.833 -19 -41.5c1.33301 -10.667 5 -17 11 -19c7.33301 -2.66699 34 -4 80 -4c48 0 81.167 -3 99.5 -9s31.166 -18 38.499 -36c12.667 -34 -10.666 -61.333 -69.999 -82c-12.667 -4 -26.167 -7.83301 -40.5 -11.5
s-26.166 -6.5 -35.499 -8.5s-18.5 -4.16699 -27.5 -6.5s-15.833 -4.83301 -20.5 -7.5s-8.66699 -6.5 -12 -11.5s-4.66602 -11 -3.99902 -18s2.66699 -15.833 6 -26.5c5.33301 -16.667 7.33301 -28.334 6 -35.001s-7.66602 -18.334 -18.999 -35.001
c-36 -52 -73.667 -55.667 -113 -11c-10 10.667 -18.167 39.667 -24.5 87s-11.5 106.166 -15.5 176.499s-6.66699 111.166 -8 122.499c-2 24.667 -2.16699 41 -0.5 49s7.83398 17.667 18.501 29c14.667 16 31.667 24.333 51 25z" />
    <glyph glyph-name="G" unicode="G" horiz-adv-x="509" 
d="M187 588c3.33301 0 11.333 5.83008 24 17.4971s24.334 18.5 35.001 20.5c24 4.66699 45.833 -1.33301 65.5 -18s28.167 -36.667 25.5 -60c-0.666992 -12 -2.83398 -19.667 -6.50098 -23s-12.167 -5.66602 -25.5 -6.99902c-16 -1.33301 -33.5 -8.5 -52.5 -21.5
s-34.5 -28.5 -46.5 -46.5l-39 -58c-13.333 -20 -26.166 -46.667 -38.499 -80s-18.833 -58.333 -19.5 -75c0 -19.333 8.83301 -31.666 26.5 -36.999s34.834 -1 51.501 13c12.667 10.667 19.667 31.667 21 63c1.33301 18 3.5 31.5 6.5 40.5s9.83301 17 20.5 24
s24.167 11.833 40.5 14.5s40.5 5.66699 72.5 9c28.667 2 50.834 -1.66699 66.501 -11s34.5 -30.333 56.5 -63c10.667 -16 18 -29.833 22 -41.5s6 -25.167 6 -40.5c0 -25.333 -3.83301 -42.166 -11.5 -50.499s-22.5 -12.5 -44.5 -12.5c-16 0 -26.5 2 -31.5 6
s-11.167 15 -18.5 33c-8.66699 19.333 -18.834 33.166 -30.501 41.499s-22.5 9.5 -32.5 3.5c-5.33301 -3.33301 -8 -22.333 -8 -57c0 -25.333 -1.5 -41.166 -4.5 -47.499s-12.833 -14.5 -29.5 -24.5c-68.667 -42.667 -129.167 -54 -181.5 -34s-83.5 66 -93.5 138
c-5.33301 38 -4.5 82 2.5 132s17.5 88.667 31.5 116c9.33301 18 32.666 45.167 69.999 81.5s60.666 54.5 69.999 54.5z" />
    <glyph glyph-name="H" unicode="H" horiz-adv-x="521" 
d="M359 585c3.33301 11.333 12.999 14.832 28.999 10.499s29.667 -14.166 41 -29.499c10 -12.667 16.5 -25.667 19.5 -39s5.5 -40 7.5 -80c2.66699 -45.333 7.33398 -83.5 14.001 -114.5s12 -74.167 16 -129.5c5.33301 -71.333 11.333 -115.666 18 -132.999
c10.667 -26.667 9.5 -48 -3.5 -64s-32.5 -20.333 -58.5 -13c-16.667 4 -29.5 16.333 -38.5 37s-14.5 42.334 -16.5 65.001s-4.16699 45.5 -6.5 68.5s-5.16602 37.5 -8.49902 43.5c-8 6.66699 -36.833 7 -86.5 1s-77.167 -10.667 -82.5 -14
c-11.333 -7.33301 -10 -38.333 4 -93c6.66699 -24.667 8.83398 -42.834 6.50098 -54.501s-10.5 -24.167 -24.5 -37.5c-9.33301 -10 -22.333 -14.667 -39 -14s-29.667 6.33398 -39 17.001c-6.66699 7.33301 -11 16.833 -13 28.5s-3 31.5 -3 59.5s-1 47.167 -3 57.5
s-6.16699 18.666 -12.5 24.999s-18.833 14.166 -37.5 23.499c-12.667 6 -20.834 12.167 -24.501 18.5s-5.83398 17.5 -6.50098 33.5c-4 46 9.33301 71 40 75l24 2v115c0 76.667 2.33301 118.667 7 126c12 18.667 30 13.334 54 -15.999c13.333 -15.333 22 -30 26 -44
s10 -47.667 18 -101l11 -80l82 -1c54.667 -0.666992 83.667 2.66602 87 9.99902c2 5.33301 -1 36.5 -9 93.5s-9.33301 93.5 -4 109.5z" />
    <glyph glyph-name="I" unicode="I" horiz-adv-x="478" 
d="M220 568c6.66699 10 17.834 16.3281 33.501 18.9951s27.5 0.333984 35.5 -6.99902c5.33301 -5.33301 22.166 -11.333 50.499 -18s50.833 -10 67.5 -10c22 0 39.667 -11.5 53 -34.5s12.333 -40.833 -3 -53.5c-7.33301 -6 -30 -13 -68 -21l-57 -11v-203l27 -8
c17.333 -5.33301 39.333 -14.333 66 -27c18 -8 29.167 -14.833 33.5 -20.5s6.5 -15.167 6.5 -28.5s-2.16699 -22.5 -6.5 -27.5s-15.5 -10.833 -33.5 -17.5c-12 -4.66699 -24.333 -9 -37 -13s-21.5 -7 -26.5 -9l-15.5 -6c-5.33301 -2 -8.66602 -4.5 -9.99902 -7.5
s-2.33301 -6.5 -3 -10.5s-1.33398 -10.333 -2.00098 -19c0 -19.333 -5.83301 -35.333 -17.5 -48s-26.167 -19 -43.5 -19c-24 0 -41.667 20.333 -53 61l-9 32l-75 4c-50 3.33301 -78.667 7.33301 -86 12s-11 23.334 -11 56.001v23.5c0 5 1.5 10.5 4.5 16.5
s5.83301 9.83301 8.5 11.5s9 4.16699 19 7.5s19.5 5.83301 28.5 7.5s23.5 4.16699 43.5 7.5c43.333 8 67.333 16.667 72 26s5.33398 42 2.00098 98l-6 84l-85 -3c-41.333 -1.33301 -66.333 -1.16602 -75 0.500977s-16.667 8.16699 -24 19.5
c-16.667 26 -17.334 54.333 -2.00098 85l8.5 14c1.66699 2.66699 6.5 5.16699 14.5 7.5s16.667 3.83301 26 4.5s26 1.33398 50 2.00098c38 1.33301 62.5 3.33301 73.5 6s19.5 8.33398 25.5 17.001z" />
    <glyph glyph-name="J" unicode="J" horiz-adv-x="413" 
d="M145 588c15.333 0 28.8369 3.66504 40.5039 10.998s26.167 12.333 43.5 15c30.667 6 52.167 8 64.5 6s26.166 -10.333 41.499 -25c13.333 -13.333 21.5 -24.5 24.5 -33.5s4.5 -28.167 4.5 -57.5c0 -32.667 3 -59.5 9 -80.5s12.167 -44.667 18.5 -71
s9.83301 -61.833 10.5 -106.5c0.666992 -44 -0.166016 -71.333 -2.49902 -82s-10.833 -25.334 -25.5 -44.001c-12 -15.333 -22.333 -25.833 -31 -31.5s-20.667 -11.334 -36 -17.001s-30 -12.5 -44 -20.5s-27.667 -13.5 -41 -16.5s-31.666 -4.5 -54.999 -4.5
c-51.333 0 -86.5 9 -105.5 27s-26.5 49.333 -22.5 94c3.33301 36 10.666 65.333 21.999 88s24.666 35 39.999 37c10.667 1.33301 18.5 -0.5 23.5 -5.5s12.833 -18.833 23.5 -41.5c11.333 -24 19.333 -38.167 24 -42.5s13.334 -5.16602 26.001 -2.49902
c21.333 4 41.333 12.667 60 26s29.5 26.5 32.5 39.5s1.66699 40.333 -4 82s-12.834 75.834 -21.501 102.501c-6.66699 20.667 -16.834 32.834 -30.501 36.501s-35.834 -0.166016 -66.501 -11.499c-32.667 -12.667 -58.834 -21.667 -78.501 -27s-35.667 -7.5 -48 -6.5
s-20.666 5 -24.999 12s-6.5 17.833 -6.5 32.5c0 29.333 14.167 56.333 42.5 81s59.166 37 92.499 37z" />
    <glyph glyph-name="K" unicode="K" horiz-adv-x="433" 
d="M57 647c2.66699 7.33301 7.83105 10.666 15.498 9.99902s21.5 -6 41.5 -16c16 -8.66699 27.333 -18.667 34 -30s10.334 -27 11.001 -47c0 -22 13.333 -23.333 40 -4c4 2.66699 9.66699 7 17 13c20 15.333 32.667 23 38 23s13.333 6 24 18
c9.33301 10 26.166 17.167 50.499 21.5s45.833 3.83301 64.5 -1.5c10.667 -2.66699 18 -6.33398 22 -11.001s6.33301 -12.334 7 -23.001c0.666992 -8 0.166992 -14.833 -1.5 -20.5s-9 -15.5 -22 -29.5s-29.167 -29.667 -48.5 -47l-93 -82
c-42.667 -37.333 -63 -61.666 -61 -72.999c1.33301 -8 30.333 -38.167 87 -90.5s85.334 -82.833 86.001 -91.5c2 -12.667 -3.5 -26.667 -16.5 -42s-26.167 -23 -39.5 -23c-14.667 0 -30.667 4.5 -48 13.5s-27.666 18.167 -30.999 27.5c-4 10.667 -17.667 25.834 -41 45.501
s-37 27.834 -41 24.501c-4 -4.66699 -6 -38 -6 -100c0 -44.667 -1.16699 -72.167 -3.5 -82.5s-9.5 -20.833 -21.5 -31.5c-16 -13.333 -28.167 -19.833 -36.5 -19.5s-19.5 7.83301 -33.5 22.5c-19.333 20 -31.333 40.5 -36 61.5s-5 57.167 -1 108.5c4 49.333 6 84.5 6 105.5
s-2.33301 53.833 -7 98.5c-2.66699 24 -3.5 40.5 -2.5 49.5s4.5 15.833 10.5 20.5c9.33301 8 14 20.333 14 37c0 13.333 3 41.5 9 84.5s10.333 69.833 13 80.5z" />
    <glyph glyph-name="L" unicode="L" horiz-adv-x="429" 
d="M43 521c2.66699 25.333 5.00098 43.8291 7.00098 55.4961s5.5 21.167 10.5 28.5s11.833 9.83301 20.5 7.5s21 -8.16602 37 -17.499c22 -13.333 35.333 -24 40 -32c8 -14 8.33301 -50 1 -108c-1.33301 -13.333 -5.66602 -46.333 -12.999 -99
c-2.66699 -25.333 -4.83398 -44.833 -6.50098 -58.5s-2.33398 -26.5 -2.00098 -38.5s1.33301 -20.5 3 -25.5s5.16699 -9 10.5 -12s11.333 -4.33301 18 -4s15.667 1.5 27 3.5c27.333 4 47.666 10 60.999 18c13.333 9.33301 29.333 13.333 48 12s36.5 -5.5 53.5 -12.5
s31.333 -17.167 43 -30.5s17.5 -27.333 17.5 -42c0 -6 -0.5 -11.333 -1.5 -16s-2.66699 -8.83398 -5 -12.501s-4.83301 -6.66699 -7.5 -9s-7 -4.5 -13 -6.5s-12 -3.83301 -18 -5.5s-14.167 -3.5 -24.5 -5.5s-20.5 -3.66699 -30.5 -5s-23 -3.5 -39 -6.5
s-31.667 -6.16699 -47 -9.5c-27.333 -5.33301 -49.5 -9.16602 -66.5 -11.499s-31.167 -2.66602 -42.5 -0.999023s-19.5 3.5 -24.5 5.5s-12.667 6 -23 12s-19.166 10.667 -26.499 14c-12.667 6 -21 12 -25 18c-6.66699 10.667 -11.167 31.834 -13.5 63.501
s-1.83301 60.834 1.5 87.501c14.667 105.333 24.667 186.333 30 243z" />
    <glyph glyph-name="M" unicode="M" horiz-adv-x="588" 
d="M389 650c11.333 0 20.3311 -3.00293 26.998 -9.00293s14.334 -9 23.001 -9c12 0 25.5 -13.833 40.5 -41.5s25.167 -57.5 30.5 -89.5c4 -24.667 10.833 -53.667 20.5 -87s14.5 -61.666 14.5 -84.999c0 -28.667 6.33301 -69.667 19 -123c9.33301 -40 14 -64.167 14 -72.5
s-4.33301 -18.5 -13 -30.5c-12 -16 -28.333 -25 -49 -27c-13.333 -1.33301 -23.166 -0.166016 -29.499 3.50098s-15.166 12.5 -26.499 26.5c-12 16 -19.5 31.5 -22.5 46.5s-5.83301 52.833 -8.5 113.5c-4.66699 92 -12.334 139.667 -23.001 143
c-4.66699 1.33301 -10.667 -3 -18 -13c-25.333 -30 -52.5 -47.667 -81.5 -53s-56.5 2.66699 -82.5 24c-16 13.333 -25.833 20.333 -29.5 21s-7.83398 -3.33301 -12.501 -12c-6 -12 -9 -59 -9 -141c0 -59.333 -1 -95.5 -3 -108.5s-7.33301 -22.833 -16 -29.5
c-16 -10.667 -36 -14.334 -60 -11.001s-36 11.666 -36 24.999c0 6 -4 18.333 -12 37c-7.33301 16 -13.5 72 -18.5 168s-9.83301 153.667 -14.5 173c-10 44.667 4.66699 69.334 44 74.001c9.33301 0.666992 15.666 3.16699 18.999 7.5s5.66602 12.5 6.99902 24.5
c2 20.667 9.83301 33.834 23.5 39.501s31.834 2.83398 54.501 -8.49902c15.333 -7.33301 27.5 -16.333 36.5 -27s23.167 -33 42.5 -67c26.667 -48 61.334 -26 104.001 66c10 21.333 17.833 35.333 23.5 42s12.834 10 21.501 10z" />
    <glyph glyph-name="N" unicode="N" horiz-adv-x="463" 
d="M50 559c25.333 23.333 46.834 35.667 64.501 37s36.167 -8.33398 55.5 -29.001c10 -10 17.333 -19.667 22 -29s9 -19.666 13 -30.999s13.667 -34 29 -68s35.666 -74.333 60.999 -121c6 -12 12.167 -19 18.5 -21s11.166 1.66699 14.499 11
c2 4.66699 1.83301 20.5 -0.5 47.5s-5.5 59.167 -9.5 96.5s-6.33301 66.333 -7 87l-1 53l31 3c21.333 1.33301 39.5 -4.16699 54.5 -16.5s25.833 -30.5 32.5 -54.5c13.333 -54 21.333 -97.833 24 -131.5s1.33398 -79.167 -3.99902 -136.5
c-6 -62.667 -13.167 -104.334 -21.5 -125.001s-23.5 -34 -45.5 -40c-17.333 -4.66699 -32.166 -3 -44.499 5s-30.5 28 -54.5 60c-14.667 19.333 -28 38 -40 56s-21 32.333 -27 43l-16 28c-4.66699 8 -8.33398 13.5 -11.001 16.5s-5.66699 3.83301 -9 2.5
c-6.66699 -2 -11.834 -21 -15.501 -57s-4.16699 -72.333 -1.5 -109c2 -28 2.16699 -45.667 0.5 -53s-8.5 -15.666 -20.5 -24.999c-16.667 -12.667 -31.334 -19 -44.001 -19s-27.167 6.5 -43.5 19.5s-27.166 26.167 -32.499 39.5c-5.33301 14 -8.66602 88 -9.99902 222
l-2 201z" />
    <glyph glyph-name="O" unicode="O" horiz-adv-x="427" 
d="M49 567c7.33301 12 14.834 18.334 22.501 19.001s23.5 -3.33301 47.5 -12c15.333 -5.33301 26.166 -8 32.499 -8s13.833 3 22.5 9c26 17.333 63.667 14.333 113 -9c32 -14.667 55.833 -32.334 71.5 -53.001s29.834 -53 42.501 -97c19.333 -66 21.666 -126 6.99902 -180
c-7.33301 -25.333 -29.333 -56.833 -66 -94.5s-67 -59.834 -91 -66.501c-38 -10 -68.667 -11.833 -92 -5.5s-45 22.5 -65 48.5s-34.833 52 -44.5 78s-19.167 65.333 -28.5 118c-7.33301 40 -11 67.833 -11 83.5s3.66699 40.834 11 75.501c10 50 19.333 81.333 28 94z
M286.001 447.001c-12 13.333 -26.832 18 -44.499 14s-42.167 -18.333 -73.5 -43c-12 -9.33301 -20 -17.5 -24 -24.5s-6 -16.5 -6 -28.5c0 -18 3.33301 -47.333 10 -88s11.667 -64 15 -70c6.66699 -10.667 20 -10.667 40 0s39.833 27.5 59.5 50.5s32.5 44.833 38.5 65.5
c6 23.333 7.66699 47 5 71s-9.33398 41.667 -20.001 53z" />
    <glyph glyph-name="P" unicode="P" horiz-adv-x="401" 
d="M51 623c11.333 0 22.1699 3.49902 32.5029 10.499s22.166 14.333 35.499 22s29.333 12.167 48 13.5c26 2.66699 47.667 2.66699 65 0c19.333 -2.66699 42.333 -12.667 69 -30s47.667 -35.666 63 -54.999c12.667 -15.333 20.5 -28.166 23.5 -38.499
s4.16699 -31.5 3.5 -63.5c0 -30.667 -1.5 -51.834 -4.5 -63.501s-9.83301 -25.834 -20.5 -42.501c-12 -17.333 -27.833 -32.166 -47.5 -44.499s-56.167 -29.833 -109.5 -52.5l-43 -18v-54c0 -22.667 -1.33301 -38.667 -4 -48s-8.66699 -18.666 -18 -27.999
c-16.667 -16 -34.834 -23.333 -54.501 -22s-36.5 11.333 -50.5 30c-12.667 16 -19.334 31.833 -20.001 47.5s0.5 43.167 3.5 82.5s0.833008 103.666 -6.5 192.999c-6.66699 83.333 -7 132 -1 146c4.66699 10 16.667 15 36 15zM255.004 533.999
c-10.667 5.33301 -17.667 7.83105 -21 7.49805s-10.333 -4.16602 -21 -11.499c-18.667 -12.667 -32 -37 -40 -73c-7.33301 -30.667 -4 -46 10 -46c8 0 24.833 13.833 50.5 41.5s38.5 45.834 38.5 54.501c0 4.66699 -1.66699 9.66699 -5 15s-7.33301 9.33301 -12 12z" />
    <glyph glyph-name="Q" unicode="Q" horiz-adv-x="612" 
d="M452 465c0 -13.333 7.50293 -39.8301 22.5029 -79.4971s22.5 -63.5 22.5 -71.5c0 -11.333 13.667 -23.666 41 -36.999c52.667 -26 72.667 -57.333 60 -94c-2 -5.33301 -3.83301 -9.33301 -5.5 -12s-3.66699 -5.16699 -6 -7.5s-7.16602 -3.83301 -14.499 -4.5
s-14.833 -1.16699 -22.5 -1.5s-20.834 -0.833008 -39.501 -1.5c-26 -1.33301 -45 -2.83301 -57 -4.5s-20.833 -3.66699 -26.5 -6s-15.834 -8 -30.501 -17s-30.334 -17.833 -47.001 -26.5c-23.333 -12 -42.333 -19.667 -57 -23s-35.667 -5 -63 -5h-66l-57 56
c-27.333 26 -44.333 44.5 -51 55.5s-12.667 29.833 -18 56.5c-3.33301 18.667 -7.16602 36.667 -11.499 54s-7.33301 29.666 -9 36.999s-3.16699 17.833 -4.5 31.5s-2 30.5 -2 50.5c0 26.667 1.5 46.167 4.5 58.5s9.83301 26.833 20.5 43.5
c16.667 26.667 42 55.334 76 86.001c27.333 24.667 49.5 39.334 66.5 44.001s34.167 1 51.5 -11c12 -8 22.667 -20.833 32 -38.5s14 -32.834 14 -45.501c0 -9.33301 -8.83301 -23.5 -26.5 -42.5s-30.834 -28.5 -39.501 -28.5c-15.333 0 -29.333 -16.667 -42 -50
s-18.334 -68 -17.001 -104c4 -86 23.667 -129 59 -129c10.667 0 30.334 5.83301 59.001 17.5s43 19.5 43 23.5c0 3.33301 -9 16.333 -27 39c-10 12.667 -16.833 24.167 -20.5 34.5s-5.5 23.166 -5.5 38.499c0 26.667 4.5 43.667 13.5 51s25.5 7.66602 49.5 0.999023
c24 -7.33301 37.333 -9.66602 40 -6.99902c1.33301 2 -1.16699 8.16699 -7.5 18.5s-13.166 22.166 -20.499 35.499s-11.5 28.333 -12.5 45s5.16699 32 18.5 46c13.333 13.333 24.166 19.166 32.499 17.499s23.166 -12.834 44.499 -33.501c24 -23.333 36 -43.333 36 -60z" />
    <glyph glyph-name="R" unicode="R" horiz-adv-x="483" 
d="M35 633c7.33301 2 13.332 3.00098 17.999 3.00098s9.5 -0.5 14.5 -1.5s15.833 -2.66699 32.5 -5s36.334 -4.5 59.001 -6.5c44.667 -4 81.334 -11.833 110.001 -23.5s54 -29.167 76 -52.5c28 -29.333 41.333 -60.666 40 -93.999s-17.666 -70.333 -48.999 -111
c-24 -32 -35.333 -52.667 -34 -62c2 -7.33301 12.667 -14.5 32 -21.5s31.666 -13.833 36.999 -20.5c7.33301 -8.66699 16 -13 26 -13c9.33301 0 23.166 -9.33301 41.499 -28s29.5 -34.667 33.5 -48c4 -12.667 -1.5 -25.334 -16.5 -38.001s-31.167 -19 -48.5 -19
c-16.667 0 -52 10.333 -106 31c-24 9.33301 -42.333 16.166 -55 20.499s-23.167 7.16602 -31.5 8.49902s-13.833 1.16602 -16.5 -0.500977s-4 -4.83398 -4 -9.50098c0 -9.33301 -9.5 -21.5 -28.5 -36.5s-34.167 -22.5 -45.5 -22.5c-16.667 0 -32.667 11.833 -48 35.5
s-23.666 49.834 -24.999 78.501c-4.66699 71.333 -10 134.833 -16 190.5s-10.667 85.834 -14 90.501c-6 6.66699 -8.33301 33.334 -7 80.001c1.33301 32.667 3.16602 52.5 5.49902 59.5s8.83301 12.167 19.5 15.5zM234.999 470.001
c-3.33301 8.66699 -15.332 12.668 -35.999 12.001s-35.334 -5.66699 -44.001 -15c-10 -10 -13.667 -25.333 -11 -46c4 -22 9.16699 -34.5 15.5 -37.5s17.833 1.83301 34.5 14.5c16 11.333 27.667 23.666 35 36.999s9.33301 25 6 35z" />
    <glyph glyph-name="S" unicode="S" horiz-adv-x="503" 
d="M275 632c3.33301 0 9.83691 2.83398 19.5039 8.50098l27.5 16.5c8.66699 5.33301 18.667 8.66602 30 9.99902s20.666 -2.33398 27.999 -11.001c7.33301 -7.33301 16.166 -13.666 26.499 -18.999s17.166 -11 20.499 -17s5 -17.333 5 -34c0 -22 -5.83301 -40.5 -17.5 -55.5
s-26.167 -22.5 -43.5 -22.5c-18.667 0 -45 -9.66699 -79 -29s-62.833 -39.5 -86.5 -60.5s-33.167 -33.833 -28.5 -38.5c4 -4.66699 23 -7.66699 57 -9c50.667 -3.33301 98.5 -16.333 143.5 -39s77.833 -50.667 98.5 -84c19.333 -31.333 23 -64.666 11 -99.999
s-36.333 -63.333 -73 -84c-31.333 -16.667 -52 -25 -62 -25s-25 -5.16699 -45 -15.5s-65.333 -16.5 -136 -18.5c-52.667 -1.33301 -84.5 -1.16602 -95.5 0.500977s-21.833 8.16699 -32.5 19.5c-8.66699 9.33301 -14.5 18.666 -17.5 27.999s-4.5 23.333 -4.5 42
c0 20.667 1 33.667 3 39s7.66699 8.66602 17 9.99902c14 2 24.333 -0.333008 31 -7c8 -6 22.667 -9.16699 44 -9.5s46.5 2.5 75.5 8.5s56.333 12.833 82 20.5s47 16.334 64 26.001s24.167 18.5 21.5 26.5c-2.66699 7.33301 -19.5 14.666 -50.5 21.999s-61.167 11 -90.5 11
c-62.667 0 -109.5 8.83301 -140.5 26.5s-51.5 47.5 -61.5 89.5c-4.66699 17.333 -6.66699 30.333 -6 39s3.66699 18.667 9 30c8 14.667 29.667 38.5 65 71.5s66.666 58.5 93.999 76.5l61 40c16 11.333 28 17 36 17z" />
    <glyph glyph-name="T" unicode="T" horiz-adv-x="565" 
d="M204 610c4.66699 6 11.3311 11.502 19.998 16.502s15.667 8.5 21 10.5s8.66602 3 9.99902 3c2.66699 0.666992 14.334 -4 35.001 -14c14 -6.66699 27.5 -10.334 40.5 -11.001s37.833 1.33301 74.5 6c38.667 5.33301 63.834 7.66602 75.501 6.99902
s23.834 -4.66699 36.501 -12c18.667 -10.667 30.667 -25.334 36 -44.001s2.33301 -34.334 -9 -47.001c-13.333 -14.667 -26.833 -24.5 -40.5 -29.5s-38.5 -9.5 -74.5 -13.5c-44 -5.33301 -73.333 -12.666 -88 -21.999l-22 -15l4 -129
c1.33301 -46 3.83301 -84.833 7.5 -116.5s6.5 -51.834 8.5 -60.501s2.66699 -15.834 2 -21.501s-3.66699 -12.834 -9 -21.501c-20 -30 -45 -41.667 -75 -35c-9.33301 2 -16.5 4 -21.5 6s-9.66699 6.16699 -14 12.5s-7.5 13.333 -9.5 21s-3.66699 19.834 -5 36.501
s-2.16602 34.334 -2.49902 53.001s-0.5 44.334 -0.5 77.001c0 92.667 -2.66699 145.334 -8 158.001c-4.66699 10.667 -15.667 12.667 -33 6c-3.33301 -0.666992 -9 -2.66699 -17 -6c-20.667 -8.66699 -43.834 -13.167 -69.501 -13.5s-42 3.5 -49 11.5
s-12.167 27.333 -15.5 58c-4 29.333 -1.16699 50 8.5 62s27.834 18 54.501 18c21.333 0 45.666 5.16699 72.999 15.5s46 21.5 56 33.5z" />
    <glyph glyph-name="U" unicode="U" horiz-adv-x="471" 
d="M21 620c8.66699 13.333 20.833 19.998 36.5 19.998s30.5 -6.33301 44.5 -19c11.333 -10.667 17.833 -27 19.5 -49s-1.16602 -60 -8.49902 -114c-5.33301 -40.667 -4.5 -85.167 2.5 -133.5s17.167 -79.166 30.5 -92.499s28.166 -15.833 44.499 -7.5
s43.833 32.166 82.5 71.499c35.333 36 58.833 65.667 70.5 89s17.5 52 17.5 86c0 24 -3 37.833 -9 41.5s-8.66699 18.167 -8 43.5s4 41.333 10 48c18 17.333 43.667 11.666 77 -17.001l30 -25l-6 -84c-3.33301 -46.667 -9.83301 -85.667 -19.5 -117
s-25.834 -65.666 -48.501 -102.999l-39 -67c-12.667 -21.333 -40.334 -49.333 -83.001 -84c-12 -9.33301 -23 -15.666 -33 -18.999s-23.333 -5 -40 -5c-20 0 -34.5 2.33301 -43.5 7s-24.167 17.334 -45.5 38.001c-30 30 -52.667 60.333 -68 91
c-11.333 22 -18.166 43 -20.499 63s-3.83301 70.333 -4.5 151c-0.666992 66 -0.166992 111.833 1.5 137.5s4.83398 42.167 9.50098 49.5z" />
    <glyph glyph-name="V" unicode="V" horiz-adv-x="421" 
d="M23 624c16 32 41.9971 27.998 77.9971 -12.002c12 -14.667 20.667 -29.667 26 -45s15 -53.333 29 -114c10 -46 19 -74 27 -84c6 -7.33301 10.167 -11 12.5 -11s6.5 4 12.5 12c9.33301 12 14 22.333 14 31c0 6.66699 4.5 20.167 13.5 40.5s14.833 37.166 17.5 50.499
c2.66699 12 7 23.833 13 35.5l13.5 26.5c3 6 3.5 10.667 1.5 14c-3.33301 4.66699 -1 18.667 7 42c6 16 11 25.833 15 29.5s12.667 5.16699 26 4.5c18.667 -1.33301 37.334 -11 56.001 -29c11.333 -12 18.5 -22 21.5 -30s4.16699 -21 3.5 -39
c-0.666992 -15.333 -2.66699 -27.166 -6 -35.499s-9.33301 -16.166 -18 -23.499c-12.667 -10.667 -22.5 -24.167 -29.5 -40.5s-16.333 -43.666 -28 -81.999s-23.5 -73.166 -35.5 -104.499c-12 -32 -18 -54.333 -18 -67c0 -13.333 -8.83301 -27.666 -26.5 -42.999
s-34.5 -23 -50.5 -23c-18.667 0 -32.667 7.16699 -42 21.5s-22.333 47.166 -39 98.499l-24 70l-13.5 39c-2.33301 6.66699 -5.66602 17 -9.99902 31s-9.83301 33.667 -16.5 59c-14 50 -24.667 81 -32 93c-15.333 23.333 -14.666 51.666 2.00098 84.999z" />
    <glyph glyph-name="W" unicode="W" horiz-adv-x="573" 
d="M439 661c10.667 10.667 28.5 9.83398 53.5 -2.49902s42.833 -29.166 53.5 -50.499c6.66699 -13.333 11.667 -89 15 -227c2.66699 -124.667 1 -198.334 -5 -221.001c-5.33301 -18.667 -17 -29.334 -35 -32.001c-5.33301 -0.666992 -13 -1 -23 -1
c-18 0 -32.5 3.66699 -43.5 11s-34.167 29 -69.5 65c-50 50 -78.333 75 -85 75c-4 0 -7 -1.5 -9 -4.5s-5.5 -10.667 -10.5 -23s-10.5 -23.833 -16.5 -34.5c-10.667 -20.667 -18 -40.334 -22 -59.001c-2.66699 -14.667 -11.667 -29.167 -27 -43.5s-29.333 -21.5 -42 -21.5
c-10 0 -22.5 7.83301 -37.5 23.5s-24.167 30.5 -27.5 44.5c-2 8 -4.33301 15.333 -7 22l-8.5 22c-3 8 -8.5 28.5 -16.5 61.5s-17.667 76.833 -29 131.5c-4.66699 24.667 -10.167 50.834 -16.5 78.501l-13 57c-2.33301 10.333 -4.33301 21.833 -6 34.5
s-2.16699 22.167 -1.5 28.5s2.66699 13.166 6 20.499c6 16.667 17.333 25 34 25s33.334 -8.66699 50.001 -26c10 -10.667 17.167 -23 21.5 -37s9.5 -41.333 15.5 -82c7.33301 -51.333 13.833 -87.166 19.5 -107.499s12.167 -30.5 19.5 -30.5c4.66699 0 11.667 8.33301 21 25
s14 29.667 14 39c0 8.66699 5.66699 18 17 28c16 14.667 34.667 15.334 56 2.00098s56.666 -47.666 105.999 -102.999c13.333 -14.667 23.166 -23.834 29.499 -27.501s11.833 -3.5 16.5 0.5c10 8 16 29 18 63s-0.666992 70.667 -8 110
c-7.33301 36.667 -11.666 72.167 -12.999 106.5s0.666992 54.166 6 59.499z" />
    <glyph glyph-name="X" unicode="X" horiz-adv-x="404" 
d="M245 643c8.66699 10 15.5078 14.8301 20.5078 14.4971s14.833 -6.16602 29.5 -17.499c17.333 -14 29.666 -29.167 36.999 -45.5s8.66602 -32.166 3.99902 -47.499c-8.66699 -26.667 -18.334 -52.5 -29.001 -77.5l-24 -55
c-5.33301 -11.667 -9.83301 -23.834 -13.5 -36.501s-3.83398 -23.834 -0.500977 -33.501s9.5 -20.5 18.5 -32.5s22.833 -27.333 41.5 -46c33.333 -32 53.833 -57.833 61.5 -77.5s4.16699 -37.167 -10.5 -52.5c-8 -8 -15.667 -12.833 -23 -14.5s-18 -1.66699 -32 0
s-26.333 6 -37 13s-25.334 20.833 -44.001 41.5c-22.667 24 -36.834 37.5 -42.501 40.5s-11.834 0.833008 -18.501 -6.5c-9.33301 -10.667 -18.333 -29.334 -27 -56.001c-18 -52 -32 -84.167 -42 -96.5s-27.333 -18.5 -52 -18.5c-18.667 0 -31.334 6 -38.001 18
s-9.66699 35 -9 69c0 24.667 1.83301 43.834 5.5 57.501s11.5 31.834 23.5 54.501c26.667 48 42.167 78.167 46.5 90.5s5.16602 25.5 2.49902 39.5c-2.66699 12 -9.66699 26 -21 42s-22.166 30.333 -32.499 43s-18.833 29.334 -25.5 50.001s-6.33398 41.334 0.999023 62.001
c4 16 12.167 25.5 24.5 28.5s24.5 1.5 36.5 -4.5s22.833 -13 32.5 -21s14.5 -14.333 14.5 -19c0 -6.66699 7.33301 -19 22 -37c9.33301 -11.333 16 -17.833 20 -19.5s8.66699 0.5 14 6.5c6 6.66699 16.833 30.5 32.5 71.5s26.834 65.167 33.501 72.5z" />
    <glyph glyph-name="Y" unicode="Y" horiz-adv-x="442" 
d="M24 631c10 13.333 23.999 18.501 41.999 15.501s33.333 -12.833 46 -29.5c22 -30 40.833 -51.667 56.5 -65s31.5 -21.333 47.5 -24s28.167 -1.33398 36.5 3.99902s26.166 22.666 53.499 51.999c28.667 30 46.5 47.167 53.5 51.5s16.167 3.16602 27.5 -3.50098
c15.333 -8.66699 27.666 -21 36.999 -37c8 -12.667 9.33301 -24.667 4 -36s-24.666 -38 -57.999 -80c-11.333 -14.667 -17 -31.834 -17 -51.501v-58.5c0 -19.333 -5.33301 -35.666 -16 -48.999c-7.33301 -9.33301 -12 -20.5 -14 -33.5s-3 -36.833 -3 -71.5
c0 -27.333 1.16699 -51.5 3.5 -72.5s5 -35 8 -42s4.66699 -13.667 5 -20s-0.666992 -10.833 -3 -13.5s-8.5 -8 -18.5 -16c-22.667 -18 -44.667 -24.5 -66 -19.5s-35.666 20.167 -42.999 45.5c-6 18.667 -8 53.334 -6 104.001
c2.66699 66.667 -4.16602 120.334 -20.499 161.001s-49.5 86.667 -99.5 138c-30 30 -49.167 51.167 -57.5 63.5s-12.5 24.833 -12.5 37.5c0 20 4.66699 36.667 14 50z" />
    <glyph glyph-name="Z" unicode="Z" horiz-adv-x="642" 
d="M87 608c44.667 4 82.333 9.33301 113 16c10.667 2 18.5 2.83301 23.5 2.5s16.833 -3.16602 35.5 -8.49902c12.667 -4 23.334 -7 32.001 -9c45.333 -12.667 80.666 -36.334 105.999 -71.001s34.333 -71.334 27 -110.001c-3.33301 -14.667 -16.5 -36.167 -39.5 -64.5
s-34.5 -43.5 -34.5 -45.5c2 -2.66699 5.5 -3.83398 10.5 -3.50098s13.667 1.83301 26 4.5l37.5 8.5c12.667 3 27.334 5.83301 44.001 8.5s31.667 4 45 4c19.333 0 33.166 -1.83301 41.499 -5.5s19.833 -13.5 34.5 -29.5c36.667 -38 50 -68.333 40 -91s-41 -33.667 -93 -33
c-29.333 0.666992 -64.166 -2 -104.499 -8s-74.833 -11.833 -103.5 -17.5s-56.834 -8.5 -84.501 -8.5s-48.167 5 -61.5 15c-10 8 -16.167 16.5 -18.5 25.5s-3.5 28.167 -3.5 57.5s1.5 49.666 4.5 60.999s10.167 25.333 21.5 42l20 26c7.33301 9.33301 13.333 16.5 18 21.5
s10.667 11.833 18 20.5c7.33301 7.33301 12.5 12.833 15.5 16.5l11 14c4.33301 5.66699 6.83301 9.83398 7.5 12.501s1.33398 5.83398 2.00098 9.50098s-0.5 6.33398 -3.5 8.00098s-6.83301 3.5 -11.5 5.5s-11 3.5 -19 4.5s-17.667 1.5 -29 1.5
c-22 1.33301 -40.667 0.666016 -56 -2.00098s-26 -6 -32 -10s-12.833 -7.83301 -20.5 -11.5s-14.667 -6 -21 -7s-17.166 0.166992 -32.499 3.5c-16.667 4 -26.834 8.33301 -30.501 13s-7.16699 17.334 -10.5 38.001c-4 28.667 -2 51 6 67c6 10.667 12.667 17.667 20 21
s23.666 6 48.999 8z" />
    <glyph glyph-name="bracketleft" unicode="[" horiz-adv-x="428" 
d="M228 755c20.667 8.66699 40.3291 17.9951 58.9961 27.9951c8.66699 4 14.334 6.16699 17.001 6.5s7.33398 -1.5 14.001 -5.5l6 -3c18.667 -9.33301 34.667 -21.833 48 -37.5s20 -29.167 20 -40.5c0 -14.667 -6.5 -28.5 -19.5 -41.5s-28.5 -21.5 -46.5 -25.5
c-31.333 -6.66699 -62.666 -16.667 -93.999 -30s-53.333 -25.666 -66 -36.999l-26 -26l1 -128c0.666992 -86 3.66699 -131.667 9 -137c9.33301 -3.33301 21.333 -3.66602 36 -0.999023s36.834 6.5 66.501 11.5s53.167 7.5 70.5 7.5s29.833 -1.66699 37.5 -5
s16.5 -11 26.5 -23c29.333 -34.667 38 -60.667 26 -78s-47.667 -29.333 -107 -36c-42 -4.66699 -71.5 -9.5 -88.5 -14.5s-36.833 -14.833 -59.5 -29.5c-18.667 -11.333 -43.167 -17.166 -73.5 -17.499s-48.5 5.16699 -54.5 16.5
c-21.333 38.667 -25.666 87.334 -12.999 146.001c12 58 11.333 163.333 -2 316c-4 48.667 -0.333008 82.834 11 102.501s33.333 29.5 66 29.5c10.667 0 21.667 2 33 6s27.666 11.167 48.999 21.5s39.333 18.5 54 24.5z" />
    <glyph glyph-name="backslash" unicode="\" horiz-adv-x="241" 
d="M30 700c12.667 13.333 23.333 19.5059 32 18.5059s22.334 -9.83301 41.001 -26.5c12.667 -10.667 21 -19.834 25 -27.501s6 -17.834 6 -30.501c0 -35.333 15.167 -124.333 45.5 -267s47.166 -235.667 50.499 -279c2 -30.667 0 -50.5 -6 -59.5s-21.333 -15.833 -46 -20.5
c-12 -2 -21.167 -2.33301 -27.5 -1s-12.166 5.33301 -17.499 12c-8.66699 10 -16.334 28.5 -23.001 55.5s-8.66699 46.833 -6 59.5c2 7.33301 2 15.666 0 24.999l-10.5 47c-5 22 -9.16699 46.667 -12.5 74c-5.33301 46 -12.333 83 -21 111
c-13.333 43.333 -25 89.666 -35 138.999s-15 84.666 -15 105.999c0 29.333 6.66699 50.666 20 63.999z" />
    <glyph glyph-name="bracketright" unicode="]" horiz-adv-x="449" 
d="M178 703c52 2 85.001 2.99902 99.001 2.99902s24.667 -0.5 32 -1.5s13.666 -1.5 18.999 -1.5c4 0 9.83301 -3.5 17.5 -10.5s14.5 -15.5 20.5 -25.5c10.667 -16 17.667 -32.167 21 -48.5s6.33301 -52.5 9 -108.5c1.33301 -37.333 2.5 -64 3.5 -80s2 -27.167 3 -33.5
s1.83301 -11.166 2.5 -14.499s2.16699 -14.5 4.5 -33.5s4.83301 -45.5 7.5 -79.5c3.33301 -38 7 -71.667 11 -101s6.83301 -48.333 8.5 -57s2.16699 -16.5 1.5 -23.5s-3 -14.5 -7 -22.5c-4 -6.66699 -7 -11.334 -9 -14.001s-7.16699 -5.16699 -15.5 -7.5
s-17.333 -3.83301 -27 -4.5s-27.167 -1.33398 -52.5 -2.00098c-41.333 -2 -82.5 -7.5 -123.5 -16.5s-71.333 -16.5 -91 -22.5s-37.5 -7.33301 -53.5 -4s-28 14.333 -36 33c-5.33301 13.333 -9.16602 24 -11.499 32s-2.5 16 -0.5 24s5.66699 14.333 11 19
s14.666 9.83398 27.999 15.501s28.166 10.834 44.499 15.501s38.5 10.334 66.5 17.001c85.333 21.333 131.666 35.333 138.999 42c6 4.66699 9.66699 16.667 11 36s0.5 43.333 -2.5 72s-6.16699 55.5 -9.5 80.5s-7.16602 51.5 -11.499 79.5s-6.83301 44.667 -7.5 50
c-4 28.667 -11 46.167 -21 52.5s-32.667 6.5 -68 0.5c-39.333 -6.66699 -69.666 -6.33398 -90.999 0.999023l-32 10v124z" />
    <glyph glyph-name="a" unicode="a" horiz-adv-x="437" 
d="M28 311c18 26 28.6631 79.6641 31.9961 160.997c2 66 6 106.333 12 121c12 27.333 37 25.333 75 -6c15.333 -13.333 32 -36 50 -68s27 -55.333 27 -70c0 -6.66699 3.5 -16.667 10.5 -30s15.167 -26 24.5 -38c6.66699 -8 14.334 -12 23.001 -12s17.667 1.16699 27 3.5
s22.666 -0.833984 39.999 -9.50098c18.667 -9.33301 32.667 -14 42 -14c16.667 0 28 -9.16699 34 -27.5s2.33301 -32.833 -11 -43.5c-8 -7.33301 -26 -16 -54 -26c-21.333 -7.33301 -33.666 -13.166 -36.999 -17.499s-4.66602 -14.833 -3.99902 -31.5
c2 -23.333 5.66699 -38 11 -44c7.33301 -6.66699 10.333 -22 9 -46s-6.33301 -40.333 -15 -49c-9.33301 -10.667 -22 -16 -38 -16c-37.333 0 -59 30.667 -65 92c-3.33301 34.667 -9.16602 56.334 -17.499 65.001s-22.833 8.33398 -43.5 -0.999023l-31 -13l-4 -81
c-1.33301 -37.333 -3.33301 -61 -6 -71s-9 -19 -19 -27c-14.667 -11.333 -26.167 -16.666 -34.5 -15.999s-19.166 7.66699 -32.499 21c-11.333 11.333 -18 25 -20 41s-3 81 -3 195c0 22 6 41.333 18 58z" />
    <glyph glyph-name="b" unicode="b" horiz-adv-x="453" 
d="M135 615c24 0 43.332 1.50195 57.999 4.50195s24.834 5.5 30.501 7.5s11.167 2 16.5 0c44 -11.333 75.5 -26 94.5 -44s33.5 -46.667 43.5 -86c6.66699 -24.667 8.33398 -45.834 5.00098 -63.501s-12.333 -35.167 -27 -52.5c-6 -6.66699 -7.83301 -12.834 -5.5 -18.501
s11.833 -17.167 28.5 -34.5c16 -16.667 29.167 -33.667 39.5 -51s17.166 -32.5 20.499 -45.5s4.83301 -25.167 4.5 -36.5s-1.5 -20 -3.5 -26s-4 -10 -6 -12c-6.66699 -6.66699 -13.334 -16.667 -20.001 -30c-11.333 -22.667 -39.833 -45.167 -85.5 -67.5
s-93.167 -36.833 -142.5 -43.5c-18.667 -2.66699 -32 -2.16699 -40 1.5s-23.667 16.167 -47 37.5l-47 45l-4 171c-1.33301 78.667 -3.16602 127.334 -5.49902 146.001s-7.5 31 -15.5 37c-11.333 7.33301 -17 23.333 -17 48c0 15.333 2.16699 27.666 6.5 36.999
s13.833 22 28.5 38c16.667 18 29 28.667 37 32s25.667 5.33301 53 6zM263.999 475.002c-4 13.333 -20.167 17.333 -48.5 12s-47.833 -16.333 -58.5 -33c-6 -9.33301 -6.83301 -18.833 -2.5 -28.5s11.5 -14.5 21.5 -14.5c11.333 0 29.333 9 54 27s36 30.333 34 37z
M305.999 217.002c0 8 -13.333 12.668 -40 14.001s-50 -2 -70 -10c-16.667 -6 -26.667 -14.333 -30 -25s1.33398 -19.667 14.001 -27c9.33301 -6 32.666 -1.83301 69.999 12.5s56 26.166 56 35.499z" />
    <glyph glyph-name="c" unicode="c" horiz-adv-x="396" 
d="M191 572c26 6.66699 45.3359 7.33301 58.0029 2s23 -18 31 -38c8 -19.333 12 -37 12 -53s-3.66699 -28.167 -11 -36.5s-17 -10.166 -29 -5.49902c-12 4 -28.167 -2.5 -48.5 -19.5s-38.833 -39.5 -55.5 -67.5s-26.334 -53 -29.001 -75c-2.66699 -20 -3 -33.167 -1 -39.5
s8.66699 -13.166 20 -20.499c16 -10 41 -17 75 -21s66.667 -3.66699 98 1c32 5.33301 53.167 3.83301 63.5 -4.5s14.166 -26.833 11.499 -55.5c-2.66699 -24.667 -6.16699 -40.334 -10.5 -47.001s-17.166 -15.334 -38.499 -26.001c-31.333 -16 -65.833 -22 -103.5 -18
s-82.834 18.667 -135.501 44c-8.66699 4 -25.334 21.333 -50.001 52l-38 46v78c0 26.667 1 47.167 3 61.5s4.5 23.5 7.5 27.5s7 10.667 12 20s9.5 21 13.5 35c4.66699 18 26.5 48.333 65.5 91s65.5 65.667 79.5 69z" />
    <glyph glyph-name="d" unicode="d" horiz-adv-x="453" 
d="M71.5 635c9.66699 2.66699 35.166 4.33105 76.499 4.99805c24 0 42.167 -1.16699 54.5 -3.5s23.833 -6.83301 34.5 -13.5c17.333 -12 30.666 -18 39.999 -18c10.667 0 30.167 -11.5 58.5 -34.5s48.166 -43.167 59.499 -60.5c13.333 -20.667 25.333 -54.167 36 -100.5
s14 -79.166 10 -98.499c-7.33301 -41.333 -28.166 -85.333 -62.499 -132s-69.5 -79 -105.5 -97c-24 -12 -55.5 -16.667 -94.5 -14s-59.833 0.333984 -62.5 -6.99902c-8 -8 -19.667 -14 -35 -18c-9.33301 -2.66699 -16.833 -2.66699 -22.5 0s-12.5 9 -20.5 19
c-9.33301 12 -14.666 23.5 -15.999 34.5s-0.666016 36.167 2.00098 75.5c3.33301 45.333 2 89 -4 131s-9.33301 91 -10 147c0 52 1 84.833 3 98.5s8.66699 29.167 20 46.5c16 24 28.833 37.333 38.5 40zM269.999 465.997c-20 14 -44.9971 23.3311 -74.9971 27.998
s-51 2.66699 -63 -6c-7.33301 -5.33301 -11.833 -14.666 -13.5 -27.999s-1.5 -45 0.5 -95c1.33301 -47.333 3.16602 -79 5.49902 -95s7.16602 -27.667 14.499 -35c20 -22 54 -24.667 102 -8c22 8 37.167 15.333 45.5 22s20.166 20 35.499 40c16.667 24 25 49 25 75
c0 20.667 -4.66699 37.334 -14 50.001s-30.333 30 -63 52z" />
    <glyph glyph-name="e" unicode="e" horiz-adv-x="533" 
d="M30 568c2.66699 3.33301 5.5 5.66797 8.5 7.00098s7.5 1.66602 13.5 0.999023s12.833 -1.66699 20.5 -3s19.5 -2.83301 35.5 -4.5s33.333 -2.5 52 -2.5c34.667 -0.666992 73.167 -6.33398 115.5 -17.001s73.166 -22.667 92.499 -36c15.333 -10 22.333 -23 21 -39
c-4 -33.333 -38.333 -46.666 -103 -39.999c-33.333 3.33301 -51.666 2 -54.999 -4c-1.33301 -2.66699 0.666992 -5 6 -7c7.33301 -3.33301 18 -6 32 -8c39.333 -6 72.333 -16 99 -30s40 -28.333 40 -43c0 -9.33301 -10.5 -18 -31.5 -26s-44.833 -12 -71.5 -12
c-27.333 0 -59.833 -4 -97.5 -12s-61.167 -16 -70.5 -24c-8.66699 -6.66699 -12 -20.667 -10 -42v-5c0.666992 -12.667 4.33398 -20.334 11.001 -23.001c10 -3.33301 57.667 -2.33301 143 3h1h1l1 1h1h1h1h1h1h1h1h1h1h1h1h1h1l1 1h1h1h1h1h1h1h1h1h1
c66 4.66699 109.667 3.33398 131 -3.99902c18.667 -6 37.5 -16.5 56.5 -31.5s28.5 -26.667 28.5 -35s-3.5 -15.333 -10.5 -21s-17.667 -10.5 -32 -14.5s-28.666 -7.16699 -42.999 -9.5l-54.5 -8.5c-22 -3.33301 -40 -6.66602 -54 -9.99902c-38.667 -8 -73.667 -12 -105 -12
c-22.667 0 -40.334 -2 -53.001 -6s-20.834 -9.16699 -24.501 -15.5s-6.66699 -12.833 -9 -19.5s-6.83301 -13.834 -13.5 -21.501s-17 -13.5 -31 -17.5c-16 -6 -26.667 -8 -32 -6s-14 10.333 -26 25l-25 30l5 265c3.33301 176.667 8.33301 269 15 277zM196 428.002
c0 6 -10.332 9 -30.999 9s-31 -4.66699 -31 -14c0 -6 1.66699 -9.16699 5 -9.5s9.16602 0.5 17.499 2.5s15.833 3 22.5 3c4.66699 0 8.66699 1 12 3s5 4 5 6z" />
    <glyph glyph-name="f" unicode="f" horiz-adv-x="379" 
d="M39 588c20 16.667 33.667 25.332 41 25.999c9.33301 0 42.666 -3.16699 99.999 -9.5s91.666 -10.5 102.999 -12.5c16.667 -4 33 -14.167 49 -30.5s24 -30.833 24 -43.5c0 -20 -6 -32.5 -18 -37.5s-40.333 -7.5 -85 -7.5c-48.667 0 -76 -2.33301 -82 -7
c-3.33301 -2.66699 -6.33301 -8 -9 -16c-6 -15.333 -9 -33.333 -9 -54c0 -18.667 6.5 -31.167 19.5 -37.5s35.167 -7.83301 66.5 -4.5c18.667 2.66699 32.834 2.5 42.501 -0.5s24.167 -11.167 43.5 -24.5c72 -48 55.333 -85.333 -50 -112c-28 -6.66699 -49 -10 -63 -10
c-16.667 0 -28.334 -6.16699 -35.001 -18.5s-9.66699 -32.5 -9 -60.5c1.33301 -22 0.5 -37.167 -2.5 -45.5s-10.833 -19.166 -23.5 -32.499c-15.333 -16 -28.5 -24 -39.5 -24s-27.167 8.33301 -48.5 25c-10.667 7.33301 -18.167 18 -22.5 32s-7.66602 37.333 -9.99902 70
s-4.83301 90.667 -7.5 174c-3.33301 136 -3.66602 211.333 -0.999023 226c2 11.333 8.33301 21 19 29c2.66699 2.66699 5 4.66699 7 6z" />
    <glyph glyph-name="g" unicode="g" horiz-adv-x="567" 
d="M181 592c30.667 20.667 50.668 31.0029 60.001 31.0029c8.66699 0 19.334 -6.83301 32.001 -20.5s22.334 -28.834 29.001 -45.501c4 -12 5.16699 -20.667 3.5 -26s-8.16699 -13 -19.5 -23c-10.667 -9.33301 -18.834 -18.666 -24.501 -27.999s-11 -16.833 -16 -22.5
s-13.833 -11.167 -26.5 -16.5c-11.333 -4.66699 -20.833 -11.334 -28.5 -20.001s-15.834 -22 -24.501 -40c-9.33301 -17.333 -16.833 -35 -22.5 -53s-8.5 -32 -8.5 -42s2.33301 -15.667 7 -17c6.66699 0 10 6.33301 10 19c0 21.333 14.333 42.333 43 63s58.334 36 89.001 46
s51 13 61 9s33.333 -6.66699 70 -8c24 -1.33301 41 -3.5 51 -6.5s20.667 -10.167 32 -21.5c32.667 -31.333 52 -78.333 58 -141c2 -22.667 2 -39.5 0 -50.5s-7.66699 -25.167 -17 -42.5c-10 -18.667 -17.833 -30 -23.5 -34s-16.5 -6 -32.5 -6s-26.833 2 -32.5 6
s-12.834 14 -21.501 30c-12.667 23.333 -19.334 49.333 -20.001 78c0 23.333 -3.83301 38.333 -11.5 45s-20.167 6.33398 -37.5 -0.999023c-8.66699 -4.66699 -15 -11.5 -19 -20.5s-7.16699 -19.667 -9.5 -32s-5.83301 -25.666 -10.5 -39.999s-14.5 -30.5 -29.5 -48.5
s-35.167 -35.333 -60.5 -52c-40 -26.667 -63.667 -40 -71 -40c-14 0 -32.833 7.5 -56.5 22.5s-39.5 29.5 -47.5 43.5c-12.667 21.333 -23.5 52.166 -32.5 92.499s-13.5 78.166 -13.5 113.499c0 27.333 1.83301 48.333 5.5 63s13.167 36.667 28.5 66
c22 43.333 43.167 77.666 63.5 102.999s44.833 47.666 73.5 66.999z" />
    <glyph glyph-name="h" unicode="h" horiz-adv-x="461" 
d="M265 636c4 10.667 8.17383 16.9961 12.5068 18.9961s12.5 2 24.5 0c19.333 -3.33301 34.666 -10.333 45.999 -21c12 -11.333 20.833 -23.5 26.5 -36.5s10.334 -32.667 14.001 -59s8.5 -71.833 14.5 -136.5c5.33301 -58 9.83301 -98.667 13.5 -122
s8.5 -41.666 14.5 -54.999c10 -20.667 16.333 -47 19 -79c1.33301 -21.333 1.16602 -35.5 -0.500977 -42.5s-7.5 -14.167 -17.5 -21.5c-14 -11.333 -25.667 -17 -35 -17c-12 0 -28.333 11.667 -49 35s-35.334 47.333 -44.001 72c-20 55.333 -41 72 -63 50
c-6 -6 -9.33301 -14.167 -10 -24.5s0.333008 -20.666 3 -30.999s5.66699 -23.166 9 -38.499s5 -29 5 -41s-5.66699 -23 -17 -33s-25.666 -16.667 -42.999 -20c-11.333 -2.66699 -19.833 -2.5 -25.5 0.5s-13.834 11.167 -24.501 24.5c-15.333 20 -23 44.667 -23 74
c0 26.667 -2.83301 44.834 -8.5 54.501s-17.834 17.5 -36.501 23.5c-19.333 6.66699 -34.5 19.834 -45.5 39.501s-15.833 41.834 -14.5 66.501c1.33301 17.333 3.66602 27.833 6.99902 31.5s12.666 6.16699 27.999 7.5c22 1.33301 36.833 6.66602 44.5 15.999
s12.834 47 15.501 113l5 98l40 -2c28.667 -2 48.5 -11.333 59.5 -28s17.833 -48 20.5 -94c2 -30.667 4.16699 -50.334 6.5 -59.001s7.16602 -13.667 14.499 -15s11.666 2 12.999 10c1.33301 9.33301 0.666016 43.333 -2.00098 102c-4.66699 76.667 -3.66699 123 3 139z" />
    <glyph glyph-name="i" unicode="i" horiz-adv-x="506" 
d="M204 606c12.667 17.333 21.998 26.0029 27.998 26.0029c6.66699 0 30 -10.833 70 -32.5s68.333 -38.834 85 -51.501c12.667 -10 20.834 -18.167 24.501 -24.5s5.16699 -15.5 4.5 -27.5c-1.33301 -13.333 -5 -22.666 -11 -27.999s-21 -13.333 -45 -24
c-6.66699 -2.66699 -11.167 -4.83398 -13.5 -6.50098s-4.83301 -3.66699 -7.5 -6s-4.16699 -7.33301 -4.5 -15s-0.666016 -14.834 -0.999023 -21.501s-0.5 -19 -0.5 -37v-76l50 -4c16.667 -1.33301 32.334 -4.83301 47.001 -10.5s27 -12.334 37 -20.001s17.667 -16 23 -25
s7.33301 -18.167 6 -27.5s-6.33301 -17.833 -15 -25.5s-24.5 -16.667 -47.5 -27s-39.167 -15.5 -48.5 -15.5c-7.33301 0 -25 -8.66699 -53 -26c-24 -15.333 -41.667 -23.833 -53 -25.5s-26 2.16602 -44 11.499c-16.667 8.66699 -47.667 11.334 -93 8.00098l-67 -6l-19 31
c-11.333 18.667 -17.333 35 -18 49s3.33301 29.667 12 47c6.66699 12.667 13.334 20.167 20.001 22.5s23 3.5 49 3.5c37.333 0 62.5 4.66699 75.5 14s19.5 28 19.5 56c0 52.667 -5.33301 87.167 -16 103.5s-31 21.166 -61 14.499
c-22.667 -5.33301 -45.334 -6.66602 -68.001 -3.99902c-14 2 -23.833 5 -29.5 9s-11.167 12.667 -16.5 26c-13.333 32.667 -16.333 57.834 -9 75.501s24.666 27.5 51.999 29.5c44.667 3.33301 76.5 7.66602 95.5 12.999s33.167 14.333 42.5 27z" />
    <glyph glyph-name="j" unicode="j" horiz-adv-x="351" 
d="M95 600c21.333 6.66699 41.168 14.0039 59.501 22.0039s30.666 13.833 36.999 17.5s13.833 5.83398 22.5 6.50098s16.667 -1.33301 24 -6s18.666 -13.334 33.999 -26.001c22 -18.667 37.667 -38.834 47 -60.501s8.66602 -37.834 -2.00098 -48.501
c-12.667 -12.667 -11.667 -47.667 3 -105c8 -32 14 -95 18 -189c2.66699 -68.667 3.33398 -110.834 2.00098 -126.501s-7 -31.5 -17 -47.5c-14.667 -23.333 -46.667 -62.833 -96 -118.5s-77 -83.5 -83 -83.5c-14.667 0 -31 5.66699 -49 17s-29 22.666 -33 33.999
c-12.667 32.667 -21.167 60.667 -25.5 84s-6.5 52.666 -6.5 87.999c-0.666992 45.333 2.5 74.833 9.5 88.5s20.167 16.167 39.5 7.5c10.667 -5.33301 21.834 -17.666 33.501 -36.999s17.5 -35 17.5 -47c0 -11.333 5 -19 15 -23c17.333 -6.66699 38.666 12.666 63.999 57.999
c10 19.333 14.167 63.666 12.5 132.999s-8.16699 119.333 -19.5 150c-11.333 30 -18.666 50 -21.999 60c-1.33301 6 -5.5 10.167 -12.5 12.5s-18.5 3.5 -34.5 3.5c-28.667 0 -46 -3 -52 -9c-7.33301 -7.33301 -18.833 -7.16602 -34.5 0.500977s-26.167 18.167 -31.5 31.5
c-5.33301 14.667 -6.5 30.334 -3.5 47.001s9.5 29.5 19.5 38.5s31.333 18.167 64 27.5z" />
    <glyph glyph-name="k" unicode="k" horiz-adv-x="447" 
d="M31 630c9.33301 14.667 21.8291 21.166 37.4961 19.499s32.5 -11.167 50.5 -28.5c13.333 -13.333 21.5 -24.333 24.5 -33s4.5 -27.334 4.5 -56.001c0 -13.333 0.5 -24.5 1.5 -33.5s2.33301 -16.167 4 -21.5s4.33398 -8.83301 8.00098 -10.5s7.16699 -2.66699 10.5 -3
s8.33301 1.16699 15 4.5s12.667 6.5 18 9.5s12.833 7.5 22.5 13.5s18.167 11 25.5 15l28.5 16c9.66699 5.33301 15.834 8.83301 18.501 10.5s6.5 3.66699 11.5 6s9.5 3.83301 13.5 4.5l18 3c14.667 2.66699 29.334 1.33398 44.001 -3.99902s26.167 -12.833 34.5 -22.5
s13.5 -20.5 15.5 -32.5s-1.66699 -23 -11 -33c-16.667 -18 -66.667 -49.667 -150 -95c-10.667 -6 -18.167 -12.833 -22.5 -20.5s-5.66602 -14.834 -3.99902 -21.501s4.5 -13 8.5 -19s8.5 -10.833 13.5 -14.5s9.5 -5.5 13.5 -5.5c6.66699 0 21 -10 43 -30
c18 -16.667 28.833 -34.667 32.5 -54s-0.333008 -35.333 -12 -48s-28.834 -19 -51.501 -19c-20 0 -37 3 -51 9s-29.333 17 -46 33c-16 14.667 -27 20 -33 16c-6.66699 -3.33301 -10 -12.166 -10 -26.499s3 -23.166 9 -26.499c7.33301 -4.66699 9.83301 -17.5 7.5 -38.5
s-8.16602 -37.5 -17.499 -49.5c-11.333 -14.667 -26.333 -22.167 -45 -22.5s-36.334 6.5 -53.001 20.5c-11.333 9.33301 -18.333 20 -21 32c-2.66699 13.333 -5.33398 54.666 -8.00098 123.999c-3.33301 101.333 -5.16602 163.666 -5.49902 186.999s1.5 43 5.5 59
c2.66699 14.667 2.33398 30.334 -0.999023 47.001s-7.5 30.834 -12.5 42.501s-6.66699 26.167 -5 43.5s8.5 35 20.5 53z" />
    <glyph glyph-name="l" unicode="l" horiz-adv-x="426" 
d="M28 604c2.66699 8 12.999 11.168 30.999 9.50098s33.667 -7.5 47 -17.5c18 -14.667 30.833 -31.834 38.5 -51.501s8.83398 -38.167 3.50098 -55.5c-5.33301 -15.333 -8.33301 -51.333 -9 -108s1.66602 -94 6.99902 -112c2 -9.33301 6 -15.5 12 -18.5
s18.333 -5.16699 37 -6.5c20 -1.33301 39 -0.166016 57 3.50098s31.333 7.33398 40 11.001s19 5.83398 31 6.50098s22 -2.33301 30 -9c14.667 -9.33301 29.667 -26 45 -50c10.667 -16 16.667 -27.167 18 -33.5s-0.666992 -14.833 -6 -25.5
c-2.66699 -5.33301 -5.33398 -9.66602 -8.00098 -12.999s-6.83398 -6.33301 -12.501 -9s-11.334 -4.83398 -17.001 -6.50098s-14.5 -3.83398 -26.5 -6.50098s-23.833 -5 -35.5 -7s-28.5 -5.16699 -50.5 -9.5l-65 -12.5c-49.333 -10 -80.666 -15 -93.999 -15
s-28.666 5 -45.999 15l-33 20v170c0 47.333 -0.666992 89.166 -2 125.499s-2.83301 62.166 -4.5 77.499s-3.16699 28.5 -4.5 39.5s-1.66602 19.333 -0.999023 25s2.33398 13.167 5.00098 22.5z" />
    <glyph glyph-name="m" unicode="m" horiz-adv-x="616" 
d="M416 592c4 10 8.66992 16.167 14.0029 18.5s16 2.83301 32 1.5c25.333 -1.33301 42.333 -7.66602 51 -18.999c12.667 -16.667 25.334 -69 38.001 -157l11 -83c6 -42.667 12.833 -76.334 20.5 -101.001l17.5 -56.5c4 -13 6 -32.167 6 -57.5
c0 -32 -4.33301 -53.5 -13 -64.5s-26.334 -16.5 -53.001 -16.5c-22 0 -39.333 8.33301 -52 25s-19 39.667 -19 69c0 90.667 -8.66699 136 -26 136c-6.66699 0 -12.667 -2.83301 -18 -8.5l-22.5 -23.5c-9.66699 -10 -20.834 -18.667 -33.501 -26
c-16 -8.66699 -26.833 -13 -32.5 -13s-16.5 4.33301 -32.5 13c-13.333 6.66699 -27.333 15.167 -42 25.5s-25.834 18 -33.501 23s-12.834 6.83301 -15.501 5.5c-2.66699 -2 -6.66699 -36.667 -12 -104s-10.666 -104.333 -15.999 -111c-6 -6.66699 -17 -10.334 -33 -11.001
s-31.667 1.83301 -47 7.5s-27.333 22 -36 49s-14 55.833 -16 86.5s-5.16699 62.167 -9.5 94.5s-10.166 54.5 -17.499 66.5c-10.667 17.333 -16.167 37 -16.5 59s4.16699 40.667 13.5 56s21.666 23 36.999 23c14 0 22.667 5 26 15c7.33301 18.667 17.166 34.167 29.499 46.5
s24.833 18.5 37.5 18.5c9.33301 0 17.833 -3 25.5 -9s17.167 -17 28.5 -33c20.667 -28 32.334 -49.333 35.001 -64c2.66699 -14 13 -30.833 31 -50.5s31.667 -29.5 41 -29.5s23.166 13.833 41.499 41.5s28.833 50.834 31.5 69.501c3.33301 17.333 7.5 29 12.5 35
s7.5 12 7.5 18c0 8 3 19.667 9 35z" />
    <glyph glyph-name="n" unicode="n" horiz-adv-x="506" 
d="M363 545c14.667 16.667 33.332 19.002 55.999 7.00195c16.667 -9.33301 28.667 -29 36 -59s14.666 -89.667 21.999 -179c9.33301 -114.667 15.333 -178.667 18 -192c3.33301 -13.333 -0.166992 -27.5 -10.5 -42.5s-22.833 -23.833 -37.5 -26.5
c-21.333 -4.66699 -41.333 -0.833984 -60 11.499s-48 40.833 -88 85.5c-52 58.667 -81.167 88 -87.5 88s-9.83301 -30 -10.5 -90c0 -46.667 -2.33301 -77.334 -7 -92.001s-16 -26.667 -34 -36c-10 -5.33301 -25.667 -6 -47 -2c-20 3.33301 -33.333 12.833 -40 28.5
s-9.66699 42.5 -9 80.5c1.33301 38.667 -7.33398 96.334 -26.001 173.001l-28 115l16 35c6.66699 14 13.334 23.833 20.001 29.5s12.834 8.5 18.501 8.5s13.667 2 24 6s21.166 10.333 32.499 19c16.667 14.667 28.667 22 36 22c6.66699 0 17 -9.16699 31 -27.5
s28 -40.5 42 -66.5c10 -19.333 24.833 -42 44.5 -68s38.167 -47.667 55.5 -65s27.333 -24.333 30 -21c4 3.33301 5.16699 17.333 3.5 42s-4.66699 50.667 -9 78s-6.16602 54.666 -5.49902 81.999s5.33398 46 14.001 56z" />
    <glyph glyph-name="o" unicode="o" horiz-adv-x="414" 
d="M91 491c8.66699 14 20.0049 25.501 34.0049 34.501s27.167 14.667 39.5 17s24.333 4 36 5s19.5 0.5 23.5 -1.5c14.667 -3.33301 33.667 -13.833 57 -31.5s42.666 -36.167 57.999 -55.5c19.333 -23.333 35.666 -56.333 48.999 -99s18.333 -78 15 -106
c-4 -40.667 -16 -80.167 -36 -118.5s-41 -61.833 -63 -70.5c-14 -4.66699 -23 -10.334 -27 -17.001c-8.66699 -14 -38.834 -15.667 -90.501 -5s-88.834 26.334 -111.501 47.001c-23.333 22 -40.833 54.167 -52.5 96.5s-15.334 86.166 -11.001 131.499s16.5 82 36.5 110z
M277.005 401.001c-18.667 21.333 -33.5 32.6689 -44.5 34.002s-25.5 -6 -43.5 -22c-32.667 -28.667 -53.667 -67.834 -63 -117.501s-3 -87.834 19 -114.501c6.66699 -7.33301 13.834 -13.666 21.501 -18.999s13.834 -8 18.501 -8c12.667 0 27.5 4.83301 44.5 14.5
s33.167 22.5 48.5 38.5c11.333 12 18.666 23.167 21.999 33.5s5.66602 30.166 6.99902 59.499c1.33301 32 0.833008 52.333 -1.5 61s-11.833 22 -28.5 40z" />
    <glyph glyph-name="p" unicode="p" horiz-adv-x="363" 
d="M95 670c16 10.667 33.335 14.667 52.002 12c39.333 -6 81.5 -27 126.5 -63s70.5 -69.333 76.5 -100c4 -22.667 3.66699 -49.167 -1 -79.5s-12 -52.5 -22 -66.5c-11.333 -15.333 -17 -25.666 -17 -30.999c0 -6 -15 -22.667 -45 -50s-48.333 -41 -55 -41
c-5.33301 0 -12.333 -2.66699 -21 -8s-18.667 -9 -30 -11c-10.667 -1.33301 -16.834 -5 -18.501 -11s-1.83398 -24.667 -0.500977 -56c1.33301 -39.333 -2 -65.833 -10 -79.5s-25 -20.5 -51 -20.5c-12 0 -21.5 1.16699 -28.5 3.5s-13.167 6.16602 -18.5 11.499
s-9.33301 14.5 -12 27.5s-4.66699 28 -6 45s-2.33301 40.5 -3 70.5c-2.66699 93.333 -0.666992 174.333 6 243s17 116.667 31 144c15.333 29.333 31 49.333 47 60zM209.002 552c-20 12 -31.333 18 -34 18c-13.333 0 -24 -34 -32 -102c-6.66699 -56.667 -6.66699 -87 0 -91
c6 -3.33301 23 6.66699 51 30c31.333 27.333 48.5 54 51.5 80s-9.16699 47.667 -36.5 65z" />
    <glyph glyph-name="q" unicode="q" horiz-adv-x="617" 
d="M85 554c0 9.33301 19.1641 33.502 57.4971 72.502s59.5 58.5 63.5 58.5c7.33301 0 21.666 -8.66699 42.999 -26s33.333 -30 36 -38c2 -6.66699 11.833 -23.5 29.5 -50.5s29.834 -53.833 36.501 -80.5c6 -24.667 11.833 -43.5 17.5 -56.5s10.167 -27.833 13.5 -44.5
c4 -20.667 19 -45.5 45 -74.5s55 -53.5 87 -73.5c34.667 -20.667 58.834 -38.667 72.501 -54s20.5 -31 20.5 -47c0 -18.667 -4.33301 -31.667 -13 -39c-11.333 -9.33301 -30.833 -10.5 -58.5 -3.5s-55.5 20.167 -83.5 39.5c-19.333 13.333 -41.666 26.833 -66.999 40.5
s-41 20.5 -47 20.5c-0.666992 0 -7.5 -6.33301 -20.5 -19s-28.667 -26.167 -47 -40.5s-34.833 -22.833 -49.5 -25.5c-18.667 -3.33301 -41.667 -1.33301 -69 6s-51.166 17.666 -71.499 30.999s-30.5 25.666 -30.5 36.999c0 8 -6.66699 21 -20 39
c-8.66699 11.333 -14.167 23.333 -16.5 36s-3.5 35.334 -3.5 68.001s1.16699 55 3.5 67s7.83301 23.667 16.5 35c13.333 17.333 20 30.666 20 39.999c0 7.33301 5.83301 20.833 17.5 40.5s17.5 33.5 17.5 41.5zM245.997 416.002
c5.33301 6.66699 6.16504 17.6621 2.49805 32.9951s-10.5 27.333 -20.5 36c-7.33301 6.66699 -13 9.5 -17 8.5s-11.333 -7.5 -22 -19.5c-16 -16 -24 -28.333 -24 -37c0 -6 -2.83301 -12.167 -8.5 -18.5s-12 -15.833 -19 -28.5s-11.833 -29 -14.5 -49
c-2 -20 -2.16699 -34 -0.5 -42s6.83398 -16.667 15.501 -26c14 -14 26.333 -20.667 37 -20s23.667 9.33398 39 26.001c10.667 10.667 16.834 18.834 18.501 24.501s0.5 11.834 -3.5 18.501c-5.33301 8.66699 -6 23.834 -2 45.501s10.333 37.834 19 48.501z" />
    <glyph glyph-name="r" unicode="r" horiz-adv-x="452" 
d="M57 604c6.66699 7.33301 14.499 12.3369 23.499 15.0039s23.167 4 42.5 4c32.667 0 60.5 -3.5 83.5 -10.5s46.167 -20.833 69.5 -41.5s38 -40.334 44 -59.001s7.66699 -42.334 5 -71.001s-9 -54.667 -19 -78c-10 -24 -13.167 -39.667 -9.5 -47s18.167 -15 43.5 -23
c30.667 -10 55.834 -23.833 75.501 -41.5s28.5 -34.834 26.5 -51.501c-1.33301 -10 -4.33301 -16.833 -9 -20.5s-14.334 -6.83398 -29.001 -9.50098c-24 -3.33301 -53 -2 -87 4c-30 4.66699 -59 5.5 -87 2.5s-44.667 -9.16699 -50 -18.5s-16.333 -19.333 -33 -30
c-10 -6.66699 -18.333 -10.5 -25 -11.5s-15 0.5 -25 4.5c-21.333 7.33301 -35.166 23.333 -41.499 48s-7.83301 68.667 -4.5 132l6 109l-24 9c-10.667 4 -17.167 9.16699 -19.5 15.5s-3.5 20.833 -3.5 43.5c0 49.333 15.667 91.333 47 126zM200.999 450.004
c4.66699 20 2.33301 31.667 -7 35c-4.66699 2 -10 -0.333008 -16 -7c-10 -12.667 -11.333 -25.667 -4 -39c6 -10 12.667 -11.333 20 -4c2.66699 3.33301 5 8.33301 7 15z" />
    <glyph glyph-name="s" unicode="s" horiz-adv-x="467" 
d="M241 623c5.33301 0.666992 19.3301 6.66895 41.9971 18.002s36 17 40 17c14 0 31.5 -10.833 52.5 -32.5s31.5 -39.834 31.5 -54.501c0 -8 -6 -20.333 -18 -37c-7.33301 -10.667 -14.5 -17.667 -21.5 -21s-18.167 -5 -33.5 -5c-18 0 -34 -4.16699 -48 -12.5
s-21 -17.833 -21 -28.5c0 -6.66699 9.66699 -13.667 29 -21c28 -10.667 48.833 -20.167 62.5 -28.5s30.834 -22.5 51.501 -42.5c16 -15.333 27.167 -28.333 33.5 -39s10.5 -23.667 12.5 -39c7.33301 -46 -1.83398 -88 -27.501 -126s-64.5 -67.333 -116.5 -88
c-18.667 -7.33301 -38.334 -12.333 -59.001 -15s-52 -4 -94 -4c-28 0.666992 -48.833 0.5 -62.5 -0.5s-24.834 -0.166992 -33.501 2.5s-14.667 5.16699 -18 7.5s-8 6.83301 -14 13.5c-8.66699 10 -14.167 19.5 -16.5 28.5s-2.83301 22.833 -1.5 41.5l2 46l33 2
c13.333 1.33301 26.333 -0.333984 39 -5.00098s23.334 -9.16699 32.001 -13.5s23.834 -5.5 45.501 -3.5s48.5 9 80.5 21c24.667 9.33301 47.834 21.333 69.501 36s32.5 25.667 32.5 33c0 16.667 -17.667 32 -53 46s-73.666 21 -114.999 21c-27.333 0 -48 4 -62 12
s-25.667 22.667 -35 44c-26.667 59.333 -15 107.333 35 144c46.667 34.667 77.834 57.167 93.501 67.5s26.5 15.5 32.5 15.5z" />
    <glyph glyph-name="t" unicode="t" horiz-adv-x="459" 
d="M172 601c32.667 12 79.1689 13.6631 139.502 4.99609s101.5 -23 123.5 -43c11.333 -11.333 15.666 -22.833 12.999 -34.5s-12.5 -22.167 -29.5 -31.5s-38.167 -15.666 -63.5 -18.999c-32 -3.33301 -50.833 -8 -56.5 -14s-6.83398 -22 -3.50098 -48
c3.33301 -30 5.66602 -90.333 6.99902 -181c0.666992 -62.667 0.166992 -101.667 -1.5 -117s-6.16699 -25.666 -13.5 -30.999c-24.667 -18 -50.667 -16 -78 6c-10.667 8 -17 18.333 -19 31c-2.66699 14 -5 60.667 -7 140c-1.33301 92 -5.66602 146.667 -12.999 164
c-7.33301 16 -22.333 23.667 -45 23c-6 0 -15.333 -0.666992 -28 -2c-24 -2 -39.167 -2.16699 -45.5 -0.5s-12.833 7.83398 -19.5 18.501c-25.333 38.667 -29.333 71.334 -12 98.001c6 10 12.833 16.333 20.5 19s22.5 4 44.5 4c34 0 63 4.33301 87 13z" />
    <glyph glyph-name="u" unicode="u" horiz-adv-x="393" 
d="M282 546c6.66699 6.66699 18.833 8.33594 36.5 5.00293s31.5 -10 41.5 -20c10.667 -10.667 17.167 -21.834 19.5 -33.501s3.5 -41.5 3.5 -89.5c0 -58 -4.66699 -100.833 -14 -128.5s-30.666 -64.5 -63.999 -110.5c-42.667 -57.333 -88.334 -90 -137.001 -98
c-22.667 -4 -46.667 2.5 -72 19.5s-45.333 40.167 -60 69.5c-9.33301 19.333 -15.333 39.5 -18 60.5s-4.33398 67.167 -5.00098 138.5l-3 157l22 14c13.333 8.66699 25.833 10.667 37.5 6s24.834 -17.334 39.501 -38.001c10 -13.333 15.167 -26 15.5 -38
s-3.83398 -48.333 -12.501 -109c-3.33301 -24 -2 -50.667 4 -80s14 -48 24 -56c18 -14.667 49 2.66602 93 51.999c50.667 56 68.334 109.333 53.001 160c-5.33301 18.667 -8.5 42 -9.5 70s0.833008 44.333 5.5 49z" />
    <glyph glyph-name="v" unicode="v" horiz-adv-x="485" 
d="M218 165c0 6 -5.83008 17.165 -17.4971 33.498s-17.5 25.833 -17.5 28.5c0 4 -19 32.5 -57 85.5l-72 99.5c-24 31.333 -38.167 57.833 -42.5 79.5s1.16699 41.167 16.5 58.5c10 11.333 17.167 17.666 21.5 18.999s12.5 -1.33398 24.5 -8.00098
c10 -6 18.667 -13.167 26 -21.5s18.333 -23.166 33 -44.499s27.667 -39 39 -53c14.667 -19.333 28 -38.166 40 -56.499s21 -32.666 27 -42.999l16.5 -28.5c5 -8.66699 9.33301 -14.667 13 -18s7.5 -5 11.5 -5c7.33301 0 14.666 10.333 21.999 31
s15.166 45.334 23.499 74.001s14.833 48 19.5 58c10 20 15 41 15 63c0 16 4.16699 31.667 12.5 47s19.5 25.5 33.5 30.5s30 -0.5 48 -16.5c12.667 -12 19.667 -30.833 21 -56.5s-3.66699 -46.834 -15 -63.501c-14 -21.333 -29 -67 -45 -137s-25.333 -107.667 -28 -113
c-6 -12 -9 -30 -9 -54s-6.83301 -43.333 -20.5 -58s-31.834 -22 -54.501 -22c-12.667 0 -22.5 2.5 -29.5 7.5s-16.5 16.167 -28.5 33.5c-18 26.667 -27 43.334 -27 50.001z" />
    <glyph glyph-name="w" unicode="w" horiz-adv-x="577" 
d="M30 530c12.667 8.66699 21.332 12.9971 25.999 12.9971c5.33301 0 16.166 -10.667 32.499 -32s28.166 -40 35.499 -56c4 -10 9.66699 -22.667 17 -38s12.5 -26.833 15.5 -34.5s4.5 -14.167 4.5 -19.5c0 -12 6.33301 -29.167 19 -51.5s22 -32.833 28 -31.5
c6.66699 2.66699 12 22 16 58c2.66699 28 8.5 51.5 17.5 70.5s18.833 28.5 29.5 28.5c7.33301 0 21 -6.66699 41 -20c12 -8 21 -16.833 27 -26.5s11.667 -24.167 17 -43.5c4 -16 7.83301 -29 11.5 -39s6.5 -16.333 8.5 -19s3.5 -5.5 4.5 -8.5s1.5 -6.83301 1.5 -11.5
c0 -12.667 4.33301 -21.334 13 -26.001s16.667 -2.66699 24 6c12.667 15.333 21.334 36.166 26.001 62.499s6.33398 52.333 5.00098 78s-2.5 50.334 -3.5 74.001s1.16699 42.834 6.5 57.501s15 22 29 22c8 0 16.833 -3.16699 26.5 -9.5s18.5 -14.333 26.5 -24
s15 -19.667 21 -30s9.33301 -19.666 10 -27.999s-1.33301 -14.166 -6 -17.499s-9 -39.666 -13 -108.999c-3.33301 -62 -8.66602 -108.333 -15.999 -139s-19.333 -57 -36 -79c-44 -57.333 -95.333 -54 -154 10c-18.667 20 -30.334 31 -35.001 33s-11.667 -1 -21 -9
c-12 -10.667 -18 -20 -18 -28c0 -7.33301 -6.83301 -15.833 -20.5 -25.5s-28.5 -15 -44.5 -16s-30.333 7.16699 -43 24.5c-9.33301 14.667 -27.5 55.834 -54.5 123.501s-52.833 126.167 -77.5 175.5c-12 24 -17.667 50.167 -17 78.5s7.33398 47.166 20.001 56.499z" />
    <glyph glyph-name="x" unicode="x" horiz-adv-x="416" 
d="M308 590c6 2.66699 10.8291 3.83691 14.4961 3.50391s8.5 -1.33301 14.5 -3s10.667 -2.5 14 -2.5c4.66699 0 13 -11.5 25 -34.5s18 -38.833 18 -47.5c0 -7.33301 -5.5 -21.833 -16.5 -43.5s-22.167 -39.5 -33.5 -53.5c-11.333 -14.667 -22.666 -34.667 -33.999 -60
l-17 -38l40 -37c26.667 -24 45.334 -50 56.001 -78l17 -43l-26 -26c-12.667 -12 -21.5 -18.5 -26.5 -19.5s-14.5 1.83301 -28.5 8.5c-15.333 7.33301 -29.666 20.666 -42.999 39.999s-24 33 -32 41l-22 21l-23 -34c-15.333 -22.667 -23 -38.334 -23 -47.001
c0 -10.667 -7.33301 -22.334 -22 -35.001s-28.334 -19 -41.001 -19s-26 7 -40 21s-21 27.333 -21 40c0.666992 19.333 7.5 40.833 20.5 64.5s26.167 44.5 39.5 62.5s20 29 20 33c0 7.33301 -17.833 30.5 -53.5 69.5s-57.667 66.5 -66 82.5s-10.166 34.667 -5.49902 56
c7.33301 32 21 48.333 41 49c8.66699 0 23.834 -11.833 45.501 -35.5l63.5 -71c20.667 -23.667 33.667 -35.5 39 -35.5c6 0 16 9.5 30 28.5s21 32.5 21 40.5c0 7.33301 7.66699 25.166 23 53.499s26 44.5 32 48.5z" />
    <glyph glyph-name="y" unicode="y" horiz-adv-x="389" 
d="M18 573c8.66699 8.66699 22.167 7.16406 40.5 -4.50293s46.5 -36.834 84.5 -75.501c43.333 -43.333 67.666 -65 72.999 -65s12.333 9.66699 21 29c20.667 42 35 68.333 43 79s17.667 16 29 16c14.667 0 30.667 -6.33301 48 -19
c10.667 -7.33301 17.334 -13.833 20.001 -19.5s2.66699 -13.167 0 -22.5c-2 -8.66699 -4.66699 -16 -8 -22s-9.5 -16 -18.5 -30s-18.5 -30 -28.5 -48c-12 -22 -19 -37.333 -21 -46s-0.666992 -17.667 4 -27c12 -25.333 0.666992 -44.666 -34 -57.999
c-18.667 -7.33301 -29.834 -20.166 -33.501 -38.499s-1.5 -49.166 6.5 -92.499c9.33301 -47.333 14 -77.833 14 -91.5s-4.33301 -25.5 -13 -35.5c-18 -19.333 -38.667 -19.666 -62 -0.999023c-10 8.66699 -17.167 20.167 -21.5 34.5s-9.16602 39.5 -14.499 75.5
s-12.333 70 -21 102c-5.33301 22.667 -7.5 37.667 -6.5 45s7.66699 19.833 20 37.5s18.833 29 19.5 34s-3 13.5 -11 25.5c-10.667 16.667 -29.667 38 -57 64c-32 32 -55.167 62.833 -69.5 92.5s-15.5 50.167 -3.5 61.5z" />
    <glyph glyph-name="z" unicode="z" horiz-adv-x="433" 
d="M19 566c6.66699 7.33301 44.833 10.167 114.5 8.5s112.5 -6.16699 128.5 -13.5c15.333 -7.33301 32.333 -18.166 51 -32.499s31.667 -27.166 39 -38.499c10.667 -14.667 6.5 -40.334 -12.5 -77.001s-49.5 -77.334 -91.5 -122.001
c-33.333 -35.333 -48.666 -55.166 -45.999 -59.499s27.667 -6.5 75 -6.5c33.333 0 55.166 -1.33301 65.499 -4s23.166 -10.667 38.499 -24c20.667 -18 33.334 -31.333 38.001 -40s4.33398 -18 -0.999023 -28c-6.66699 -12.667 -25.5 -22.334 -56.5 -29.001
s-80.167 -11.334 -147.5 -14.001l-60 -1.5c-13.333 -0.333008 -26.833 0 -40.5 1s-23.167 2.33301 -28.5 4s-11.333 5.33398 -18 11.001s-11.5 11.167 -14.5 16.5s-7.16699 13.666 -12.5 24.999c-12 25.333 -11.833 50 0.5 74s45.166 63.667 98.499 119
c25.333 26 46.833 49.5 64.5 70.5s26.167 32.833 25.5 35.5c-2.66699 8 -13.334 12 -32.001 12s-41 -3.66699 -67 -11c-31.333 -9.33301 -52.666 -13.666 -63.999 -12.999s-23.333 6.66699 -36 18c-8 8 -13.333 16.333 -16 25s-4 22 -4 40c0 30.667 3 48.667 9 54z" />
    <glyph glyph-name="braceleft" unicode="{" horiz-adv-x="327" 
d="M147 682l27.5029 40c7 10 14.167 19.333 21.5 28s13 15.167 17 19.5s8.83301 7.33301 14.5 9s9.83398 2.5 12.501 2.5s7.16699 -2 13.5 -6s11.166 -7.5 14.499 -10.5s9.33301 -8.83301 18 -17.5c14 -13.333 23.167 -23.333 27.5 -30s4.83301 -12.334 1.5 -17.001l-42 -62
c-22.667 -32.667 -34 -53 -34 -61c0 -10.667 5 -24.667 15 -42s19 -27.666 27 -30.999c10 -4 13 -17.333 9 -40s-13 -44.667 -27 -66c-16 -22.667 -24 -41.667 -24 -57c0 -11.333 -3 -27.5 -9 -48.5s-12 -36.167 -18 -45.5c-42.667 -66.667 -59 -105.667 -49 -117
c1.33301 -2 3.33301 -3 6 -3c6 0 19.333 -7.66699 40 -23c12.667 -9.33301 21.167 -19.166 25.5 -29.499s4.83301 -19.833 1.5 -28.5s-9.33301 -16.667 -18 -24s-20.834 -13 -36.501 -17s-33.167 -6 -52.5 -6c-31.333 0 -54.5 4.5 -69.5 13.5s-27.833 25.833 -38.5 50.5
c-9.33301 22 -12.666 41.667 -9.99902 59s12.334 43.666 29.001 78.999c14 28 21.833 46.167 23.5 54.5s-0.5 14.833 -6.5 19.5c-12.667 9.33301 -23.834 25.333 -33.501 48s-13.834 42 -12.501 58s7.16602 28.333 17.499 37s33.166 21 68.499 37c12 5.33301 20 13 24 23
s3 20 -3 30c-7.33301 12 -11 34 -11 66c0 21.333 2.16699 38 6.5 50s15.5 31.333 33.5 58z" />
    <glyph glyph-name="bar" unicode="|" 
 />
    <glyph glyph-name="braceright" unicode="}" horiz-adv-x="321" 
d="M14 655c3.33301 8.66699 7.50195 14.3311 12.502 16.998s14.167 4 27.5 4c26 0 59.333 -3.83301 100 -11.5s64.667 -14.5 72 -20.5c9.33301 -8 17.5 -12 24.5 -12s16.5 -13.333 28.5 -40c10 -23.333 13.167 -41.166 9.5 -53.499s-19.5 -34.166 -47.5 -65.499
c-20 -22.667 -30 -39.334 -30 -50.001s9.66699 -18 29 -22c19.333 -3.33301 36.666 -13.666 51.999 -30.999c10 -11.333 16 -21 18 -29s1.66699 -21.667 -1 -41c-5.33301 -47.333 -6.5 -83.5 -3.5 -108.5s3.66699 -47 2 -66s-8.5 -37.167 -20.5 -54.5
c-33.333 -46.667 -84.666 -76.667 -153.999 -90c-29.333 -5.33301 -48.5 -7.83301 -57.5 -7.5s-20.167 4.83301 -33.5 13.5c-12 8 -19.833 15.167 -23.5 21.5s-5.5 16.5 -5.5 30.5c0 18.667 5.33301 33.667 16 45s24.667 17 42 17c18 0 42.667 8 74 24s49 29.667 53 41
c8 21.333 7.5 40.833 -1.5 58.5s-22.833 26.5 -41.5 26.5c-15.333 0 -31.666 8.66699 -48.999 26c-11.333 12.667 -18.333 24 -21 34s-3.66699 32.667 -3 68c0.666992 34 2.5 57.167 5.5 69.5s10.833 27.5 23.5 45.5c18 27.333 25.167 43.833 21.5 49.5
s-19.834 8.5 -48.501 8.5s-46.334 4.33301 -53.001 13c-8.66699 10.667 -14.834 25.5 -18.501 44.5s-3.16699 34.167 1.5 45.5z" />
    <glyph glyph-name="asciitilde" unicode="~" horiz-adv-x="612" 
d="M113 427c33.333 32.667 61.1631 47.835 83.4961 45.502s50.833 -23.833 85.5 -64.5l41 -46c10 -10.667 21 -19.667 33 -27s22 -11.5 30 -12.5s18.5 0.666992 31.5 5s25.5 10.333 37.5 18s28.333 19.167 49 34.5c18.667 13.333 33.834 20.166 45.501 20.499
s23.5 -5.83398 35.5 -18.501c10.667 -11.333 16.334 -28 17.001 -50s-3.66602 -37 -12.999 -45c-9.33301 -7.33301 -14 -13.666 -14 -18.999c0 -3.33301 -3.5 -9.5 -10.5 -18.5s-17 -19.5 -30 -31.5s-28.333 -23 -46 -33s-37 -17.333 -58 -22
s-43.167 -4.33398 -66.5 0.999023c-17.333 4 -32.833 11 -46.5 21s-34.834 30.333 -63.501 61l-69 72l-21 -26c-14 -18 -23 -34.667 -27 -50c-4 -16.667 -14.167 -32.5 -30.5 -47.5s-31.833 -22.5 -46.5 -22.5c-19.333 0 -33 8.33301 -41 25s-10.667 44 -8 82
c0.666992 19.333 1.33398 32.5 2.00098 39.5s3.33398 14.5 8.00098 22.5s9.5 13.5 14.5 16.5s15.167 11.167 30.5 24.5s31 28.333 47 45z" />
    <glyph glyph-name="cent" unicode="&#xa2;" 
 />
    <glyph glyph-name="sterling" unicode="&#xa3;" horiz-adv-x="516" 
d="M231 610c14 6.66699 27.166 14.4971 39.499 23.4971s21.5 15.5 27.5 19.5s16.833 7 32.5 9s36.834 2.33301 63.501 1c24.667 -1.33301 41.667 -3.66602 51 -6.99902s19.333 -10.333 30 -21c33.333 -33.333 39.333 -63.666 18 -90.999
c-7.33301 -9.33301 -15.5 -15.333 -24.5 -18s-26.5 -4.33398 -52.5 -5.00098c-37.333 -1.33301 -64.333 -5 -81 -11s-29 -17 -37 -33c-7.33301 -16.667 -8.83301 -28.667 -4.5 -36s13.166 -14.166 26.499 -20.499s27.166 -11.333 41.499 -15s27.333 -10 39 -19
s18.167 -20.167 19.5 -33.5c1.33301 -10 0.5 -18.167 -2.5 -24.5s-9.5 -13.166 -19.5 -20.499c-14 -11.333 -27 -31.333 -39 -60s-14.667 -46.334 -8 -53.001c6 -6 12.333 -5.66699 19 1c7.33301 8 17.333 11.333 30 10s25.167 -4.83301 37.5 -10.5s23 -13.667 32 -24
s13.5 -20.833 13.5 -31.5c0 -16.667 -4.83301 -33 -14.5 -49s-21.167 -27 -34.5 -33c-21.333 -10 -51.166 -15.667 -89.499 -17s-69.166 2 -92.499 10c-24 8 -43.833 10.333 -59.5 7s-34.167 -14 -55.5 -32c-16 -13.333 -33.667 -20.5 -53 -21.5s-36.666 4.5 -51.999 16.5
c-9.33301 7.33301 -15.333 15.333 -18 24s-4 25.667 -4 51c0 27.333 1.5 45 4.5 53s11.833 18.333 26.5 31c20.667 17.333 36.334 26.333 47.001 27c9.33301 0 25.666 5.66699 48.999 17s37 20.333 41 27c6 10 5.33301 15 -2 15c-5.33301 0 -12.333 -3 -21 -9
c-13.333 -10 -29.666 -15 -48.999 -15c-11.333 0 -19.833 1.83301 -25.5 5.5s-11.167 11.167 -16.5 22.5c-10.667 20.667 -15.334 42 -14.001 64s7.66602 37 18.999 45c13.333 9.33301 26.666 14 39.999 14c16.667 0 29.834 7 39.501 21s15.5 29.667 17.5 47
s4.5 35.166 7.5 53.499s6.83301 30.5 11.5 36.5c4 4.66699 8.33301 11.334 13 20.001s9.5 16.334 14.5 23.001s11.167 12 18.5 16z" />
    <glyph glyph-name="section" unicode="&#xa7;" 
 />
    <glyph glyph-name="guillemotleft" unicode="&#xab;" horiz-adv-x="488" 
d="M312 373c35.333 36.667 61 57.332 77 61.999s33.667 -3 53 -23c17.333 -18 25.833 -38.167 25.5 -60.5s-9.83301 -41.5 -28.5 -57.5c-10.667 -10 -18 -18 -22 -24s-4.66699 -11.167 -2 -15.5s9 -8.16602 19 -11.499c16 -6 28.333 -18 37 -36s9.66699 -33.333 3 -46
c-11.333 -22 -22.5 -36 -33.5 -42s-30.5 -9 -58.5 -9c-26 0 -43.167 1.66699 -51.5 5s-20.5 13.166 -36.5 29.499s-25.833 29.333 -29.5 39s-6.5 29.834 -8.5 60.501l-4 65zM60.5 353.998l48.501 49.498l31.5 33.5c5.66699 6 9.16699 9 10.5 9
c6.66699 0 17.667 -5.33301 33 -16s27 -21 35 -31c8 -10.667 12.5 -19 13.5 -25s-0.833008 -15 -5.5 -27c-4.66699 -13.333 -14.834 -30 -30.501 -50s-24.834 -37.667 -27.501 -53c-2.66699 -12 -3 -20.167 -1 -24.5s7.33301 -8.16602 16 -11.499
c18.667 -6.66699 33.5 -17.5 44.5 -32.5s14.833 -28.833 11.5 -41.5c-4.66699 -17.333 -18 -31.833 -40 -43.5s-43.667 -16.167 -65 -13.5c-16.667 2.66699 -36.5 11.5 -59.5 26.5s-37.5 28.833 -43.5 41.5c-2 4.66699 -5.16699 11.167 -9.5 19.5s-7 14 -8 17
s-2.16699 8.33301 -3.5 16s-1.66602 16 -0.999023 25s2 20.833 4 35.5c4 26 8.5 44.333 13.5 55s16 24.334 33 41.001z" />
    <glyph glyph-name="guillemotright" unicode="&#xbb;" horiz-adv-x="462" 
d="M10 390c0 22.667 1.83594 41.167 5.50293 55.5s7.66699 23.833 12 28.5s9.16602 7 14.499 7c8 0 21.5 -4.5 40.5 -13.5s33.833 -18.167 44.5 -27.5c6.66699 -6 12.167 -8.66699 16.5 -8s12.5 5 24.5 13c18 12.667 33 18.334 45 17.001s32 -11.333 60 -30
c31.333 -20.667 56.666 -34.334 75.999 -41.001c32 -10.667 57.167 -29 75.5 -55s27.5 -56 27.5 -90c0 -19.333 -2.5 -33.666 -7.5 -42.999s-19.833 -26.333 -44.5 -51c-28 -28 -50.667 -44.667 -68 -50s-33.666 -0.666016 -48.999 14.001
c-10 8.66699 -15.5 25.667 -16.5 51s2.5 44.666 10.5 57.999c4 6.66699 6.16699 12 6.5 16s-1.83398 8 -6.50098 12c-8 8 -16.833 8.33301 -26.5 1s-16.167 -19.666 -19.5 -36.999c-2 -8 -8.5 -20.667 -19.5 -38s-23.5 -34.666 -37.5 -51.999
c-24.667 -30 -41.167 -47.833 -49.5 -53.5s-20.833 -7.83398 -37.5 -6.50098c-18 1.33301 -29 4.16602 -33 8.49902s-9 17.166 -15 38.499c-6 24.667 -8.16699 44.667 -6.5 60s5.66699 27 12 35s12.5 14.833 18.5 20.5s10.833 11 14.5 16s3 12.5 -2 22.5
s-14.833 22.667 -29.5 38c-16.667 17.333 -26.834 30.333 -30.501 39s-5.5 23.667 -5.5 45z" />
    <glyph glyph-name="questiondown" unicode="&#xbf;" 
 />
    <glyph glyph-name="Agrave" unicode="&#xc0;" 
 />
    <glyph glyph-name="Aacute" unicode="&#xc1;" 
 />
    <glyph glyph-name="Acircumflex" unicode="&#xc2;" 
 />
    <glyph glyph-name="Adieresis" unicode="&#xc4;" 
 />
    <glyph glyph-name="Ccedilla" unicode="&#xc7;" 
 />
    <glyph glyph-name="Egrave" unicode="&#xc8;" 
 />
    <glyph glyph-name="Eacute" unicode="&#xc9;" 
 />
    <glyph glyph-name="Ecircumflex" unicode="&#xca;" 
 />
    <glyph glyph-name="Edieresis" unicode="&#xcb;" 
 />
    <glyph glyph-name="Icircumflex" unicode="&#xce;" 
 />
    <glyph glyph-name="Idieresis" unicode="&#xcf;" 
 />
    <glyph glyph-name="Ntilde" unicode="&#xd1;" 
 />
    <glyph glyph-name="Oacute" unicode="&#xd3;" 
 />
    <glyph glyph-name="Ocircumflex" unicode="&#xd4;" horiz-adv-x="51" 
d="M10 310c0 6.66699 3.50098 10.832 10.501 12.499s13.167 -0.166016 18.5 -5.49902c4 -4 2.66699 -10 -4 -18s-12.334 -10.333 -17.001 -7c-5.33301 2.66699 -8 8.66699 -8 18z" />
    <glyph glyph-name="Odieresis" unicode="&#xd6;" 
 />
    <glyph glyph-name="Ugrave" unicode="&#xd9;" 
 />
    <glyph glyph-name="Uacute" unicode="&#xda;" 
 />
    <glyph glyph-name="Ucircumflex" unicode="&#xdb;" 
 />
    <glyph glyph-name="Udieresis" unicode="&#xdc;" 
 />
    <glyph glyph-name="germandbls" unicode="&#xdf;" 
 />
    <glyph glyph-name="agrave" unicode="&#xe0;" 
 />
    <glyph glyph-name="aacute" unicode="&#xe1;" 
 />
    <glyph glyph-name="acircumflex" unicode="&#xe2;" 
 />
    <glyph glyph-name="adieresis" unicode="&#xe4;" 
 />
    <glyph glyph-name="ccedilla" unicode="&#xe7;" 
 />
    <glyph glyph-name="egrave" unicode="&#xe8;" 
 />
    <glyph glyph-name="eacute" unicode="&#xe9;" 
 />
    <glyph glyph-name="ecircumflex" unicode="&#xea;" 
 />
    <glyph glyph-name="edieresis" unicode="&#xeb;" 
 />
    <glyph glyph-name="icircumflex" unicode="&#xee;" 
 />
    <glyph glyph-name="idieresis" unicode="&#xef;" 
 />
    <glyph glyph-name="oacute" unicode="&#xf3;" 
 />
    <glyph glyph-name="ocircumflex" unicode="&#xf4;" horiz-adv-x="69" 
d="M10 627c0 12 5.99512 16 17.9951 12c7.33301 -2.66699 14.333 -7.66699 21 -15c8.66699 -10 11.834 -21.5 9.50098 -34.5s-8.83301 -19.5 -19.5 -19.5c-5.33301 0 -8.16602 0.833008 -8.49902 2.5s1.83398 5.16699 6.50098 10.5c6 7.33301 7.33301 14.333 4 21
s-9.66602 10 -18.999 10c-3.33301 0 -6.16602 1.33301 -8.49902 4s-3.5 5.66699 -3.5 9z" />
    <glyph glyph-name="odieresis" unicode="&#xf6;" 
 />
    <glyph glyph-name="ugrave" unicode="&#xf9;" 
 />
    <glyph glyph-name="uacute" unicode="&#xfa;" 
 />
    <glyph glyph-name="ucircumflex" unicode="&#xfb;" 
 />
    <glyph glyph-name="udieresis" unicode="&#xfc;" 
 />
    <glyph glyph-name="eogonek" unicode="&#x119;" 
 />
    <glyph glyph-name="quotedblleft" unicode="&#x201c;" horiz-adv-x="290" 
d="M74 704c10 6 19 7.16699 27 3.5s20 -14.5 36 -32.5l31 -35l19 31c12.667 21.333 21.334 31.666 26.001 30.999c6.66699 0 17.667 -8 33 -24s25 -29.667 29 -41c2.66699 -10.667 4 -18.667 4 -24s-2 -12.666 -6 -21.999s-8.33301 -17.5 -13 -24.5s-10.334 -18 -17.001 -33
s-12.667 -30.5 -18 -46.5c-4.66699 -17.333 -10.667 -27 -18 -29c-10 -3.33301 -20.333 3 -31 19s-17.667 35.333 -21 58c-4 29.333 -8.33301 45.333 -13 48c-3.33301 2 -8.83301 -2.16699 -16.5 -12.5s-15 -23.333 -22 -39s-11.5 -29.167 -13.5 -40.5
c-4 -24.667 -13.333 -36.667 -28 -36c-16 0.666992 -29.667 13.667 -41 39c-7.33301 17.333 -11 36 -11 56c0 21.333 7.66699 50.333 23 87s29 59 41 67z" />
    <glyph glyph-name="quotedblbase" unicode="&#x201e;" horiz-adv-x="289" 
d="M187 152c10.667 11.333 18.1709 17.332 22.5039 17.999s14.166 -3 29.499 -11c26 -13.333 39.333 -42.833 40 -88.5s-11.333 -90.5 -36 -134.5c-29.333 -50.667 -60.333 -56.667 -93 -18c-7.33301 8.66699 -13 17.834 -17 27.501s-6.33301 18 -7 25
s-1.33398 13.167 -2.00098 18.5s-1.83398 9 -3.50098 11s-4.83398 2 -9.50098 -0c-22 -8.66699 -37.5 -12.334 -46.5 -11.001s-19.167 9 -30.5 23c-10 12 -16.5 23 -19.5 33s-4.5 26 -4.5 48c0 29.333 4.66699 48.833 14 58.5s26 11.834 50 6.50098
c10 -2 18 -6.16699 24 -12.5s12.333 -16.833 19 -31.5c8.66699 -20.667 12.667 -39 12 -55s1 -25.667 5 -29c8.66699 -12 17 -9 25 9c6.66699 14 10 31.667 10 53c0 27.333 6 47.333 18 60z" />
    <glyph glyph-name="bullet" unicode="&#x2022;" 
 />
    <glyph glyph-name="Euro" unicode="&#x20ac;" horiz-adv-x="479" 
d="M290 705c37.333 13.333 76.9971 13.6689 118.997 1.00195c11.333 -3.33301 24.166 -15.333 38.499 -36s21.5 -37.334 21.5 -50.001c0 -14.667 -5.66699 -29 -17 -43c-7.33301 -8.66699 -13.166 -13.5 -17.499 -14.5s-10.5 0.833008 -18.5 5.5
c-14 8.66699 -31.667 12.167 -53 10.5s-40 -8.16699 -56 -19.5c-22 -15.333 -43 -32.833 -63 -52.5s-28.667 -31.5 -26 -35.5c2.66699 -4.66699 15.334 -7 38.001 -7s43.5 -8.33301 62.5 -25s27.5 -34 25.5 -52c-1.33301 -10 -5.16602 -18.167 -11.499 -24.5
s-18.833 -13.833 -37.5 -22.5c-30.667 -14.667 -46.167 -24 -46.5 -28s8.5 -8 26.5 -12c19.333 -4 36 -12.333 50 -25s21 -25.667 21 -39c0 -9.33301 -2.83301 -19.333 -8.5 -30s-11.167 -18.834 -16.5 -24.501s-9.16602 -12.167 -11.499 -19.5s-0.5 -13 5.5 -17
c8.66699 -6.66699 13 -23 13 -49c0 -22.667 -7.33301 -42.834 -22 -60.501s-38 -33.834 -70 -48.501c-30.667 -14 -54.334 -19.833 -71.001 -17.5s-36.667 14.5 -60 36.5s-41 44.833 -53 68.5s-22.333 55.834 -31 96.501c-7.33301 36.667 -11 69.334 -11 98.001
s4 62.667 12 102c7.33301 37.333 16.833 67.5 28.5 90.5s33.834 55.167 66.501 96.5c65.333 81.333 123 130.333 173 147zM221.997 147.003c0 3.33301 -1.5 5.16504 -4.5 5.49805s-8.5 -0.5 -16.5 -2.5c-6 -1.33301 -11 -2.33301 -15 -3c-22 -4 -32.667 -9.66699 -32 -17
c0.666992 -3.33301 3.66699 -6 9 -8c8 -3.33301 19.833 -1.66602 35.5 5.00098s23.5 13.334 23.5 20.001z" />
    <glyph glyph-name=".null" horiz-adv-x="0" 
 />
    <glyph glyph-name="nonmarkingreturn" horiz-adv-x="333" 
 />
  </font>
</defs>
</svg>
